{"glyphs":{"0":{"ha":839,"x_min":68,"x_max":772,"o":"m 772 584 l 772 439 q 675 101 772 216 q 421 -14 578 -14 q 165 101 262 -14 q 68 439 68 216 l 68 584 q 112 825 68 727 q 236 974 156 923 q 420 1024 315 1024 q 604 974 525 1024 q 728 825 684 923 q 772 584 772 727 m 581 412 l 581 611 q 538 799 581 734 q 420 863 495 863 q 302 799 345 863 q 258 611 258 734 l 258 412 q 302 215 258 281 q 421 148 346 148 q 538 215 495 148 q 581 412 581 281 z "},"1":{"ha":671,"x_min":83,"x_max":471,"o":"m 471 1010 l 471 0 l 293 0 l 293 758 l 285 758 q 217 710 269 730 q 83 690 165 690 l 83 847 q 191 870 149 847 q 256 925 233 894 q 288 981 279 956 q 299 1010 297 1007 l 471 1010 z "},"2":{"ha":834,"x_min":71,"x_max":760,"o":"m 760 164 l 760 0 l 71 0 l 71 141 l 407 480 q 515 616 483 559 q 547 722 547 672 q 509 825 547 781 q 405 870 472 870 q 297 816 332 870 q 262 688 262 762 l 74 688 q 113 854 74 777 q 226 977 152 930 q 409 1024 301 1024 q 577 986 504 1024 q 691 882 650 948 q 733 728 733 815 q 673 539 733 629 q 517 348 614 448 l 342 170 l 342 164 l 760 164 z "},"3":{"ha":834,"x_min":77,"x_max":760,"o":"m 311 425 l 311 590 l 403 590 q 518 633 479 590 q 556 739 556 677 q 519 834 556 796 q 414 872 482 872 q 316 840 357 872 q 276 756 276 809 l 90 756 q 131 897 90 836 q 245 991 173 957 q 409 1024 318 1024 q 583 992 508 1024 q 700 897 658 959 q 742 742 742 834 q 702 613 742 677 q 586 512 662 549 q 717 421 674 483 q 760 277 760 359 q 713 120 760 184 q 587 20 667 55 q 408 -14 507 -14 q 248 16 324 -14 q 125 109 172 46 q 77 267 77 171 l 266 267 q 307 176 266 211 q 412 141 348 141 q 528 178 484 141 q 572 280 572 216 q 526 392 572 360 q 403 425 480 425 l 311 425 z "},"4":{"ha":854,"x_min":50,"x_max":811,"o":"m 811 358 l 811 195 l 665 195 l 665 0 l 492 0 l 492 195 l 50 195 l 50 323 l 470 1010 l 665 1010 l 665 358 l 811 358 m 253 358 l 492 358 l 492 769 l 470 727 l 253 358 z "},"5":{"ha":834,"x_min":80,"x_max":751,"o":"m 253 457 l 98 495 l 157 1010 l 715 1010 l 715 844 l 313 844 l 284 597 l 289 597 q 348 636 307 617 q 446 654 389 654 q 604 613 535 654 q 712 498 673 572 q 751 327 751 424 q 713 158 751 235 q 600 33 676 80 q 411 -14 525 -14 q 238 25 312 -14 q 124 132 165 63 q 80 293 83 201 l 267 293 q 308 185 275 230 q 412 141 341 141 q 527 196 488 141 q 566 327 566 251 q 521 465 566 417 q 399 512 476 512 q 308 495 342 512 q 253 457 274 478 z "},"6":{"ha":830,"x_min":60,"x_max":743,"o":"m 551 747 q 505 833 537 797 q 410 869 473 869 q 325 841 362 869 q 265 748 288 813 q 239 572 243 684 q 323 634 273 611 q 437 657 373 657 q 600 610 532 657 q 706 488 669 564 q 743 323 743 411 q 702 153 743 229 q 586 31 661 76 q 409 -14 511 -14 q 155 105 250 -14 q 60 446 60 223 l 60 483 q 91 771 60 649 q 199 960 123 893 q 407 1027 275 1027 q 627 952 546 1027 q 733 747 707 877 l 551 747 m 241 342 q 290 190 241 239 q 404 141 338 141 q 515 190 473 141 q 557 323 557 239 q 518 451 557 400 q 401 503 479 503 q 284 457 328 503 q 241 347 241 412 l 241 347 l 241 342 z "},"7":{"ha":814,"x_min":70,"x_max":744,"o":"m 744 1010 l 744 886 l 370 0 l 170 0 l 539 845 l 70 845 l 70 1010 l 744 1010 z "},"8":{"ha":826,"x_min":78,"x_max":747,"o":"m 747 281 q 704 120 747 186 q 585 20 660 54 q 415 -14 510 -14 q 244 20 320 -14 q 123 120 168 54 q 78 281 78 185 q 120 429 78 366 q 232 526 162 491 q 136 615 171 559 q 101 747 101 671 q 142 899 101 837 q 253 992 182 961 q 414 1024 324 1024 q 576 992 505 1024 q 686 899 646 961 q 727 747 727 837 q 691 615 727 671 q 595 525 656 558 q 706 428 665 491 q 747 281 747 366 m 541 737 q 505 832 541 797 q 412 867 470 867 q 322 833 357 867 q 287 738 287 799 q 322 639 287 677 q 415 601 358 601 q 506 639 472 601 q 541 737 541 677 m 560 293 q 518 405 560 362 q 412 448 475 448 q 308 405 350 448 q 265 293 265 362 q 308 184 265 226 q 415 143 351 143 q 520 184 479 143 q 560 293 560 226 z "},"9":{"ha":830,"x_min":73,"x_max":757,"o":"m 266 263 q 312 177 280 213 q 406 142 344 142 q 492 169 455 142 q 551 262 529 197 q 578 438 574 327 q 494 376 544 399 q 380 353 444 353 q 217 400 285 353 q 111 523 148 446 q 73 688 73 599 q 115 857 73 781 q 231 979 156 934 q 408 1024 306 1024 q 662 906 567 1024 q 757 564 757 787 l 757 527 q 725 239 757 362 q 618 50 693 117 q 410 -17 542 -17 q 190 58 271 -17 q 84 263 109 133 l 266 263 m 259 688 q 299 559 259 610 q 415 508 338 508 q 532 553 489 508 q 576 663 576 598 l 576 663 l 576 668 q 527 820 576 771 q 412 869 478 869 q 301 820 343 869 q 259 688 259 771 z "},"\u0000":{"ha":0,"x_min":0,"x_max":0,"o":""}," ":{"ha":383,"x_min":0,"x_max":0,"o":""},"A":{"ha":1028,"x_min":38,"x_max":989,"o":"m 247 0 l 38 0 l 410 1010 l 617 1010 l 989 0 l 781 0 l 707 215 l 321 215 l 247 0 m 508 764 l 375 375 l 653 375 l 520 764 l 508 764 z "},"Ä":{"ha":1028,"x_min":38,"x_max":989,"o":"m 374 1104 q 309 1129 334 1104 q 283 1190 283 1155 q 309 1252 283 1227 q 374 1276 334 1276 q 438 1252 413 1276 q 464 1190 464 1227 q 438 1129 464 1155 q 374 1104 413 1104 m 655 1104 q 590 1129 616 1104 q 564 1190 564 1155 q 590 1252 564 1227 q 655 1276 616 1276 q 720 1252 694 1276 q 745 1190 745 1227 q 720 1129 745 1155 q 655 1104 694 1104 m 247 0 l 38 0 l 410 1010 l 617 1010 l 989 0 l 781 0 l 707 215 l 321 215 l 247 0 m 508 764 l 375 375 l 653 375 l 520 764 l 508 764 z "},"Ã":{"ha":1028,"x_min":38,"x_max":989,"o":"m 657 1306 l 768 1298 q 725 1171 768 1223 q 615 1119 681 1119 q 543 1133 571 1119 q 490 1163 515 1148 q 430 1178 465 1178 q 389 1161 405 1178 q 372 1112 372 1143 l 259 1117 q 279 1207 259 1166 q 334 1273 299 1248 q 413 1298 368 1298 q 478 1284 449 1298 q 536 1255 508 1269 q 598 1240 564 1240 q 639 1258 622 1240 q 657 1306 657 1275 m 247 0 l 38 0 l 410 1010 l 617 1010 l 989 0 l 781 0 l 707 215 l 321 215 l 247 0 m 508 764 l 375 375 l 653 375 l 520 764 l 508 764 z "},"Ⱥ":{"ha":1028,"x_min":38,"x_max":989,"o":"m 925 1073 l 720 731 l 989 0 l 781 0 l 707 215 l 409 215 l 210 -116 l 75 -116 l 145 0 l 38 0 l 410 1010 l 617 1010 l 669 870 l 791 1073 l 925 1073 m 508 764 l 381 391 l 551 674 l 520 764 l 508 764 m 505 375 l 653 375 l 599 532 l 505 375 z "},"Λ":{"ha":1028,"x_min":38,"x_max":989,"o":"m 247 0 l 38 0 l 410 1010 l 617 1010 l 989 0 l 781 0 l 520 764 l 508 764 l 247 0 z "},"Æ":{"ha":1370,"x_min":36,"x_max":1302,"o":"m 1302 157 l 1302 0 l 699 0 l 690 216 l 364 216 l 256 0 l 36 0 l 574 1010 l 1261 1010 l 1261 853 l 851 853 l 862 585 l 1205 585 l 1205 430 l 868 430 l 879 157 l 1302 157 m 443 375 l 684 375 l 665 819 l 443 375 z "},"B":{"ha":887,"x_min":87,"x_max":830,"o":"m 486 0 l 87 0 l 87 1010 l 458 1010 q 652 974 575 1010 q 766 877 728 939 q 804 736 804 815 q 758 596 804 648 q 631 525 712 544 l 631 517 q 772 442 714 507 q 830 272 830 377 q 744 76 830 152 q 486 0 658 0 m 282 846 l 282 582 l 443 582 q 613 715 613 582 q 578 807 613 767 q 454 846 544 846 l 282 846 m 640 294 q 600 397 640 354 q 481 441 561 441 l 282 441 l 282 164 l 474 164 q 601 200 562 164 q 640 294 640 235 z "},"Ƀ":{"ha":957,"x_min":24,"x_max":900,"o":"m 555 0 l 157 0 l 157 242 l 24 242 l 24 360 l 157 360 l 157 1010 l 528 1010 q 721 974 645 1010 q 836 877 798 939 q 873 736 873 815 q 827 596 873 648 q 700 525 781 544 l 700 517 q 842 442 784 507 q 900 272 900 377 q 814 76 900 152 q 555 0 727 0 m 352 846 l 352 582 l 513 582 q 682 715 682 582 q 648 807 682 767 q 523 846 613 846 l 352 846 m 496 360 l 496 242 l 352 242 l 352 164 l 544 164 q 671 200 632 164 q 709 294 709 235 q 670 397 709 354 q 551 441 631 441 l 352 441 l 352 360 l 496 360 z "},"Ɓ":{"ha":1112,"x_min":6,"x_max":1054,"o":"m 710 0 l 312 0 l 312 848 l 277 848 q 217 830 237 848 q 189 782 196 811 q 182 723 182 754 l 182 668 l 6 668 l 6 761 q 78 942 6 874 q 276 1010 150 1010 l 683 1010 q 876 974 799 1010 q 991 877 953 939 q 1028 736 1028 815 q 982 596 1028 648 q 855 525 936 544 l 855 517 q 997 442 939 507 q 1054 272 1054 377 q 968 76 1054 152 q 710 0 882 0 m 507 846 l 507 582 l 668 582 q 837 715 837 582 q 803 807 837 767 q 679 846 768 846 l 507 846 m 864 294 q 825 397 864 354 q 706 441 786 441 l 507 441 l 507 164 l 698 164 q 826 200 787 164 q 864 294 864 235 z "},"C":{"ha":988,"x_min":67,"x_max":928,"o":"m 928 693 l 739 672 q 655 804 717 760 q 512 848 593 848 q 332 764 403 848 q 261 504 261 681 q 332 245 261 327 q 512 162 403 162 q 654 205 593 162 q 736 334 714 249 l 927 313 q 843 136 903 209 q 698 24 783 63 q 512 -14 614 -14 q 283 48 384 -14 q 125 225 182 109 q 67 504 67 341 q 125 783 67 667 q 283 962 182 900 q 512 1024 384 1024 q 699 985 614 1024 q 844 872 784 946 q 928 693 904 799 z "},"Ƈ":{"ha":1091,"x_min":67,"x_max":1113,"o":"m 928 672 l 741 672 l 741 672 l 739 672 q 655 804 717 760 q 512 848 593 848 q 332 764 403 848 q 261 504 261 681 q 332 245 261 327 q 512 162 403 162 q 654 205 593 162 q 736 334 714 249 l 927 313 q 843 136 903 209 q 698 24 783 63 q 512 -14 614 -14 q 283 48 384 -14 q 125 225 182 109 q 67 504 67 341 q 125 783 67 667 q 283 962 182 900 q 512 1024 384 1024 q 783 933 671 1024 q 884 1017 821 988 q 1020 1046 946 1046 q 1067 1045 1044 1046 q 1113 1040 1090 1044 l 1113 883 q 1086 885 1102 884 q 1057 886 1069 886 q 997 875 1027 886 q 948 837 967 864 q 928 764 928 811 l 928 672 z "},"Ȼ":{"ha":988,"x_min":67,"x_max":928,"o":"m 328 -103 l 225 -63 l 270 56 q 121 232 176 118 q 67 503 67 346 q 125 783 67 666 q 283 961 182 899 q 512 1023 384 1023 q 630 1009 574 1023 l 668 1111 l 772 1071 l 732 967 q 855 857 804 926 q 928 692 906 787 l 739 671 q 667 794 720 748 l 433 174 q 512 162 470 162 q 654 205 593 162 q 736 334 714 248 l 927 312 q 843 135 903 208 q 698 24 783 62 q 512 -14 614 -14 q 370 7 437 -14 l 328 -103 m 261 503 q 282 345 261 411 q 338 237 302 279 l 567 842 q 512 847 541 847 q 332 763 403 847 q 261 503 261 680 z "},"Ɔ":{"ha":988,"x_min":62,"x_max":923,"o":"m 62 693 q 146 872 86 799 q 291 985 206 946 q 477 1024 376 1024 q 707 962 606 1024 q 865 783 807 900 q 923 504 923 667 q 865 225 923 341 q 707 48 807 109 q 477 -14 606 -14 q 291 24 376 -14 q 147 136 207 63 q 63 313 88 209 l 254 334 q 336 205 276 249 q 477 162 397 162 q 657 245 586 162 q 728 504 728 327 q 657 764 728 681 q 477 848 586 848 q 335 804 397 848 q 251 672 273 760 l 62 693 z "},"D":{"ha":977,"x_min":87,"x_max":910,"o":"m 430 0 l 87 0 l 87 1010 l 435 1010 q 689 950 582 1010 q 853 776 796 889 q 910 506 910 663 q 853 235 910 348 q 688 61 795 121 q 430 0 580 0 m 424 841 l 282 841 l 282 169 l 421 169 q 641 251 566 169 q 715 506 715 334 q 641 759 715 677 q 424 841 567 841 z "},"Ɗ":{"ha":1205,"x_min":6,"x_max":1138,"o":"m 658 0 l 316 0 l 316 841 l 277 841 q 200 805 218 841 q 182 723 182 769 l 182 668 l 6 668 l 6 761 q 78 942 6 874 q 276 1010 150 1010 l 663 1010 q 917 950 810 1010 q 1081 776 1023 889 q 1138 506 1138 663 q 1081 235 1138 348 q 915 61 1023 121 q 658 0 808 0 m 652 841 l 510 841 l 510 169 l 649 169 q 869 251 795 169 q 944 506 944 334 q 870 759 944 677 q 652 841 796 841 z "},"Ɖ":{"ha":1054,"x_min":32,"x_max":987,"o":"m 507 0 l 164 0 l 164 444 l 32 444 l 32 562 l 164 562 l 164 1010 l 511 1010 q 766 950 659 1010 q 930 776 872 889 q 987 506 987 663 q 929 235 987 348 q 764 61 872 121 q 507 0 657 0 m 504 562 l 504 444 l 359 444 l 359 169 l 498 169 q 718 251 643 169 q 792 506 792 334 q 718 759 792 677 q 501 841 644 841 l 359 841 l 359 562 l 504 562 z "},"ǅ":{"ha":1632,"x_min":87,"x_max":1558,"o":"m 430 0 l 87 0 l 87 1010 l 435 1010 q 689 950 582 1010 q 853 776 796 889 q 910 506 910 663 q 853 235 910 348 q 688 61 795 121 q 430 0 580 0 m 1153 1010 l 1259 910 l 1364 1010 l 1521 1010 l 1521 1004 l 1316 813 l 1200 813 l 995 1004 l 995 1010 l 1153 1010 m 424 841 l 282 841 l 282 169 l 421 169 q 641 251 566 169 q 715 506 715 334 q 641 759 715 677 q 424 841 567 841 m 1558 155 l 1558 0 l 949 0 l 949 119 l 1310 602 l 956 602 l 956 758 l 1550 758 l 1550 641 l 1189 155 l 1558 155 z "},"E":{"ha":821,"x_min":87,"x_max":744,"o":"m 744 164 l 744 0 l 87 0 l 87 1010 l 741 1010 l 741 846 l 282 846 l 282 587 l 678 587 l 678 424 l 282 424 l 282 164 l 744 164 z "},"Ɇ":{"ha":875,"x_min":87,"x_max":744,"o":"m 283 -110 l 179 -74 l 203 0 l 87 0 l 87 1010 l 539 1010 l 575 1118 l 679 1082 l 654 1010 l 741 1010 l 741 846 l 600 846 l 514 587 l 678 587 l 678 424 l 460 424 l 373 164 l 744 164 l 744 0 l 319 0 l 283 -110 m 282 587 l 398 587 l 484 846 l 282 846 l 282 587 m 282 424 l 282 238 l 344 424 l 282 424 z "},"Ǝ":{"ha":819,"x_min":66,"x_max":722,"o":"m 68 0 l 68 164 l 527 164 l 527 423 l 131 423 l 131 586 l 527 586 l 527 846 l 66 846 l 66 1010 l 722 1010 l 722 0 l 68 0 z "},"F":{"ha":816,"x_min":87,"x_max":740,"o":"m 672 587 l 672 424 l 282 424 l 282 0 l 87 0 l 87 1010 l 740 1010 l 740 846 l 282 846 l 282 587 l 672 587 z "},"Ƒ":{"ha":815,"x_min":-56,"x_max":740,"o":"m 672 587 l 672 424 l 282 424 l 282 -53 q 245 -197 282 -147 q 150 -265 207 -247 q 36 -284 94 -284 q -11 -284 17 -284 q -56 -280 -39 -283 l -56 -129 q -36 -131 -47 -131 q -16 -132 -24 -132 q 56 -115 26 -132 q 87 -52 87 -99 l 87 1010 l 740 1010 l 740 846 l 282 846 l 282 587 l 672 587 z "},"Ⅎ":{"ha":816,"x_min":67,"x_max":720,"o":"m 67 0 l 67 164 l 525 164 l 525 423 l 135 423 l 135 586 l 525 586 l 525 1010 l 720 1010 l 720 0 l 67 0 z "},"G":{"ha":1001,"x_min":67,"x_max":930,"o":"m 930 528 l 930 379 q 874 172 930 260 q 724 35 819 84 q 514 -14 630 -14 q 284 47 386 -14 q 125 224 183 109 q 67 504 67 340 q 124 784 67 668 q 282 962 182 901 q 509 1024 382 1024 q 767 941 655 1024 q 925 704 879 858 l 728 683 q 642 808 702 767 q 509 848 582 848 q 383 811 439 848 q 294 699 327 775 q 261 504 261 622 q 295 309 261 385 q 385 198 328 234 q 514 162 442 162 q 630 189 578 162 q 711 264 681 216 q 741 379 741 313 l 529 379 l 529 528 l 930 528 z "},"Ǥ":{"ha":1050,"x_min":67,"x_max":1022,"o":"m 930 528 l 930 379 q 928 340 930 359 l 1022 340 l 1022 238 l 906 238 q 820 104 877 160 q 684 17 762 47 q 514 -14 605 -14 q 284 47 386 -14 q 125 224 183 109 q 67 504 67 340 q 124 784 67 668 q 282 962 182 901 q 509 1024 382 1024 q 767 941 655 1024 q 925 704 879 858 l 728 683 q 642 808 702 767 q 509 848 582 848 q 383 811 439 848 q 294 699 327 775 q 261 504 261 622 q 295 309 261 385 q 385 198 328 234 q 514 162 442 162 q 692 238 628 162 l 529 238 l 529 340 l 738 340 q 741 379 741 359 l 741 405 l 529 405 l 529 528 l 930 528 z "},"Ɠ":{"ha":1122,"x_min":67,"x_max":1107,"o":"m 930 528 l 930 379 q 874 172 930 260 q 724 35 819 84 q 514 -14 630 -14 q 284 47 386 -14 q 125 224 183 109 q 67 504 67 340 q 124 784 67 668 q 282 962 182 901 q 509 1024 382 1024 q 757 948 650 1024 q 859 1054 791 1017 q 1014 1090 928 1090 q 1061 1088 1039 1090 q 1107 1080 1083 1086 l 1107 925 q 1079 928 1093 927 q 1052 930 1066 930 q 992 923 1021 930 q 946 894 964 915 q 928 831 928 873 l 928 683 l 728 683 q 642 808 702 767 q 509 848 582 848 q 383 811 439 848 q 294 699 327 775 q 261 504 261 622 q 295 309 261 385 q 385 198 328 234 q 514 162 442 162 q 630 189 578 162 q 711 264 681 216 q 741 379 741 313 l 529 379 l 529 528 l 930 528 z "},"H":{"ha":983,"x_min":87,"x_max":896,"o":"m 282 1010 l 282 587 l 701 587 l 701 1010 l 896 1010 l 896 0 l 701 0 l 701 424 l 282 424 l 282 0 l 87 0 l 87 1010 l 282 1010 z "},"Ḩ":{"ha":976,"x_min":86,"x_max":895,"o":"m 138 0 l 86 0 l 86 1010 l 281 1010 l 281 587 l 700 587 l 700 1010 l 895 1010 l 895 0 l 700 0 l 700 424 l 281 424 l 281 0 l 281 0 l 273 -41 q 343 -73 311 -47 q 374 -157 374 -100 q 315 -273 374 -229 q 141 -318 255 -318 l 135 -207 q 191 -195 169 -207 q 214 -152 214 -182 q 191 -112 214 -123 q 116 -98 168 -102 l 138 0 z "},"Ħ":{"ha":976,"x_min":10,"x_max":973,"o":"m 283 1010 l 283 828 l 702 828 l 702 1010 l 897 1010 l 897 828 l 973 828 l 973 712 l 897 712 l 897 0 l 702 0 l 702 424 l 283 424 l 283 0 l 88 0 l 88 712 l 10 712 l 10 828 l 88 828 l 88 1010 l 283 1010 m 283 587 l 702 587 l 702 712 l 283 712 l 283 587 z "},"Ӈ":{"ha":983,"x_min":87,"x_max":896,"o":"m 282 1010 l 282 587 l 701 587 l 701 1010 l 896 1010 l 896 -36 q 858 -182 896 -124 q 758 -268 821 -240 q 620 -296 695 -296 q 574 -295 598 -296 q 527 -290 549 -294 l 527 -133 q 554 -135 538 -134 q 582 -136 571 -136 q 665 -113 628 -136 q 701 -27 701 -90 l 701 424 l 282 424 l 282 0 l 87 0 l 87 1010 l 282 1010 z "},"Ң":{"ha":1145,"x_min":80,"x_max":1046,"o":"m 275 1010 l 275 587 l 694 587 l 694 1010 l 889 1010 l 889 138 l 1046 138 l 1046 -243 l 860 -243 l 860 0 l 694 0 l 694 424 l 275 424 l 275 0 l 80 0 l 80 1010 l 275 1010 z "},"Ӊ":{"ha":1066,"x_min":79,"x_max":1049,"o":"m 274 1010 l 274 587 l 693 587 l 693 1010 l 888 1010 l 888 125 l 1049 125 l 1049 -2 q 1014 -154 1049 -80 q 927 -281 980 -228 l 821 -237 q 866 -136 843 -187 q 888 -12 888 -85 l 888 0 l 693 0 l 693 424 l 274 424 l 274 0 l 79 0 l 79 1010 l 274 1010 z "},"Ҥ":{"ha":1397,"x_min":70,"x_max":1284,"o":"m 264 1010 l 264 587 l 684 587 l 684 1010 l 1284 1010 l 1284 855 l 878 855 l 878 0 l 684 0 l 684 424 l 264 424 l 264 0 l 70 0 l 70 1010 l 264 1010 z "},"Ƕ":{"ha":1490,"x_min":87,"x_max":1408,"o":"m 281 1010 l 281 584 l 701 584 l 701 1010 l 895 1010 l 895 336 q 934 199 895 248 q 1055 149 973 149 q 1177 199 1140 149 q 1215 336 1215 248 l 1215 741 l 1408 741 l 1408 336 q 1313 75 1408 165 q 1055 -14 1218 -14 q 797 76 892 -14 q 701 336 701 165 l 701 425 l 281 425 l 281 0 l 87 0 l 87 1010 l 281 1010 z "},"I":{"ha":369,"x_min":87,"x_max":282,"o":"m 282 1010 l 282 0 l 87 0 l 87 1010 l 282 1010 z "},"Ï":{"ha":509,"x_min":24,"x_max":486,"o":"m 115 1104 q 50 1129 76 1104 q 24 1190 24 1155 q 50 1252 24 1227 q 115 1276 76 1276 q 179 1252 154 1276 q 205 1190 205 1227 q 179 1129 205 1155 q 115 1104 154 1104 m 396 1104 q 331 1129 357 1104 q 305 1190 305 1155 q 331 1252 305 1227 q 396 1276 357 1276 q 460 1252 435 1276 q 486 1190 486 1227 q 460 1129 486 1155 q 396 1104 435 1104 m 351 1010 l 351 0 l 156 0 l 156 1010 l 351 1010 z "},"Ḯ":{"ha":488,"x_min":26,"x_max":462,"o":"m 183 1214 l 270 1348 l 410 1348 l 288 1214 l 183 1214 m 320 1112 q 321 1159 310 1135 q 360 1193 331 1183 q 415 1195 389 1203 q 450 1163 441 1186 q 451 1116 462 1139 q 411 1082 440 1093 q 356 1080 381 1072 q 320 1112 331 1089 m 36 1112 q 36 1159 26 1135 q 75 1193 46 1183 q 130 1195 105 1203 q 166 1163 156 1186 q 166 1116 178 1139 q 126 1082 155 1093 q 72 1080 97 1072 q 36 1112 47 1089 m 321 1010 l 321 0 l 126 0 l 126 1010 l 321 1010 z "},"Ɨ":{"ha":566,"x_min":47,"x_max":519,"o":"m 519 578 l 519 460 l 378 460 l 378 0 l 183 0 l 183 460 l 47 460 l 47 578 l 183 578 l 183 1010 l 378 1010 l 378 578 l 519 578 z "},"Ḭ":{"ha":526,"x_min":7,"x_max":516,"o":"m 356 1010 l 356 0 l 161 0 l 161 1010 l 356 1010 m 405 -72 l 516 -80 q 473 -207 516 -155 q 363 -259 429 -259 q 291 -245 319 -259 q 238 -215 263 -230 q 178 -200 213 -200 q 137 -218 153 -200 q 120 -266 120 -235 l 7 -261 q 27 -171 7 -212 q 82 -105 47 -130 q 161 -80 116 -80 q 226 -94 197 -80 q 284 -123 255 -109 q 346 -138 312 -138 q 387 -120 370 -138 q 405 -72 405 -103 z "},"J":{"ha":765,"x_min":35,"x_max":682,"o":"m 488 303 l 488 1010 l 682 1010 l 682 303 q 640 133 682 204 q 524 24 598 63 q 357 -14 451 -14 q 192 19 265 -14 q 77 119 119 53 q 35 284 35 185 l 228 284 q 266 181 229 217 q 360 145 303 145 q 451 183 413 145 q 488 303 488 221 z "},"Ɉ":{"ha":843,"x_min":55,"x_max":798,"o":"m 509 303 l 509 460 l 326 460 l 326 578 l 509 578 l 509 1010 l 702 1010 l 702 578 l 798 578 l 798 460 l 702 460 l 702 303 q 660 133 702 204 q 545 24 618 63 q 377 -14 472 -14 q 212 19 285 -14 q 97 119 140 53 q 55 284 55 185 l 249 284 q 286 181 250 217 q 380 145 323 145 q 471 183 434 145 q 509 303 509 221 z "},"K":{"ha":977,"x_min":87,"x_max":954,"o":"m 700 0 l 403 406 l 282 273 l 282 0 l 87 0 l 87 1010 l 282 1010 l 282 563 l 295 563 l 699 1010 l 954 1010 l 526 546 l 935 0 l 700 0 z "},"Ҡ":{"ha":1220,"x_min":20,"x_max":1198,"o":"m 944 0 l 647 406 l 526 273 l 526 0 l 331 0 l 331 855 l 20 855 l 20 1010 l 526 1010 l 526 563 l 539 563 l 943 1010 l 1198 1010 l 770 546 l 1178 0 l 944 0 z "},"Қ":{"ha":1078,"x_min":121,"x_max":1032,"o":"m 734 0 l 436 406 l 316 273 l 316 0 l 121 0 l 121 1010 l 316 1010 l 316 563 l 329 563 l 733 1010 l 988 1010 l 560 546 l 865 138 l 1032 138 l 1032 -243 l 846 -243 l 846 0 l 734 0 z "},"Ƙ":{"ha":972,"x_min":87,"x_max":963,"o":"m 700 0 l 403 406 l 282 273 l 282 0 l 87 0 l 87 1010 l 282 1010 l 282 563 l 295 563 l 577 874 l 629 931 q 788 1021 701 1011 q 963 979 876 1032 l 899 838 q 830 852 860 860 q 766 806 800 844 l 738 775 l 526 546 l 935 0 l 700 0 z "},"L":{"ha":776,"x_min":87,"x_max":710,"o":"m 710 164 l 710 0 l 87 0 l 87 1010 l 282 1010 l 282 164 l 710 164 z "},"Ł":{"ha":862,"x_min":43,"x_max":768,"o":"m 768 164 l 768 0 l 145 0 l 145 440 l 43 411 l 43 521 l 145 551 l 145 1010 l 340 1010 l 340 608 l 481 649 l 481 537 l 340 497 l 340 164 l 768 164 z "},"Ƚ":{"ha":862,"x_min":35,"x_max":788,"o":"m 507 578 l 507 460 l 360 460 l 360 164 l 788 164 l 788 0 l 165 0 l 165 460 l 35 460 l 35 578 l 165 578 l 165 1010 l 360 1010 l 360 578 l 507 578 z "},"M":{"ha":1247,"x_min":87,"x_max":1160,"o":"m 87 1010 l 332 1010 l 618 306 l 630 306 l 915 1010 l 1160 1010 l 1160 0 l 968 0 l 968 689 l 959 689 l 694 13 l 554 13 l 288 692 l 280 692 l 280 0 l 87 0 l 87 1010 z "},"Ӎ":{"ha":1315,"x_min":87,"x_max":1277,"o":"m 87 1010 l 332 1010 l 618 306 l 630 306 l 915 1010 l 1160 1010 l 1160 125 l 1277 125 l 1277 -2 q 1242 -154 1276 -80 q 1155 -281 1207 -228 l 1049 -237 q 1093 -136 1071 -187 q 1116 -12 1116 -85 l 1116 0 l 968 0 l 968 689 l 959 689 l 694 13 l 554 13 l 288 692 l 280 692 l 280 0 l 87 0 l 87 1010 z "},"N":{"ha":983,"x_min":87,"x_max":896,"o":"m 896 1010 l 896 0 l 705 0 l 291 676 l 282 676 l 282 0 l 87 0 l 87 1010 l 280 1010 l 693 333 l 701 333 l 701 1010 l 896 1010 z "},"Ɲ":{"ha":983,"x_min":-56,"x_max":896,"o":"m 896 1010 l 896 0 l 705 0 l 291 676 l 282 676 l 282 -53 q 245 -197 282 -147 q 150 -265 207 -247 q 36 -284 94 -284 q -11 -284 17 -284 q -56 -280 -39 -283 l -56 -129 q -36 -131 -47 -131 q -16 -132 -24 -132 q 56 -115 26 -132 q 87 -52 87 -99 l 87 1010 l 280 1010 l 693 333 l 701 333 l 701 1010 l 896 1010 z "},"Ŋ":{"ha":983,"x_min":87,"x_max":896,"o":"m 896 1010 l 896 -36 q 858 -182 896 -124 q 757 -268 820 -240 q 619 -296 694 -296 q 573 -295 597 -296 q 527 -290 549 -294 l 527 -133 q 554 -135 537 -134 q 581 -136 570 -136 q 666 -113 628 -136 q 703 -27 703 -90 l 703 2 l 291 676 l 282 676 l 282 0 l 87 0 l 87 1010 l 280 1010 l 693 333 l 701 333 l 701 1010 l 896 1010 z "},"И":{"ha":983,"x_min":87,"x_max":896,"o":"m 896 -15 l 701 -15 l 701 662 l 693 662 l 280 -15 l 87 -15 l 87 995 l 282 995 l 282 320 l 291 320 l 705 995 l 896 995 l 896 -15 z "},"Ҋ":{"ha":1115,"x_min":80,"x_max":1054,"o":"m 589 1248 l 727 1248 q 664 1104 727 1160 q 493 1048 601 1048 q 325 1104 387 1048 q 262 1248 262 1160 l 399 1248 q 420 1185 399 1212 q 493 1158 441 1158 q 567 1185 545 1158 q 589 1248 589 1212 m 888 -15 l 694 -15 l 694 662 l 686 662 l 272 -15 l 80 -15 l 80 995 l 275 995 l 275 320 l 283 320 l 697 995 l 888 995 l 888 -15 m 1054 125 l 1054 -2 q 1019 -154 1053 -80 q 932 -281 984 -228 l 825 -237 q 870 -136 848 -187 q 892 -12 892 -85 l 892 125 l 1054 125 z "},"Ͷ":{"ha":1026,"x_min":105,"x_max":913,"o":"m 913 -15 l 719 -15 l 719 662 l 710 662 l 297 -15 l 105 -15 l 105 995 l 299 995 l 299 320 l 308 320 l 722 995 l 913 995 l 913 -15 z "},"O":{"ha":1022,"x_min":67,"x_max":956,"o":"m 956 504 q 898 224 956 340 q 739 47 839 109 q 512 -14 639 -14 q 285 47 386 -14 q 125 224 183 109 q 67 504 67 340 q 125 784 67 668 q 285 962 183 901 q 512 1024 386 1024 q 739 962 639 1024 q 898 784 839 901 q 956 504 956 668 m 761 504 q 690 765 761 682 q 512 848 620 848 q 384 811 441 848 q 294 699 327 775 q 261 504 261 622 q 294 309 261 385 q 384 198 327 234 q 512 162 441 162 q 690 244 620 162 q 761 504 761 325 z "},"Ö":{"ha":1022,"x_min":67,"x_max":956,"o":"m 371 1104 q 306 1129 332 1104 q 280 1190 280 1155 q 306 1252 280 1227 q 371 1276 332 1276 q 436 1252 410 1276 q 461 1190 461 1227 q 436 1129 461 1155 q 371 1104 410 1104 m 653 1104 q 588 1129 614 1104 q 562 1190 562 1155 q 588 1252 562 1227 q 653 1276 614 1276 q 717 1252 691 1276 q 742 1190 742 1227 q 717 1129 742 1155 q 653 1104 691 1104 m 956 504 q 898 224 956 340 q 739 47 839 109 q 512 -14 639 -14 q 285 47 386 -14 q 125 224 183 109 q 67 504 67 340 q 125 784 67 668 q 285 962 183 901 q 512 1024 386 1024 q 739 962 639 1024 q 898 784 839 901 q 956 504 956 668 m 761 504 q 690 765 761 682 q 512 848 620 848 q 384 811 441 848 q 294 699 327 775 q 261 504 261 622 q 294 309 261 385 q 384 198 327 234 q 512 162 441 162 q 690 244 620 162 q 761 504 761 325 z "},"Õ":{"ha":1022,"x_min":67,"x_max":956,"o":"m 654 1306 l 766 1298 q 722 1171 766 1223 q 612 1119 679 1119 q 541 1133 569 1119 q 488 1163 513 1148 q 427 1178 463 1178 q 386 1161 403 1178 q 370 1112 370 1143 l 256 1117 q 276 1207 256 1166 q 331 1273 296 1248 q 410 1298 366 1298 q 476 1284 447 1298 q 533 1255 505 1269 q 595 1240 562 1240 q 637 1258 619 1240 q 654 1306 654 1275 m 956 504 q 898 224 956 340 q 739 47 839 109 q 512 -14 639 -14 q 285 47 386 -14 q 125 224 183 109 q 67 504 67 340 q 125 784 67 668 q 285 962 183 901 q 512 1024 386 1024 q 739 962 639 1024 q 898 784 839 901 q 956 504 956 668 m 761 504 q 690 765 761 682 q 512 848 620 848 q 384 811 441 848 q 294 699 327 775 q 261 504 261 622 q 294 309 261 385 q 384 198 327 234 q 512 162 441 162 q 690 244 620 162 q 761 504 761 325 z "},"Ø":{"ha":1022,"x_min":67,"x_max":956,"o":"m 211 -47 l 119 15 l 193 124 q 100 286 134 190 q 67 504 67 382 q 125 784 67 668 q 285 962 183 901 q 512 1024 386 1024 q 753 953 649 1024 l 822 1055 l 913 993 l 836 879 q 924 718 892 812 q 956 504 956 623 q 898 224 956 340 q 739 47 839 109 q 512 -14 639 -14 q 277 52 380 -14 l 211 -47 m 261 504 q 273 382 261 436 q 304 289 284 329 l 652 803 q 512 848 594 848 q 384 811 441 848 q 294 699 327 775 q 261 504 261 622 m 761 504 q 751 620 761 568 q 723 712 741 672 l 378 201 q 512 162 435 162 q 690 244 620 162 q 761 504 761 325 z "},"Ơ":{"ha":1049,"x_min":67,"x_max":1037,"o":"m 956 504 q 898 224 956 340 q 739 47 839 109 q 512 -14 639 -14 q 285 47 386 -14 q 125 224 183 109 q 67 504 67 340 q 125 784 67 668 q 284 962 183 901 q 512 1024 385 1024 q 834 881 712 1024 q 891 946 874 899 q 907 1064 907 993 l 1037 1064 q 1002 887 1037 958 q 896 786 968 816 q 940 657 925 728 q 956 504 956 586 m 761 504 q 690 765 761 682 q 512 848 620 848 q 384 811 441 848 q 294 699 327 775 q 261 504 261 622 q 294 309 261 385 q 384 198 327 234 q 512 162 441 162 q 690 244 620 162 q 761 504 761 325 z "},"P":{"ha":884,"x_min":87,"x_max":815,"o":"m 462 353 l 282 353 l 282 0 l 87 0 l 87 1010 l 461 1010 q 665 968 587 1010 q 779 852 743 926 q 815 681 815 778 q 731 443 815 534 q 462 353 647 353 m 282 846 l 282 515 l 462 515 q 587 563 551 515 q 622 681 622 611 q 586 799 622 751 q 461 846 550 846 l 282 846 z "},"Ҏ":{"ha":884,"x_min":87,"x_max":815,"o":"m 462 353 l 282 353 l 282 0 l 87 0 l 87 1010 l 461 1010 q 665 968 587 1010 q 779 852 743 926 q 815 681 815 778 q 790 534 815 599 q 711 426 764 469 l 776 338 l 678 262 l 598 370 q 462 353 538 353 m 515 690 l 598 579 q 617 626 611 600 q 622 681 622 652 q 586 799 622 751 q 461 846 550 846 l 282 846 l 282 515 l 462 515 q 489 516 476 515 l 417 614 l 515 690 z "},"Ƥ":{"ha":1108,"x_min":6,"x_max":1040,"o":"m 686 353 l 507 353 l 507 0 l 312 0 l 312 848 l 277 848 q 217 830 237 848 q 189 782 196 811 q 182 723 182 754 l 182 668 l 6 668 l 6 761 q 78 942 6 874 q 276 1010 150 1010 l 686 1010 q 890 968 811 1010 q 1004 852 968 926 q 1040 681 1040 778 q 1003 509 1040 583 q 888 394 966 436 q 686 353 810 353 m 507 846 l 507 515 l 686 515 q 811 563 775 515 q 847 681 847 611 q 811 799 847 751 q 686 846 775 846 l 507 846 z "},"Q":{"ha":1022,"x_min":67,"x_max":956,"o":"m 956 504 q 913 260 956 364 q 796 89 870 155 l 928 -95 l 741 -95 l 665 12 q 512 -14 594 -14 q 285 47 386 -14 q 125 224 183 109 q 67 504 67 340 q 125 784 67 668 q 285 962 183 901 q 512 1024 386 1024 q 739 962 639 1024 q 898 784 839 901 q 956 504 956 668 m 438 337 l 609 337 l 683 235 q 740 343 720 276 q 761 504 761 409 q 690 765 761 682 q 512 848 620 848 q 384 811 441 848 q 294 699 327 775 q 261 504 261 622 q 294 309 261 385 q 384 198 327 234 q 512 162 441 162 q 562 167 538 162 l 438 337 z "},"R":{"ha":884,"x_min":87,"x_max":855,"o":"m 639 0 l 451 378 l 282 378 l 282 0 l 87 0 l 87 1010 l 460 1010 q 727 924 639 1010 q 815 696 815 837 q 769 522 815 591 q 646 415 722 453 l 855 0 l 639 0 m 282 846 l 282 541 l 455 541 q 581 581 539 541 q 622 692 622 620 q 584 803 622 760 q 460 846 545 846 l 282 846 z "},"℟":{"ha":884,"x_min":87,"x_max":855,"o":"m 639 0 l 460 360 l 274 -240 l 167 -229 l 236 0 l 87 0 l 87 1010 l 460 1010 q 540 1005 502 1010 l 552 1047 l 419 1091 l 457 1202 l 694 1113 l 651 974 q 774 865 733 937 q 815 696 815 793 q 769 522 815 591 q 646 415 722 453 l 855 0 l 639 0 m 282 846 l 282 541 l 400 541 l 491 844 q 460 846 476 846 l 282 846 m 622 692 q 594 791 622 753 l 519 548 q 622 692 622 575 m 282 378 l 282 153 l 350 378 l 282 378 z "},"℞":{"ha":1015,"x_min":87,"x_max":966,"o":"m 646 0 l 451 0 l 613 226 l 506 378 l 282 378 l 282 0 l 87 0 l 87 1010 l 460 1010 q 727 924 639 1010 q 815 696 815 837 q 774 530 815 597 q 663 425 732 464 l 709 361 l 776 455 l 966 455 l 805 226 l 966 0 l 772 0 l 709 90 l 646 0 m 282 846 l 282 541 l 455 541 q 581 581 539 541 q 622 692 622 620 q 584 803 622 760 q 460 846 545 846 l 282 846 z "},"Ɍ":{"ha":885,"x_min":1,"x_max":856,"o":"m 640 0 l 452 378 l 284 378 l 284 0 l 89 0 l 89 378 l 1 378 l 1 541 l 89 541 l 89 1010 l 461 1010 q 728 924 641 1010 q 816 696 816 837 q 769 522 816 591 q 647 415 723 453 l 856 0 l 640 0 m 284 846 l 284 541 l 457 541 q 582 581 541 541 q 623 692 623 620 q 585 803 623 760 q 461 846 546 846 l 284 846 z "},"S":{"ha":878,"x_min":52,"x_max":810,"o":"m 620 723 q 569 823 614 787 q 445 859 525 859 q 319 826 368 859 q 271 740 271 793 q 323 659 271 689 q 462 600 374 629 l 513 583 q 733 468 656 537 q 810 282 810 399 q 764 124 810 190 q 635 21 718 57 q 439 -15 551 -15 q 249 20 336 -15 q 108 127 161 56 q 52 306 54 198 l 243 306 q 302 188 247 228 q 439 149 356 149 q 574 188 527 149 q 621 280 621 226 q 574 368 621 333 q 415 438 527 404 l 362 454 q 160 561 238 491 q 81 740 81 631 q 129 889 81 825 q 259 988 177 953 q 446 1024 342 1024 q 632 986 551 1024 q 758 881 712 949 q 805 723 804 814 l 620 723 z "},"ẞ":{"ha":958,"x_min":85,"x_max":901,"o":"m 341 25 l 395 175 q 454 154 417 166 q 542 143 492 143 q 666 181 623 143 q 708 288 708 219 q 516 458 708 458 l 425 458 l 425 582 l 607 797 q 527 841 572 823 q 427 859 482 859 q 314 809 349 859 q 280 658 280 759 l 280 0 l 85 0 l 85 658 q 427 1017 85 1017 q 649 970 550 1017 q 843 846 748 924 l 624 584 q 828 491 756 567 q 901 288 901 416 q 855 121 901 188 q 733 20 810 54 q 562 -14 656 -14 q 438 -3 492 -14 q 341 25 384 8 z "},"T":{"ha":896,"x_min":48,"x_max":847,"o":"m 847 1010 l 847 846 l 545 846 l 545 0 l 351 0 l 351 846 l 48 846 l 48 1010 l 847 1010 z "},"Ƭ":{"ha":1008,"x_min":12,"x_max":964,"o":"m 964 1010 l 964 846 l 661 846 l 661 0 l 467 0 l 467 846 l 271 846 q 194 809 213 846 q 175 726 175 771 l 175 671 l 12 671 l 12 761 q 79 943 12 876 q 271 1010 146 1010 l 964 1010 z "},"Ʈ":{"ha":896,"x_min":47,"x_max":846,"o":"m 846 1010 l 846 846 l 543 846 l 543 -53 q 576 -115 543 -100 q 650 -130 608 -130 l 690 -130 l 690 -284 l 598 -284 q 511 -274 555 -284 q 431 -239 467 -264 q 372 -169 394 -214 q 350 -53 350 -124 l 350 846 l 47 846 l 47 1010 l 846 1010 z "},"Ⱦ":{"ha":897,"x_min":51,"x_max":850,"o":"m 245 -56 l 144 -7 l 354 438 l 354 846 l 51 846 l 51 1010 l 623 1010 l 679 1128 l 779 1079 l 747 1010 l 850 1010 l 850 846 l 670 846 l 547 587 l 547 0 l 354 0 l 354 176 l 245 -56 z "},"U":{"ha":984,"x_min":87,"x_max":897,"o":"m 702 1010 l 897 1010 l 897 343 q 844 148 897 228 q 701 26 792 68 q 493 -15 610 -15 q 284 26 376 -15 q 140 148 193 68 q 87 343 87 228 l 87 1010 l 282 1010 l 282 348 q 343 211 282 260 q 493 161 403 161 q 643 211 583 161 q 702 348 702 260 l 702 1010 z "},"Ư":{"ha":1145,"x_min":87,"x_max":1124,"o":"m 702 1010 l 897 1010 l 897 851 q 978 918 961 867 q 994 1051 994 970 l 1124 1051 q 1074 836 1124 917 q 897 740 1025 756 l 897 343 q 844 148 897 228 q 701 26 792 68 q 493 -15 610 -15 q 284 26 376 -15 q 140 148 193 68 q 87 343 87 228 l 87 1010 l 282 1010 l 282 348 q 343 211 282 260 q 493 161 403 161 q 643 211 583 161 q 702 348 702 260 l 702 1010 z "},"Ʉ":{"ha":1113,"x_min":37,"x_max":1075,"o":"m 1075 577 l 1075 462 l 971 462 l 971 343 q 918 148 971 228 q 775 26 866 68 q 567 -15 684 -15 q 358 26 450 -15 q 214 148 267 68 q 161 343 161 228 l 161 462 l 37 462 l 37 577 l 161 577 l 161 1010 l 356 1010 l 356 577 l 776 577 l 776 1010 l 971 1010 l 971 577 l 1075 577 m 356 348 q 417 211 356 260 q 567 161 477 161 q 716 211 657 161 q 776 348 776 260 l 776 462 l 356 462 l 356 348 z "},"V":{"ha":1028,"x_min":38,"x_max":989,"o":"m 243 1010 l 508 246 l 520 246 l 785 1010 l 989 1010 l 617 0 l 410 0 l 38 1010 l 243 1010 z "},"W":{"ha":1393,"x_min":46,"x_max":1347,"o":"m 226 1010 l 409 286 l 418 286 l 606 1010 l 787 1010 l 975 284 l 984 284 l 1166 1010 l 1347 1010 l 1085 0 l 886 0 l 700 688 l 692 688 l 507 0 l 308 0 l 46 1010 l 226 1010 z "},"X":{"ha":948,"x_min":36,"x_max":912,"o":"m 263 1010 l 470 652 l 478 652 l 685 1010 l 907 1010 l 605 505 l 912 0 l 688 0 l 478 357 l 470 357 l 260 0 l 36 0 l 346 505 l 41 1010 l 263 1010 z "},"Ҳ":{"ha":1036,"x_min":36,"x_max":979,"o":"m 979 138 l 979 -243 l 793 -243 l 793 0 l 688 0 l 478 357 l 470 357 l 260 0 l 36 0 l 346 505 l 41 1010 l 263 1010 l 470 652 l 478 652 l 685 1010 l 907 1010 l 605 505 l 828 138 l 979 138 z "},"Ӽ":{"ha":988,"x_min":36,"x_max":955,"o":"m 263 1010 l 470 652 l 478 652 l 685 1010 l 907 1010 l 605 505 l 805 175 l 955 175 l 955 -22 q 889 -221 955 -150 q 703 -292 822 -292 q 655 -290 677 -292 q 608 -282 633 -288 l 618 -129 q 649 -135 631 -133 q 684 -137 666 -137 q 746 -108 723 -137 q 769 -22 769 -78 l 769 0 l 688 0 l 478 357 l 470 357 l 260 0 l 36 0 l 346 505 l 41 1010 l 263 1010 z "},"Y":{"ha":1018,"x_min":34,"x_max":985,"o":"m 247 1010 l 503 568 l 515 568 l 771 1010 l 985 1010 l 607 395 l 607 0 l 412 0 l 412 395 l 34 1010 l 247 1010 z "},"Ƴ":{"ha":1049,"x_min":34,"x_max":1029,"o":"m 247 1010 l 503 568 l 515 568 l 669 834 l 698 885 q 794 989 739 956 q 910 1022 849 1021 q 1029 1000 971 1023 l 987 851 q 909 854 940 867 q 850 793 879 841 l 832 762 l 607 395 l 607 0 l 412 0 l 412 395 l 34 1010 l 247 1010 z "},"Ɏ":{"ha":1015,"x_min":32,"x_max":983,"o":"m 246 1010 l 367 800 l 648 800 l 769 1010 l 983 1010 l 854 800 l 982 800 l 982 696 l 790 696 l 605 395 l 605 0 l 410 0 l 410 395 l 224 696 l 33 696 l 33 800 l 160 800 l 32 1010 l 246 1010 m 502 568 l 513 568 l 587 696 l 428 696 l 502 568 z "},"Z":{"ha":890,"x_min":72,"x_max":817,"o":"m 817 164 l 817 0 l 74 0 l 74 120 l 576 846 l 72 846 l 72 1010 l 815 1010 l 815 890 l 314 164 l 817 164 z "},"Ȥ":{"ha":890,"x_min":72,"x_max":831,"o":"m 815 890 l 314 164 l 572 164 q 763 97 696 164 q 831 -85 831 30 l 831 -169 l 669 -169 l 669 -120 q 662 -63 669 -91 q 634 -18 654 -36 q 572 0 613 0 l 74 0 l 74 120 l 576 846 l 72 846 l 72 1010 l 815 1010 l 815 890 z "},"Ƶ":{"ha":890,"x_min":72,"x_max":817,"o":"m 817 164 l 817 0 l 74 0 l 74 120 l 298 444 l 205 444 l 205 562 l 380 562 l 576 846 l 72 846 l 72 1010 l 815 1010 l 815 890 l 589 562 l 677 562 l 677 444 l 508 444 l 314 164 l 817 164 z "},"Ɀ":{"ha":890,"x_min":71,"x_max":824,"o":"m 137 0 l 73 0 l 73 113 l 570 836 l 71 836 l 71 995 l 809 995 l 809 884 l 305 144 q 416 91 367 125 q 504 19 464 58 q 579 -54 544 -19 q 651 -111 615 -89 q 728 -133 687 -133 q 779 -130 756 -133 q 824 -120 801 -126 l 824 -276 q 776 -290 807 -283 q 709 -296 746 -296 q 602 -274 649 -296 q 514 -219 554 -253 q 434 -148 473 -186 q 352 -76 395 -110 q 256 -21 309 -43 q 137 0 204 0 z "},"Œ":{"ha":1374,"x_min":80,"x_max":1271,"o":"m 488 1010 l 1269 1010 l 1269 846 l 809 846 l 809 587 l 1205 587 l 1205 424 l 809 424 l 809 164 l 1271 164 l 1271 0 l 488 0 q 275 51 367 0 q 131 192 183 102 q 80 402 80 283 l 80 610 q 131 819 80 729 q 275 960 183 909 q 488 1010 367 1010 m 488 155 l 615 155 l 615 855 l 488 855 q 330 794 388 855 q 272 610 272 734 l 272 402 q 331 217 272 278 q 488 155 390 155 z "},"a":{"ha":771,"x_min":55,"x_max":689,"o":"m 504 0 l 504 85 l 495 85 q 428 17 475 49 q 301 -15 381 -15 q 178 11 234 -15 q 88 89 122 38 q 55 214 55 140 q 135 381 55 324 q 360 451 216 438 q 424 459 393 455 q 476 472 456 463 q 496 501 496 481 l 496 512 q 466 591 496 563 q 386 618 436 618 q 297 591 333 618 q 250 526 260 565 l 70 552 q 183 712 96 657 q 391 767 270 767 q 535 743 467 767 q 646 661 603 718 q 689 509 689 605 l 689 0 l 504 0 m 496 253 l 496 353 q 467 339 488 345 q 420 329 445 333 q 378 323 395 325 q 275 290 310 315 q 241 216 241 265 q 271 153 241 176 q 347 130 300 130 q 453 166 410 130 q 496 253 496 203 z "},"ä":{"ha":774,"x_min":55,"x_max":689,"o":"m 246 851 q 181 877 207 851 q 155 937 155 902 q 181 999 155 974 q 246 1024 207 1024 q 310 999 285 1024 q 336 937 336 974 q 310 877 336 902 q 246 851 285 851 m 527 851 q 462 877 488 851 q 436 937 436 902 q 462 999 436 974 q 527 1024 488 1024 q 592 999 566 1024 q 617 937 617 974 q 592 877 617 902 q 527 851 566 851 m 504 0 l 504 85 l 495 85 q 428 17 475 49 q 301 -15 381 -15 q 178 11 234 -15 q 88 89 122 38 q 55 214 55 140 q 135 381 55 324 q 360 451 216 438 q 424 459 393 455 q 476 472 456 463 q 496 501 496 481 l 496 512 q 466 591 496 563 q 386 618 436 618 q 297 591 333 618 q 250 526 260 565 l 70 552 q 183 712 96 657 q 391 767 270 767 q 535 743 467 767 q 646 661 603 718 q 689 509 689 605 l 689 0 l 504 0 m 496 253 l 496 353 q 467 339 488 345 q 420 329 445 333 q 378 323 395 325 q 275 290 310 315 q 241 216 241 265 q 271 153 241 176 q 347 130 300 130 q 453 166 410 130 q 496 253 496 203 z "},"ã":{"ha":774,"x_min":55,"x_max":689,"o":"m 518 1044 l 630 1036 q 586 908 630 961 q 476 856 543 856 q 405 871 433 856 q 352 901 377 886 q 291 915 327 915 q 250 898 267 915 q 234 850 234 881 l 120 855 q 140 945 120 904 q 195 1011 160 986 q 274 1036 230 1036 q 340 1021 311 1036 q 397 992 369 1007 q 459 978 426 978 q 501 995 483 978 q 518 1044 518 1013 m 504 0 l 504 85 l 495 85 q 428 17 475 49 q 301 -15 381 -15 q 178 11 234 -15 q 88 89 122 38 q 55 214 55 140 q 135 381 55 324 q 360 451 216 438 q 424 459 393 455 q 476 472 456 463 q 496 501 496 481 l 496 512 q 466 591 496 563 q 386 618 436 618 q 297 591 333 618 q 250 526 260 565 l 70 552 q 183 712 96 657 q 391 767 270 767 q 535 743 467 767 q 646 661 603 718 q 689 509 689 605 l 689 0 l 504 0 m 496 253 l 496 353 q 467 339 488 345 q 420 329 445 333 q 378 323 395 325 q 275 290 310 315 q 241 216 241 265 q 271 153 241 176 q 347 130 300 130 q 453 166 410 130 q 496 253 496 203 z "},"æ":{"ha":1231,"x_min":58,"x_max":1176,"o":"m 73 552 q 186 712 99 657 q 394 767 273 767 q 523 747 466 767 q 616 691 579 727 q 715 747 659 727 q 837 767 770 767 q 1010 727 933 767 q 1131 606 1087 687 q 1176 403 1176 525 l 1176 344 l 667 296 q 725 183 681 224 q 843 143 768 143 q 946 174 912 143 q 996 248 981 205 l 1168 201 q 1115 100 1154 149 q 1008 18 1075 50 q 844 -14 941 -14 q 685 20 749 -14 q 581 116 621 55 l 576 116 q 542 65 570 96 q 462 9 514 34 q 331 -15 409 -15 q 199 9 261 -15 q 97 84 136 33 q 58 214 58 134 q 138 381 58 324 q 363 451 218 438 q 427 459 396 455 q 478 472 458 463 q 499 501 499 481 l 499 512 q 466 588 499 563 q 385 613 433 613 q 297 586 331 613 q 250 518 263 559 l 73 552 m 836 612 q 719 563 763 612 q 663 426 674 513 l 994 455 q 953 567 994 522 q 836 612 911 612 m 499 253 l 499 353 q 470 339 491 345 q 423 329 448 333 q 381 323 398 325 q 278 290 313 315 q 244 216 244 265 q 273 153 244 176 q 350 130 302 130 q 456 166 413 130 q 499 253 499 203 z "},"ɐ":{"ha":776,"x_min":78,"x_max":712,"o":"m 263 756 l 263 670 l 272 670 q 339 739 291 706 q 466 771 386 771 q 589 744 533 771 q 679 667 645 718 q 712 542 712 616 q 632 375 712 432 q 407 304 551 318 q 343 297 374 301 q 291 284 311 293 q 271 254 271 274 l 271 243 q 301 165 271 192 q 381 138 331 138 q 470 164 434 138 q 517 229 507 191 l 697 203 q 584 43 671 99 q 376 -12 497 -12 q 233 13 301 -12 q 121 94 164 37 q 78 247 78 151 l 78 756 l 263 756 m 271 503 l 271 403 q 300 417 278 411 q 347 427 322 423 q 389 433 372 431 q 491 466 457 441 q 526 540 526 490 q 496 603 526 580 q 420 626 467 626 q 314 589 357 626 q 271 503 271 552 z "},"b":{"ha":825,"x_min":82,"x_max":770,"o":"m 82 1010 l 274 1010 l 274 664 l 283 664 q 347 735 302 703 q 468 767 392 767 q 619 724 550 767 q 729 593 688 680 q 770 378 770 506 q 730 164 770 252 q 621 32 690 77 q 469 -13 553 -13 q 347 18 393 -13 q 283 90 302 50 l 271 90 l 271 0 l 82 0 l 82 1010 m 588 379 q 545 548 588 484 q 418 612 503 612 q 293 545 330 612 q 256 379 256 479 q 272 259 256 313 q 324 174 288 205 q 418 143 359 143 q 545 208 502 143 q 588 379 588 273 z "},"ƀ":{"ha":885,"x_min":19,"x_max":832,"o":"m 144 1010 l 335 1010 l 335 948 l 490 948 l 490 831 l 335 831 l 335 664 l 344 664 q 409 735 363 703 q 530 767 454 767 q 680 724 612 767 q 790 593 749 680 q 832 378 832 506 q 791 164 832 252 q 683 32 751 77 q 530 -13 615 -13 q 409 18 455 -13 q 344 90 363 50 l 333 90 l 333 0 l 144 0 l 144 831 l 19 831 l 19 948 l 144 948 l 144 1010 m 650 379 q 607 548 650 484 q 479 612 564 612 q 355 545 392 612 q 318 379 318 479 q 334 259 318 313 q 385 174 350 205 q 479 143 421 143 q 607 208 564 143 q 650 379 650 273 z "},"ƃ":{"ha":882,"x_min":82,"x_max":770,"o":"m 82 1010 l 665 1010 l 665 848 l 274 848 l 274 664 l 283 664 q 347 735 302 703 q 468 767 392 767 q 619 724 550 767 q 729 593 688 680 q 770 378 770 506 q 730 164 770 252 q 621 32 690 77 q 469 -13 553 -13 q 347 18 393 -13 q 283 90 302 50 l 271 90 l 271 0 l 82 0 l 82 1010 m 588 379 q 545 548 588 484 q 418 612 503 612 q 293 545 330 612 q 256 379 256 479 q 272 259 256 313 q 324 174 288 205 q 418 143 359 143 q 545 208 502 143 q 588 379 588 273 z "},"ɓ":{"ha":825,"x_min":82,"x_max":770,"o":"m 383 872 q 308 856 342 872 q 274 793 274 839 l 274 664 l 283 664 q 347 735 302 703 q 468 767 392 767 q 619 724 550 767 q 729 593 688 680 q 770 378 770 506 q 730 164 770 252 q 621 32 690 77 q 469 -13 553 -13 q 347 18 393 -13 q 283 90 302 50 l 271 90 l 271 0 l 82 0 l 82 793 q 105 909 82 864 q 164 980 127 955 q 244 1014 200 1005 q 332 1024 289 1024 q 431 1017 395 1024 l 431 869 q 409 871 421 870 q 383 872 397 872 m 588 379 q 545 548 588 484 q 418 612 503 612 q 293 545 330 612 q 256 379 256 479 q 272 259 256 313 q 324 174 288 205 q 418 143 359 143 q 545 208 502 143 q 588 379 588 273 z "},"c":{"ha":781,"x_min":55,"x_max":731,"o":"m 731 516 l 553 489 q 505 578 540 543 q 407 612 471 612 q 280 548 323 612 q 238 379 238 484 q 280 207 238 272 q 407 143 322 143 q 500 173 465 143 q 550 254 536 203 l 729 229 q 621 53 707 120 q 407 -14 536 -14 q 219 36 298 -14 q 97 175 140 86 q 55 379 55 263 q 98 581 55 493 q 219 718 141 668 q 407 767 298 767 q 623 699 536 767 q 731 516 710 630 z "},"ȼ":{"ha":772,"x_min":44,"x_max":720,"o":"m 720 516 l 542 489 q 507 564 531 535 l 362 146 q 397 143 378 143 q 490 173 454 143 q 540 254 525 203 l 719 229 q 611 53 696 120 q 397 -14 525 -14 q 309 -5 351 -14 l 212 -282 l 99 -282 l 210 36 q 88 174 131 84 q 44 379 44 263 q 87 581 44 493 q 209 718 130 668 q 396 767 288 767 q 464 762 431 767 l 543 988 l 655 988 l 565 729 q 667 643 626 697 q 720 516 707 588 m 228 379 q 270 208 228 269 l 411 612 q 397 612 404 612 q 270 548 312 612 q 228 379 228 484 z "},"ƈ":{"ha":860,"x_min":55,"x_max":870,"o":"m 731 516 l 553 489 q 505 578 540 543 q 407 612 471 612 q 280 548 323 612 q 238 379 238 484 q 280 207 238 272 q 407 143 322 143 q 500 173 465 143 q 550 254 536 203 l 729 229 q 621 53 707 120 q 407 -14 536 -14 q 219 36 298 -14 q 97 175 140 86 q 55 379 55 263 q 98 581 55 493 q 219 718 141 668 q 407 767 298 767 q 583 725 507 767 q 667 804 614 777 q 788 831 721 831 q 829 829 809 831 q 870 821 849 827 l 870 690 q 846 694 858 692 q 821 696 835 696 q 756 676 780 696 q 731 598 731 655 l 731 516 z "},"ɕ":{"ha":779,"x_min":9,"x_max":731,"o":"m 407 143 q 486 157 450 143 q 522 205 522 172 q 508 237 522 226 q 475 248 494 248 q 406 225 443 248 q 328 162 369 202 q 407 143 362 143 m 731 516 l 553 489 q 505 578 540 543 q 407 612 471 612 q 280 548 323 612 q 238 379 238 484 q 245 299 238 335 q 377 378 315 355 q 495 401 440 401 q 615 376 569 401 q 681 309 660 351 q 701 221 701 268 q 668 105 701 159 q 569 18 634 51 q 407 -14 504 -14 q 217 37 298 -14 q 175 -15 196 12 q 133 -70 154 -41 l 9 31 q 105 159 57 102 q 55 379 55 253 q 98 581 55 493 q 219 718 141 668 q 407 767 298 767 q 623 699 536 767 q 731 516 710 630 z "},"d":{"ha":825,"x_min":55,"x_max":742,"o":"m 742 0 l 553 0 l 553 90 l 543 90 q 478 18 524 50 q 357 -13 432 -13 q 203 32 272 -13 q 95 164 135 77 q 55 378 55 252 q 96 593 55 506 q 206 724 137 680 q 357 767 275 767 q 478 735 433 767 q 543 664 524 703 l 551 664 l 551 1010 l 742 1010 l 742 0 m 237 379 q 280 208 237 273 q 407 143 323 143 q 501 174 466 143 q 553 259 537 205 q 569 379 569 313 q 532 545 569 479 q 407 612 495 612 q 280 548 322 612 q 237 379 237 484 z "},"đ":{"ha":850,"x_min":55,"x_max":843,"o":"m 742 0 l 553 0 l 553 90 l 543 90 q 478 18 524 50 q 357 -13 432 -13 q 203 32 272 -13 q 95 164 135 77 q 55 378 55 252 q 96 593 55 506 q 206 724 137 680 q 357 767 275 767 q 478 735 433 767 q 543 664 524 703 l 551 664 l 551 817 l 372 817 l 372 935 l 551 935 l 551 1010 l 742 1010 l 742 935 l 843 935 l 843 817 l 742 817 l 742 0 m 237 379 q 280 208 237 273 q 407 143 323 143 q 501 174 466 143 q 553 259 537 205 q 569 379 569 313 q 532 545 569 479 q 407 612 495 612 q 280 548 322 612 q 237 379 237 484 z "},"ɖ":{"ha":896,"x_min":55,"x_max":895,"o":"m 551 1010 l 742 1010 l 742 -53 q 774 -116 742 -100 q 846 -133 805 -133 q 872 -131 860 -133 q 895 -129 884 -130 l 895 -277 q 795 -284 858 -284 q 681 -265 737 -284 q 588 -197 625 -247 q 551 -53 551 -147 l 551 90 l 543 90 q 478 18 524 50 q 357 -13 432 -13 q 203 32 272 -13 q 95 164 135 77 q 55 378 55 252 q 96 593 55 506 q 206 724 137 680 q 357 767 275 767 q 478 735 433 767 q 543 664 524 703 l 551 664 l 551 1010 m 237 379 q 280 208 237 273 q 407 143 323 143 q 501 174 466 143 q 553 259 537 205 q 569 379 569 313 q 532 545 569 479 q 407 612 495 612 q 280 548 322 612 q 237 379 237 484 z "},"ɗ":{"ha":885,"x_min":55,"x_max":906,"o":"m 742 0 l 553 0 l 553 90 l 543 90 q 477 18 523 50 q 357 -13 432 -13 q 203 32 272 -13 q 95 164 135 77 q 55 378 55 252 q 96 593 55 506 q 206 724 137 680 q 357 767 275 767 q 478 735 433 767 q 543 664 523 703 l 551 664 l 551 790 q 575 908 551 862 q 638 979 599 953 q 721 1015 676 1005 q 806 1024 765 1024 q 863 1022 836 1024 q 906 1016 889 1019 l 906 867 q 881 871 894 870 q 858 872 869 872 q 807 867 835 872 q 761 846 780 863 q 742 790 742 829 l 742 0 m 237 379 q 280 208 237 273 q 407 143 323 143 q 501 174 466 143 q 553 259 537 205 q 569 379 569 313 q 532 545 569 479 q 407 612 495 612 q 280 548 322 612 q 237 379 237 484 z "},"ƌ":{"ha":797,"x_min":58,"x_max":745,"o":"m 745 0 l 556 0 l 556 90 l 546 90 q 481 18 527 50 q 359 -13 435 -13 q 206 32 274 -13 q 98 164 138 77 q 58 378 58 252 q 99 593 58 506 q 209 724 140 680 q 360 767 277 767 q 481 735 436 767 q 546 664 527 703 l 554 664 l 554 848 l 150 848 l 150 1010 l 745 1010 l 745 0 m 240 379 q 283 208 240 273 q 410 143 326 143 q 504 174 469 143 q 556 259 540 205 q 572 379 572 313 q 534 545 572 479 q 410 612 497 612 q 282 548 325 612 q 240 379 240 484 z "},"ȡ":{"ha":1103,"x_min":80,"x_max":1056,"o":"m 1056 -103 q 996 -239 1056 -187 q 821 -292 937 -292 q 672 -259 727 -292 q 592 -173 618 -225 l 479 -275 l 392 -159 l 566 -9 l 566 84 q 500 17 545 46 q 382 -13 454 -13 q 229 32 297 -13 q 121 164 161 77 q 80 378 80 252 q 122 593 80 506 q 232 724 163 680 q 383 767 300 767 q 504 735 458 767 q 569 664 549 703 l 577 664 l 577 1010 l 768 1010 l 768 77 q 836 82 800 82 q 998 32 940 82 q 1056 -103 1056 -19 m 262 379 q 305 208 262 273 q 433 143 348 143 q 527 174 491 143 q 578 259 562 205 q 594 379 594 313 q 557 545 594 479 q 433 612 520 612 q 305 548 348 612 q 262 379 262 484 m 752 -89 q 770 -145 752 -123 q 822 -167 788 -167 q 869 -152 849 -167 q 889 -107 889 -137 q 869 -66 889 -80 q 816 -51 848 -51 q 752 -63 783 -51 l 752 -89 z "},"ʣ":{"ha":1467,"x_min":55,"x_max":1393,"o":"m 742 0 l 553 0 l 553 90 l 543 90 q 478 18 524 50 q 357 -13 432 -13 q 203 32 272 -13 q 95 164 135 77 q 55 378 55 252 q 96 593 55 506 q 206 724 137 680 q 357 767 275 767 q 478 735 433 767 q 543 664 524 703 l 551 664 l 551 1010 l 742 1010 l 742 0 m 1393 155 l 1393 0 l 785 0 l 785 119 l 1146 602 l 792 602 l 792 758 l 1385 758 l 1385 641 l 1024 155 l 1393 155 m 237 379 q 280 208 237 273 q 407 143 323 143 q 501 174 466 143 q 553 259 537 205 q 569 379 569 313 q 532 545 569 479 q 407 612 495 612 q 280 548 322 612 q 237 379 237 484 z "},"ǆ":{"ha":1467,"x_min":55,"x_max":1393,"o":"m 742 0 l 553 0 l 553 90 l 543 90 q 478 18 524 50 q 357 -13 432 -13 q 203 32 272 -13 q 95 164 135 77 q 55 378 55 252 q 96 593 55 506 q 206 724 137 680 q 357 767 275 767 q 478 735 433 767 q 543 664 524 703 l 551 664 l 551 1010 l 742 1010 l 742 0 m 998 1010 l 1104 910 l 1210 1010 l 1366 1010 l 1366 1004 l 1162 813 l 1046 813 l 840 1004 l 840 1010 l 998 1010 m 1393 155 l 1393 0 l 785 0 l 785 119 l 1146 602 l 792 602 l 792 758 l 1385 758 l 1385 641 l 1024 155 l 1393 155 m 237 379 q 280 208 237 273 q 407 143 323 143 q 501 174 466 143 q 553 259 537 205 q 569 379 569 313 q 532 545 569 479 q 407 612 495 612 q 280 548 322 612 q 237 379 237 484 z "},"ʥ":{"ha":1642,"x_min":55,"x_max":1619,"o":"m 742 0 l 553 0 l 553 90 l 543 90 q 478 18 524 50 q 357 -13 432 -13 q 203 32 272 -13 q 95 164 135 77 q 55 378 55 252 q 96 593 55 506 q 206 724 137 680 q 357 767 275 767 q 478 735 433 767 q 543 664 524 703 l 551 664 l 551 1010 l 742 1010 l 742 0 m 1619 236 q 1591 128 1619 183 q 1502 37 1563 74 q 1344 0 1441 0 l 1189 0 l 1071 -165 l 948 -88 l 1009 0 l 785 0 l 785 119 l 1147 602 l 792 602 l 792 758 l 1385 758 l 1385 641 l 1024 155 l 1118 155 q 1235 303 1184 246 q 1334 388 1286 361 q 1434 415 1381 415 q 1526 393 1485 415 q 1594 330 1568 370 q 1619 236 1619 290 m 237 379 q 280 208 237 273 q 407 143 323 143 q 501 174 466 143 q 553 259 537 205 q 569 379 569 313 q 532 545 569 479 q 407 612 495 612 q 280 548 322 612 q 237 379 237 484 m 1417 263 q 1364 237 1390 263 q 1299 155 1339 212 l 1353 155 q 1438 177 1413 155 q 1463 226 1463 198 q 1449 253 1463 243 q 1417 263 1435 263 z "},"ʤ":{"ha":1337,"x_min":55,"x_max":1288,"o":"m 742 0 l 553 0 l 553 90 l 543 90 q 478 18 524 50 q 357 -13 432 -13 q 203 32 272 -13 q 95 164 135 77 q 55 378 55 252 q 96 593 55 506 q 206 724 137 680 q 357 767 275 767 q 478 735 433 767 q 543 664 524 703 l 551 664 l 551 1010 l 742 1010 l 742 758 l 1270 758 l 1270 632 l 1014 305 q 1217 207 1146 288 q 1288 1 1288 127 q 1243 -160 1288 -93 q 1118 -261 1198 -226 q 934 -296 1038 -296 q 772 -275 849 -296 q 639 -200 695 -254 q 562 -48 582 -146 l 746 -48 q 807 -118 763 -89 q 929 -146 851 -146 q 1057 -102 1011 -146 q 1103 11 1103 -58 q 1053 136 1103 90 q 908 182 1003 182 l 816 182 l 816 307 l 1050 604 l 742 604 l 742 0 m 237 379 q 280 208 237 273 q 407 143 323 143 q 501 174 466 143 q 553 259 537 205 q 569 379 569 313 q 532 545 569 479 q 407 612 495 612 q 280 548 322 612 q 237 379 237 484 z "},"e":{"ha":808,"x_min":55,"x_max":753,"o":"m 422 -14 q 226 32 308 -14 q 99 165 144 79 q 55 369 55 251 q 97 574 55 484 q 220 716 140 664 q 414 767 300 767 q 587 727 510 767 q 708 606 663 687 q 753 403 753 525 l 753 323 l 240 323 q 294 191 249 239 q 420 143 338 143 q 523 174 489 143 q 573 248 558 205 l 745 201 q 692 100 731 149 q 587 18 654 50 q 422 -14 520 -14 m 412 612 q 303 571 346 612 q 245 455 260 529 l 571 455 q 529 567 571 522 q 412 612 488 612 z "},"ë":{"ha":807,"x_min":55,"x_max":753,"o":"m 264 851 q 199 877 225 851 q 173 937 173 902 q 199 999 173 974 q 264 1024 225 1024 q 329 999 303 1024 q 354 937 354 974 q 329 877 354 902 q 264 851 303 851 m 545 851 q 481 877 507 851 q 455 937 455 902 q 481 999 455 974 q 545 1024 507 1024 q 610 999 585 1024 q 635 937 635 974 q 610 877 635 902 q 545 851 585 851 m 422 -14 q 226 32 308 -14 q 99 165 144 79 q 55 369 55 251 q 97 574 55 484 q 220 716 140 664 q 414 767 300 767 q 587 727 510 767 q 708 606 663 687 q 753 403 753 525 l 753 323 l 240 323 q 294 191 249 239 q 420 143 338 143 q 523 174 489 143 q 573 248 558 205 l 745 201 q 692 100 731 149 q 587 18 654 50 q 422 -14 520 -14 m 412 612 q 303 571 346 612 q 245 455 260 529 l 571 455 q 529 567 571 522 q 412 612 488 612 z "},"ɇ":{"ha":785,"x_min":55,"x_max":753,"o":"m 422 -14 q 323 -4 369 -14 l 227 -284 l 112 -284 l 221 35 q 98 166 142 81 q 55 369 55 252 q 97 574 55 484 q 220 716 140 664 q 414 767 300 767 q 472 763 443 767 l 556 1010 l 670 1010 l 576 733 q 704 612 655 694 q 753 403 753 530 l 753 323 l 435 323 l 374 147 q 420 143 396 143 q 523 174 489 143 q 573 248 558 205 l 745 201 q 692 100 731 149 q 587 18 654 50 q 422 -14 520 -14 m 412 612 q 303 571 346 612 q 245 455 260 529 l 365 455 l 419 612 q 412 612 416 612 m 571 455 q 521 575 571 531 l 480 455 l 571 455 m 240 323 q 281 206 248 251 l 321 323 l 240 323 z "},"f":{"ha":529,"x_min":37,"x_max":516,"o":"m 139 0 l 139 616 l 37 616 l 37 758 l 139 758 l 139 788 q 207 966 139 908 q 376 1024 276 1024 q 462 1016 425 1024 q 516 1003 498 1009 l 480 857 q 451 864 467 861 q 415 867 434 867 q 330 779 330 867 l 330 758 l 480 758 l 480 616 l 330 616 l 330 0 l 139 0 z "},"ẜ":{"ha":513,"x_min":27,"x_max":486,"o":"m 320 0 l 134 0 l 134 365 l 27 329 l 27 464 l 134 499 l 134 798 q 206 982 134 918 q 396 1046 279 1046 q 444 1042 421 1046 q 486 1033 467 1039 l 486 887 q 463 890 474 889 q 430 892 451 892 q 353 870 387 892 q 320 798 320 849 l 320 560 l 434 598 l 434 465 l 320 427 l 320 0 z "},"ẛ":{"ha":484,"x_min":81,"x_max":434,"o":"m 188 1241 q 215 1307 188 1280 q 287 1333 241 1333 q 359 1307 332 1333 q 386 1241 386 1280 q 359 1176 386 1202 q 287 1151 332 1151 q 215 1176 241 1151 q 188 1241 188 1202 m 267 0 l 81 0 l 81 798 q 153 982 81 918 q 343 1046 225 1046 q 392 1042 369 1046 q 434 1033 415 1039 l 434 887 q 410 890 422 889 q 377 892 398 892 q 300 870 333 892 q 267 798 267 849 l 267 0 z "},"ʩ":{"ha":1202,"x_min":37,"x_max":1120,"o":"m 139 0 l 139 616 l 37 616 l 37 758 l 139 758 l 139 788 q 207 966 139 908 q 376 1024 276 1024 q 462 1016 425 1024 q 516 1003 498 1009 l 480 857 q 451 864 467 861 q 415 867 434 867 q 330 779 330 867 l 330 758 l 651 758 l 651 661 l 658 661 q 743 738 689 708 q 869 767 797 767 q 992 738 935 767 q 1085 645 1050 709 q 1120 476 1120 581 l 1120 -33 q 1050 -225 1120 -158 q 866 -292 980 -292 q 817 -291 841 -292 q 768 -284 792 -289 l 780 -127 q 806 -132 793 -130 q 838 -134 820 -134 q 904 -110 879 -134 q 928 -33 928 -87 l 928 468 q 892 573 928 536 q 801 610 856 610 q 700 557 737 610 q 662 417 662 505 l 662 0 l 471 0 l 471 616 l 330 616 l 330 0 l 139 0 z "},"g":{"ha":825,"x_min":55,"x_max":742,"o":"m 553 755 l 742 755 l 742 21 q 696 -150 742 -81 q 570 -254 650 -219 q 387 -288 489 -288 q 201 -252 279 -288 q 91 -175 123 -216 l 184 -50 q 263 -103 216 -77 q 382 -130 310 -130 q 507 -92 458 -130 q 555 33 555 -54 l 555 109 l 544 109 q 483 47 528 79 q 357 14 438 14 q 207 55 275 14 q 96 177 138 95 q 55 384 55 258 q 96 595 55 509 q 206 724 137 680 q 357 767 275 767 q 478 735 433 767 q 543 664 524 703 l 553 664 l 553 755 m 237 385 q 282 223 237 279 q 407 167 327 167 q 530 227 491 167 q 569 385 569 286 q 531 546 569 480 q 407 612 492 612 q 280 548 322 612 q 237 385 237 485 z "},"ɠ":{"ha":872,"x_min":55,"x_max":900,"o":"m 852 872 q 776 856 810 872 q 742 793 742 839 l 742 21 q 696 -150 742 -81 q 570 -254 650 -219 q 387 -288 489 -288 q 201 -252 279 -288 q 91 -175 123 -216 l 184 -50 q 263 -103 216 -77 q 382 -130 310 -130 q 507 -92 458 -130 q 555 33 555 -54 l 555 109 l 544 109 q 483 47 528 79 q 357 14 438 14 q 207 55 275 14 q 96 177 138 95 q 55 384 55 258 q 96 595 55 509 q 206 724 137 680 q 357 767 275 767 q 478 735 433 767 q 543 664 524 703 l 553 664 l 553 793 q 575 908 553 863 q 634 979 597 953 q 713 1014 670 1004 q 800 1024 757 1024 q 900 1017 863 1024 l 900 869 q 877 871 889 870 q 852 872 865 872 m 237 385 q 282 223 237 279 q 407 167 327 167 q 530 227 491 167 q 569 385 569 286 q 531 546 569 480 q 407 612 492 612 q 280 548 322 612 q 237 385 237 485 z "},"ǥ":{"ha":857,"x_min":55,"x_max":850,"o":"m 553 755 l 742 755 l 742 447 l 850 447 l 850 329 l 742 329 l 742 21 q 696 -150 742 -81 q 570 -254 650 -219 q 387 -288 489 -288 q 201 -252 279 -288 q 91 -175 123 -216 l 184 -50 q 263 -103 216 -77 q 382 -130 310 -130 q 507 -92 458 -130 q 555 33 555 -54 l 555 109 l 544 109 q 483 47 528 79 q 357 14 438 14 q 207 55 275 14 q 96 177 138 95 q 55 384 55 258 q 96 595 55 509 q 206 724 137 680 q 357 767 275 767 q 478 735 433 767 q 543 664 524 703 l 553 664 l 553 755 m 237 385 q 282 223 237 279 q 407 167 327 167 q 517 211 478 167 q 566 329 556 254 l 379 329 l 379 447 l 565 447 q 516 566 554 519 q 407 612 478 612 q 280 548 322 612 q 237 385 237 485 z "},"h":{"ha":799,"x_min":82,"x_max":717,"o":"m 274 420 l 274 0 l 82 0 l 82 1010 l 268 1010 l 268 668 l 276 668 q 360 739 308 711 q 481 767 411 767 q 651 695 585 767 q 717 476 717 623 l 717 0 l 525 0 l 525 477 q 498 574 525 538 q 414 610 471 610 q 311 559 349 610 q 274 420 274 508 z "},"ḩ":{"ha":799,"x_min":82,"x_max":717,"o":"m 131 0 l 82 0 l 82 1010 l 268 1010 l 268 668 l 276 668 q 360 739 308 711 q 481 767 411 767 q 651 695 585 767 q 717 476 717 623 l 717 0 l 525 0 l 525 477 q 498 574 525 538 q 414 610 471 610 q 311 559 349 610 q 274 420 274 508 l 274 0 l 274 0 l 266 -41 q 336 -73 304 -47 q 367 -157 367 -100 q 308 -273 367 -229 q 134 -318 249 -318 l 128 -207 q 184 -195 162 -207 q 207 -152 207 -182 q 184 -112 207 -123 q 109 -98 161 -102 l 131 0 z "},"ћ":{"ha":787,"x_min":4,"x_max":757,"o":"m 314 420 l 314 0 l 122 0 l 122 828 l 4 828 l 4 946 l 122 946 l 122 1010 l 308 1010 l 308 946 l 475 946 l 475 828 l 308 828 l 308 668 l 316 668 q 400 739 348 711 q 521 767 451 767 q 691 695 625 767 q 757 476 757 623 l 757 0 l 565 0 l 565 477 q 538 574 565 538 q 454 610 510 610 q 351 559 389 610 q 314 420 314 508 z "},"ђ":{"ha":787,"x_min":-1,"x_max":755,"o":"m 313 420 l 313 0 l 121 0 l 121 820 l -1 820 l -1 938 l 121 938 l 121 1010 l 307 1010 l 307 938 l 470 938 l 470 820 l 307 820 l 307 668 l 315 668 q 398 739 346 711 q 520 767 450 767 q 689 695 623 767 q 755 476 755 623 l 755 -33 q 688 -225 755 -158 q 509 -292 620 -292 q 461 -291 484 -292 q 416 -284 439 -289 l 421 -134 q 449 -139 436 -138 q 480 -141 462 -141 q 545 -115 521 -141 q 569 -33 569 -89 l 569 0 l 564 0 l 564 477 q 537 574 564 538 q 453 610 509 610 q 350 559 387 610 q 313 420 313 508 z "},"ɦ":{"ha":799,"x_min":82,"x_max":717,"o":"m 274 420 l 274 0 l 82 0 l 82 793 q 119 937 82 887 q 211 1005 155 986 q 324 1024 266 1024 q 423 1017 386 1024 l 423 869 q 400 871 413 870 q 375 872 388 872 q 303 856 334 872 q 271 793 271 839 l 271 672 l 268 672 l 268 668 l 276 668 q 360 739 308 711 q 481 767 411 767 q 651 695 585 767 q 717 476 717 623 l 717 0 l 525 0 l 525 477 q 498 574 525 538 q 414 610 471 610 q 311 559 349 610 q 274 420 274 508 z "},"ɧ":{"ha":799,"x_min":82,"x_max":717,"o":"m 274 420 l 274 0 l 82 0 l 82 793 q 119 937 82 887 q 211 1005 155 986 q 324 1024 266 1024 q 423 1017 386 1024 l 423 869 q 400 871 413 870 q 375 872 388 872 q 303 856 334 872 q 271 793 271 839 l 271 672 l 268 672 l 268 668 l 276 668 q 360 739 308 711 q 481 767 411 767 q 651 695 585 767 q 717 476 717 623 l 717 -53 q 680 -197 717 -147 q 586 -265 643 -247 q 472 -284 530 -284 q 373 -277 410 -284 l 373 -129 q 396 -131 383 -130 q 421 -133 408 -133 q 494 -116 463 -133 q 525 -53 525 -100 l 525 477 q 498 574 525 538 q 414 610 471 610 q 311 559 349 610 q 274 420 274 508 z "},"ƕ":{"ha":1232,"x_min":82,"x_max":1149,"o":"m 274 420 l 274 0 l 82 0 l 82 1010 l 268 1010 l 268 668 l 276 668 q 360 739 308 711 q 481 767 411 767 q 651 696 585 767 q 717 476 717 625 l 717 296 q 753 180 717 213 q 836 146 789 146 q 921 180 884 146 q 958 296 958 213 l 958 758 l 1149 758 l 1149 296 q 1067 72 1149 157 q 836 -14 984 -14 q 607 72 689 -14 q 525 296 525 157 l 525 477 q 497 574 525 538 q 414 610 470 610 q 311 559 349 610 q 274 420 274 508 z "},"ɥ":{"ha":799,"x_min":73,"x_max":707,"o":"m 515 337 l 515 758 l 707 758 l 707 -253 l 521 -253 l 521 89 l 513 89 q 430 18 481 46 q 308 -10 378 -10 q 138 62 204 -10 q 73 282 73 134 l 73 758 l 264 758 l 264 280 q 291 184 264 219 q 375 148 319 148 q 478 199 440 148 q 515 337 515 250 z "},"ʮ":{"ha":850,"x_min":-19,"x_max":767,"o":"m 576 337 l 576 758 l 767 758 l 767 -284 l 581 -284 l 581 89 l 574 89 q 490 18 542 46 q 368 -10 438 -10 q 199 61 265 -10 q 133 282 133 133 l 133 536 q 102 600 133 583 q 30 616 71 616 q 4 615 16 616 q -19 612 -8 614 l -19 760 q 81 767 18 767 q 195 749 139 767 q 288 680 251 730 q 325 536 325 630 l 325 280 q 352 184 325 219 q 436 148 379 148 q 539 199 501 148 q 576 337 576 250 z "},"ʯ":{"ha":850,"x_min":-19,"x_max":919,"o":"m 576 337 l 576 758 l 767 758 l 767 -53 q 799 -116 767 -100 q 871 -133 830 -133 q 897 -131 885 -133 q 919 -129 909 -130 l 919 -277 q 820 -284 883 -284 q 707 -265 763 -284 q 615 -197 651 -247 q 579 -53 579 -147 l 579 68 l 581 68 l 581 89 l 574 89 q 490 18 542 46 q 368 -10 438 -10 q 199 61 265 -10 q 133 282 133 133 l 133 536 q 102 600 133 583 q 30 616 71 616 q 4 615 16 616 q -19 612 -8 614 l -19 760 q 81 767 18 767 q 195 749 139 767 q 288 680 251 730 q 325 536 325 630 l 325 280 q 352 184 325 219 q 436 148 379 148 q 539 199 501 148 q 576 337 576 250 z "},"ı":{"ha":367,"x_min":88,"x_max":279,"o":"m 279 758 l 279 0 l 88 0 l 88 758 l 279 758 z "},"i":{"ha":367,"x_min":74,"x_max":292,"o":"m 184 821 q 106 851 137 821 q 74 922 74 880 q 106 993 74 963 q 184 1024 137 1024 q 261 993 231 1024 q 292 922 292 963 q 261 851 292 880 q 184 821 231 821 m 279 758 l 279 0 l 88 0 l 88 758 l 279 758 z "},"ï":{"ha":409,"x_min":-27,"x_max":436,"o":"m 65 851 q 0 877 26 851 q -27 937 -27 902 q 0 999 -27 974 q 65 1024 26 1024 q 129 999 104 1024 q 154 937 154 974 q 129 877 154 902 q 65 851 104 851 m 346 851 q 281 877 307 851 q 255 937 255 902 q 281 999 255 974 q 346 1024 307 1024 q 410 999 385 1024 q 436 937 436 974 q 410 877 436 902 q 346 851 385 851 m 302 758 l 302 0 l 110 0 l 110 758 l 302 758 z "},"ḯ":{"ha":461,"x_min":-26,"x_max":488,"o":"m 139 1034 l 272 1243 l 482 1243 l 294 1034 l 139 1034 m -26 917 q 0 978 -26 953 q 67 1002 27 1002 q 134 978 108 1002 q 160 917 160 953 q 134 856 160 881 q 67 832 108 832 q 0 856 27 832 q -26 917 -26 881 m 302 916 q 328 977 302 952 q 395 1002 354 1002 q 462 977 436 1002 q 488 916 488 952 q 462 856 488 880 q 395 832 436 832 q 328 856 354 832 q 302 916 302 880 m 327 758 l 327 0 l 136 0 l 136 758 l 327 758 z "},"ĩ":{"ha":456,"x_min":-27,"x_max":483,"o":"m 371 1044 l 483 1036 q 439 908 483 961 q 329 856 396 856 q 258 871 286 856 q 205 901 230 886 q 144 915 180 915 q 103 898 120 915 q 87 850 87 881 l -27 855 q -7 945 -27 904 q 48 1011 13 986 q 127 1036 83 1036 q 193 1021 164 1036 q 250 992 222 1007 q 312 978 279 978 q 354 995 336 978 q 371 1044 371 1013 m 325 758 l 325 0 l 134 0 l 134 758 l 325 758 z "},"ḭ":{"ha":419,"x_min":-45,"x_max":465,"o":"m 208 821 q 130 851 162 821 q 98 922 98 880 q 130 993 98 963 q 208 1024 162 1024 q 285 993 254 1024 q 316 922 316 963 q 285 851 316 880 q 208 821 254 821 m 303 758 l 303 0 l 112 0 l 112 758 l 303 758 m 353 -67 l 465 -74 q 421 -201 465 -149 q 311 -254 377 -254 q 239 -239 267 -254 q 186 -210 212 -224 q 126 -195 161 -195 q 85 -212 102 -195 q 69 -260 69 -229 l -45 -255 q -25 -165 -45 -206 q 30 -99 -5 -124 q 109 -74 65 -74 q 174 -89 145 -74 q 232 -118 204 -103 q 294 -132 260 -132 q 336 -115 318 -132 q 353 -67 353 -98 z "},"ɨ":{"ha":573,"x_min":51,"x_max":522,"o":"m 301 821 q 223 851 254 821 q 191 922 191 880 q 223 993 191 963 q 301 1024 254 1024 q 379 993 348 1024 q 409 922 409 963 q 379 851 409 880 q 301 821 348 821 m 522 455 l 522 337 l 397 337 l 397 0 l 205 0 l 205 337 l 51 337 l 51 455 l 205 455 l 205 758 l 397 758 l 397 455 l 522 455 z "},"ȷ":{"ha":423,"x_min":1,"x_max":337,"o":"m 145 758 l 337 758 l 337 -34 q 262 -223 337 -161 q 65 -286 186 -286 l 1 -286 l 1 -131 l 40 -131 q 124 -103 103 -131 q 145 -31 145 -75 l 145 758 z "},"ɟ":{"ha":493,"x_min":14,"x_max":491,"o":"m 491 118 l 491 0 l 350 0 l 350 -34 q 275 -223 350 -161 q 78 -286 200 -286 l 14 -286 l 14 -131 l 53 -131 q 137 -103 116 -131 q 159 -31 159 -75 l 159 0 l 20 0 l 20 118 l 159 118 l 159 758 l 350 758 l 350 118 l 491 118 z "},"ɉ":{"ha":514,"x_min":26,"x_max":499,"o":"m 267 821 q 188 851 220 821 q 157 922 157 880 q 188 993 157 963 q 267 1024 220 1024 q 344 993 314 1024 q 375 922 375 963 q 344 851 375 880 q 267 821 314 821 m 499 455 l 499 337 l 362 337 l 362 -34 q 287 -223 362 -161 q 90 -286 212 -286 l 26 -286 l 26 -131 l 65 -131 q 149 -103 128 -131 q 171 -31 171 -75 l 171 337 l 28 337 l 28 455 l 171 455 l 171 758 l 362 758 l 362 455 l 499 455 z "},"j":{"ha":423,"x_min":1,"x_max":350,"o":"m 242 821 q 164 851 195 821 q 132 922 132 880 q 164 993 132 963 q 242 1024 195 1024 q 319 993 288 1024 q 350 922 350 963 q 319 851 350 880 q 242 821 288 821 m 145 758 l 337 758 l 337 -34 q 262 -223 337 -161 q 65 -286 186 -286 l 1 -286 l 1 -131 l 40 -131 q 124 -103 103 -131 q 145 -31 145 -75 l 145 758 z "},"ʝ":{"ha":680,"x_min":16,"x_max":672,"o":"m 404 821 q 326 851 358 821 q 294 922 294 880 q 326 993 294 963 q 404 1024 358 1024 q 482 993 451 1024 q 512 922 512 963 q 482 851 512 880 q 404 821 451 821 m 672 82 l 672 -52 l 500 -52 q 474 -173 499 -119 q 396 -260 450 -228 q 251 -292 342 -292 q 75 -239 134 -292 q 16 -103 16 -185 q 75 32 16 -18 q 239 82 135 82 l 308 82 l 308 758 l 500 758 l 500 82 l 672 82 m 247 -167 q 299 -145 284 -167 q 314 -89 314 -123 l 314 -52 l 255 -52 q 203 -67 223 -52 q 182 -107 182 -81 q 202 -151 182 -136 q 247 -167 221 -167 z "},"k":{"ha":769,"x_min":82,"x_max":763,"o":"m 553 0 l 340 313 l 274 238 l 274 0 l 82 0 l 82 1010 l 274 1010 l 274 478 l 285 478 l 520 758 l 745 758 l 465 435 l 763 0 l 553 0 z "},"ƙ":{"ha":769,"x_min":82,"x_max":763,"o":"m 552 0 l 347 297 l 274 213 l 274 0 l 82 0 l 82 793 q 120 937 82 887 q 213 1005 157 986 q 327 1024 269 1024 q 381 1022 354 1024 q 426 1017 407 1020 l 426 869 q 403 871 415 870 q 378 872 391 872 q 305 856 336 872 q 274 793 274 839 l 274 478 l 284 478 l 519 758 l 745 758 l 465 434 l 763 0 l 552 0 z "},"ʞ":{"ha":769,"x_min":-7,"x_max":674,"o":"m 11 0 l 291 323 l -7 758 l 203 758 l 416 445 l 482 519 l 482 758 l 674 758 l 674 -253 l 482 -253 l 482 280 l 471 280 l 236 0 l 11 0 z "},"l":{"ha":356,"x_min":82,"x_max":274,"o":"m 274 1010 l 274 0 l 82 0 l 82 1010 l 274 1010 z "},"ł":{"ha":356,"x_min":-13,"x_max":366,"o":"m 366 653 l 366 542 l 274 511 l 274 0 l 82 0 l 82 446 l -13 414 l -13 525 l 82 557 l 82 1010 l 274 1010 l 274 622 l 366 653 z "},"ƚ":{"ha":573,"x_min":51,"x_max":522,"o":"m 522 615 l 522 497 l 388 497 l 388 0 l 197 0 l 197 497 l 51 497 l 51 615 l 197 615 l 197 1010 l 388 1010 l 388 615 l 522 615 z "},"ɫ":{"ha":590,"x_min":26,"x_max":535,"o":"m 424 660 l 535 652 q 491 525 535 577 q 382 472 448 472 l 382 0 l 191 0 l 191 532 q 154 512 169 530 q 139 466 139 495 l 26 471 q 46 561 26 520 q 100 627 66 602 q 180 652 135 652 q 191 652 185 652 l 191 1010 l 382 1010 l 382 597 q 412 618 400 602 q 424 660 424 635 z "},"ɭ":{"ha":356,"x_min":82,"x_max":426,"o":"m 274 1010 l 274 -53 q 305 -116 274 -100 q 378 -133 336 -133 q 403 -131 391 -133 q 426 -129 415 -130 l 426 -277 q 327 -284 389 -284 q 212 -265 268 -284 q 119 -197 156 -247 q 82 -53 82 -147 l 82 1010 l 274 1010 z "},"ɬ":{"ha":798,"x_min":69,"x_max":726,"o":"m 726 380 l 553 380 l 553 0 l 362 0 l 362 380 l 287 380 q 126 431 183 380 q 69 566 69 483 q 128 708 69 649 q 304 767 187 767 q 362 763 334 767 l 362 1010 l 553 1010 l 553 515 l 726 515 l 726 380 m 303 515 l 362 515 l 362 550 q 301 627 362 627 q 255 611 273 627 q 237 571 237 594 q 254 532 237 549 q 303 515 271 515 z "},"ȴ":{"ha":560,"x_min":-96,"x_max":556,"o":"m 274 1010 l 274 93 q 358 105 319 105 q 461 79 416 105 q 531 11 506 54 q 556 -84 556 -32 q 530 -182 556 -137 q 456 -256 504 -228 q 342 -284 408 -284 q 211 -251 273 -284 q 114 -154 149 -217 l 1 -256 l -96 -145 l 19 -42 q 82 5 49 -17 l 82 1010 l 274 1010 m 274 -70 q 292 -127 274 -105 q 344 -148 310 -148 q 383 -131 367 -148 q 399 -88 399 -113 q 382 -50 399 -67 q 338 -32 366 -32 q 274 -43 305 -32 l 274 -70 z "},"m":{"ha":1198,"x_min":82,"x_max":1115,"o":"m 693 472 l 693 0 l 507 0 l 507 480 q 474 580 507 549 q 393 610 442 610 q 309 575 345 610 q 274 469 274 541 l 274 0 l 82 0 l 82 758 l 270 758 l 270 661 l 276 661 q 354 736 304 704 q 473 767 403 767 q 590 736 543 767 q 662 653 638 705 l 670 653 q 753 733 696 699 q 885 767 809 767 q 1001 739 949 767 q 1084 648 1053 711 q 1115 480 1115 584 l 1115 0 l 924 0 l 924 482 q 889 582 924 554 q 812 610 854 610 q 725 574 757 610 q 693 472 693 539 z "},"ɱ":{"ha":1198,"x_min":82,"x_max":1115,"o":"m 693 472 l 693 0 l 507 0 l 507 480 q 474 580 507 549 q 393 610 442 610 q 309 575 345 610 q 274 469 274 541 l 274 0 l 82 0 l 82 758 l 270 758 l 270 661 l 276 661 q 354 736 304 704 q 473 767 403 767 q 590 736 543 767 q 662 653 638 705 l 670 653 q 753 733 696 699 q 885 767 809 767 q 1001 739 949 767 q 1084 648 1053 711 q 1115 480 1115 584 l 1115 -53 q 1078 -197 1115 -147 q 985 -265 1041 -247 q 871 -284 929 -284 q 772 -277 809 -284 l 772 -129 q 795 -131 782 -130 q 820 -133 807 -133 q 892 -116 861 -133 q 924 -53 924 -100 l 924 482 q 889 582 924 554 q 812 610 854 610 q 725 574 757 610 q 693 472 693 539 z "},"ɯ":{"ha":1198,"x_min":70,"x_max":1102,"o":"m 491 286 l 491 758 l 678 758 l 678 277 q 710 178 678 208 q 792 148 743 148 q 875 182 839 148 q 911 289 911 217 l 911 758 l 1102 758 l 1102 0 l 915 0 l 915 96 l 908 96 q 831 22 881 53 q 711 -10 781 -10 q 594 21 642 -10 q 522 105 546 52 l 514 105 q 432 24 488 58 q 299 -10 375 -10 q 183 18 236 -10 q 100 110 131 47 q 70 277 70 173 l 70 758 l 261 758 l 261 276 q 296 176 261 203 q 372 148 330 148 q 460 183 428 148 q 491 286 491 218 z "},"ɰ":{"ha":1198,"x_min":69,"x_max":1115,"o":"m 491 286 l 491 758 l 678 758 l 678 277 q 710 178 678 208 q 792 148 743 148 q 875 182 839 148 q 910 289 910 217 l 910 758 l 1102 758 l 1102 12 l 1115 12 l 1115 -284 l 928 -284 l 928 0 l 914 0 l 914 96 l 908 96 q 831 22 881 53 q 711 -10 781 -10 q 594 21 642 -10 q 522 105 546 52 l 514 105 q 432 24 488 58 q 299 -10 375 -10 q 183 18 235 -10 q 100 110 131 47 q 69 277 69 173 l 69 758 l 260 758 l 260 276 q 295 176 260 203 q 372 148 330 148 q 460 183 428 148 q 491 286 491 218 z "},"n":{"ha":814,"x_min":82,"x_max":731,"o":"m 274 417 l 274 0 l 82 0 l 82 758 l 262 758 l 262 661 l 270 661 q 354 738 300 708 q 480 767 408 767 q 604 738 546 767 q 696 645 661 709 q 731 476 731 581 l 731 0 l 540 0 l 540 468 q 503 573 540 536 q 413 610 467 610 q 311 557 349 610 q 274 417 274 505 z "},"ñ":{"ha":814,"x_min":82,"x_max":731,"o":"m 535 1044 l 647 1036 q 603 908 647 961 q 493 856 559 856 q 421 871 449 856 q 368 901 394 886 q 308 915 343 915 q 267 898 284 915 q 251 850 251 881 l 137 855 q 157 945 137 904 q 212 1011 177 986 q 291 1036 247 1036 q 357 1021 327 1036 q 414 992 386 1007 q 476 978 442 978 q 518 995 500 978 q 535 1044 535 1013 m 274 417 l 274 0 l 82 0 l 82 758 l 262 758 l 262 661 l 270 661 q 354 738 300 708 q 480 767 408 767 q 604 738 546 767 q 696 645 661 709 q 731 476 731 581 l 731 0 l 540 0 l 540 468 q 503 573 540 536 q 413 610 467 610 q 311 557 349 610 q 274 417 274 505 z "},"ɳ":{"ha":854,"x_min":82,"x_max":883,"o":"m 274 417 l 274 0 l 82 0 l 82 758 l 262 758 l 262 661 l 270 661 q 354 738 300 708 q 480 767 408 767 q 604 738 546 767 q 696 645 661 709 q 731 476 731 581 l 731 -53 q 763 -116 731 -100 q 835 -133 794 -133 q 861 -131 848 -133 q 883 -129 873 -130 l 883 -277 q 784 -284 846 -284 q 670 -265 726 -284 q 577 -197 614 -247 q 540 -53 540 -147 l 540 468 q 503 573 540 536 q 413 610 467 610 q 311 557 349 610 q 274 417 274 505 z "},"ŋ":{"ha":814,"x_min":82,"x_max":731,"o":"m 274 417 l 274 0 l 82 0 l 82 758 l 262 758 l 262 661 l 270 661 q 354 738 300 708 q 480 767 408 767 q 604 738 546 767 q 696 645 661 709 q 731 476 731 581 l 731 -33 q 661 -225 731 -158 q 477 -292 591 -292 q 428 -291 453 -292 q 380 -284 403 -289 l 392 -127 q 418 -132 404 -130 q 449 -134 431 -134 q 515 -110 491 -134 q 540 -33 540 -87 l 540 468 q 503 573 540 536 q 413 610 467 610 q 311 557 349 610 q 274 417 274 505 z "},"ȵ":{"ha":1024,"x_min":82,"x_max":1014,"o":"m 274 417 l 274 0 l 82 0 l 82 758 l 262 758 l 262 661 l 270 661 q 354 738 300 708 q 480 767 408 767 q 604 738 546 767 q 696 645 661 709 q 731 476 731 581 l 731 130 q 815 141 776 141 q 919 116 874 141 q 989 47 964 90 q 1014 -48 1014 4 q 988 -146 1014 -101 q 914 -219 962 -191 q 800 -248 866 -248 q 669 -214 731 -248 q 572 -117 607 -180 l 458 -219 l 362 -109 l 476 -6 q 540 41 506 19 l 540 468 q 503 573 540 536 q 413 610 467 610 q 311 557 349 610 q 274 417 274 505 m 731 -33 q 749 -90 731 -68 q 801 -112 767 -112 q 840 -94 825 -112 q 856 -52 856 -77 q 840 -13 856 -31 q 795 4 824 4 q 731 -6 763 4 l 731 -33 z "},"ɲ":{"ha":854,"x_min":-30,"x_max":771,"o":"m 314 417 l 314 -53 q 277 -197 314 -147 q 184 -265 240 -247 q 70 -284 128 -284 q -30 -277 7 -284 l -30 -129 q -7 -131 -19 -130 q 19 -133 5 -133 q 91 -116 60 -133 q 123 -53 123 -100 l 123 758 l 302 758 l 302 661 l 310 661 q 395 738 340 708 q 520 767 449 767 q 644 738 587 767 q 736 645 701 709 q 771 476 771 581 l 771 0 l 580 0 l 580 468 q 544 573 580 536 q 453 610 508 610 q 351 557 389 610 q 314 417 314 505 z "},"o":{"ha":815,"x_min":55,"x_max":760,"o":"m 407 -14 q 220 36 299 -14 q 98 174 141 85 q 55 377 55 262 q 98 581 55 493 q 220 718 141 669 q 407 767 299 767 q 595 718 516 767 q 717 581 674 669 q 760 377 760 493 q 717 174 760 262 q 595 36 674 85 q 407 -14 516 -14 m 407 143 q 537 210 497 143 q 577 377 577 277 q 537 545 577 478 q 407 612 497 612 q 278 545 318 612 q 238 377 238 478 q 278 210 238 277 q 407 143 318 143 z "},"ö":{"ha":815,"x_min":55,"x_max":760,"o":"m 268 851 q 203 877 229 851 q 177 937 177 902 q 203 999 177 974 q 268 1024 229 1024 q 332 999 307 1024 q 358 937 358 974 q 332 877 358 902 q 268 851 307 851 m 549 851 q 484 877 510 851 q 458 937 458 902 q 484 999 458 974 q 549 1024 510 1024 q 613 999 588 1024 q 639 937 639 974 q 613 877 639 902 q 549 851 588 851 m 407 -14 q 220 36 299 -14 q 98 174 141 85 q 55 377 55 262 q 98 581 55 493 q 220 718 141 669 q 407 767 299 767 q 595 718 516 767 q 717 581 674 669 q 760 377 760 493 q 717 174 760 262 q 595 36 674 85 q 407 -14 516 -14 m 407 143 q 537 210 497 143 q 577 377 577 277 q 537 545 577 478 q 407 612 497 612 q 278 545 318 612 q 238 377 238 478 q 278 210 238 277 q 407 143 318 143 z "},"õ":{"ha":815,"x_min":55,"x_max":760,"o":"m 551 1044 l 662 1036 q 619 908 662 961 q 509 856 575 856 q 437 871 465 856 q 384 901 409 886 q 324 915 359 915 q 283 898 299 915 q 266 850 266 881 l 153 855 q 173 945 153 904 q 228 1011 193 986 q 307 1036 262 1036 q 372 1021 343 1036 q 430 992 401 1007 q 492 978 458 978 q 533 995 516 978 q 551 1044 551 1013 m 407 -14 q 220 36 299 -14 q 98 174 141 85 q 55 377 55 262 q 98 581 55 493 q 220 718 141 669 q 407 767 299 767 q 595 718 516 767 q 717 581 674 669 q 760 377 760 493 q 717 174 760 262 q 595 36 674 85 q 407 -14 516 -14 m 407 143 q 537 210 497 143 q 577 377 577 277 q 537 545 577 478 q 407 612 497 612 q 278 545 318 612 q 238 377 238 478 q 278 210 238 277 q 407 143 318 143 z "},"ø":{"ha":815,"x_min":55,"x_max":760,"o":"m 187 -47 l 96 15 l 150 95 q 55 377 55 202 q 98 581 55 493 q 220 718 141 669 q 407 767 299 767 q 578 728 503 767 l 625 799 l 716 736 l 665 660 q 760 377 760 553 q 717 174 760 262 q 595 36 674 85 q 407 -14 516 -14 q 237 26 312 -14 l 187 -47 m 238 377 q 257 253 238 305 l 486 593 q 407 612 453 612 q 278 545 318 612 q 238 377 238 478 m 407 143 q 537 210 497 143 q 577 377 577 277 q 558 502 577 450 l 328 162 q 407 143 362 143 z "},"ơ":{"ha":852,"x_min":55,"x_max":849,"o":"m 407 -14 q 220 36 299 -14 q 98 174 141 85 q 55 377 55 262 q 98 581 55 493 q 220 718 141 669 q 407 767 299 767 q 563 735 495 767 q 678 644 632 702 q 720 705 709 664 q 730 804 730 746 l 849 804 q 820 653 849 715 q 725 564 790 591 q 760 377 760 481 q 717 174 760 262 q 595 36 674 85 q 407 -14 516 -14 m 407 143 q 537 210 497 143 q 577 377 577 277 q 537 545 577 478 q 407 612 497 612 q 278 545 318 612 q 238 377 238 478 q 278 210 238 277 q 407 143 318 143 z "},"ѳ":{"ha":815,"x_min":55,"x_max":760,"o":"m 407 -14 q 220 36 299 -14 q 98 174 141 85 q 55 377 55 262 q 98 581 55 493 q 220 718 141 669 q 407 767 299 767 q 595 718 516 767 q 717 581 674 669 q 760 377 760 493 q 717 174 760 262 q 595 36 674 85 q 407 -14 516 -14 m 407 612 q 292 564 332 612 q 242 439 253 516 l 573 439 q 523 564 562 516 q 407 612 483 612 m 407 143 q 523 191 483 143 q 573 316 562 239 l 242 316 q 292 191 253 239 q 407 143 332 143 z "},"œ":{"ha":1328,"x_min":55,"x_max":1274,"o":"m 407 -14 q 220 36 299 -14 q 98 174 141 85 q 55 377 55 262 q 98 581 55 493 q 220 718 141 669 q 407 767 299 767 q 558 738 491 767 q 670 654 624 708 q 783 737 716 707 q 936 767 850 767 q 1108 727 1032 767 q 1230 606 1185 687 q 1274 403 1274 525 l 1274 323 l 762 323 q 816 191 771 239 q 942 143 860 143 q 1045 174 1011 143 q 1095 248 1080 205 l 1267 201 q 1214 100 1253 149 q 1108 18 1175 50 q 944 -14 1042 -14 q 785 15 855 -14 q 667 97 715 43 q 555 15 621 44 q 407 -14 490 -14 m 407 143 q 537 210 497 143 q 577 377 577 277 q 537 545 577 478 q 407 612 497 612 q 278 545 318 612 q 238 377 238 478 q 278 210 238 277 q 407 143 318 143 m 934 612 q 825 571 868 612 q 767 455 782 529 l 1093 455 q 1051 567 1093 522 q 934 612 1010 612 z "},"p":{"ha":825,"x_min":82,"x_max":770,"o":"m 82 -284 l 82 758 l 271 758 l 271 664 l 283 664 q 347 735 302 703 q 468 767 392 767 q 619 724 550 767 q 729 593 688 680 q 770 378 770 506 q 730 164 770 252 q 621 32 690 77 q 469 -13 553 -13 q 347 18 393 -13 q 283 90 302 50 l 274 90 l 274 -284 l 82 -284 m 588 379 q 545 548 588 484 q 418 612 503 612 q 293 545 330 612 q 256 379 256 479 q 272 259 256 313 q 324 174 288 205 q 418 143 359 143 q 545 208 502 143 q 588 379 588 273 z "},"ҏ":{"ha":882,"x_min":82,"x_max":770,"o":"m 82 -284 l 82 758 l 271 758 l 271 664 l 283 664 q 347 735 302 703 q 468 767 392 767 q 619 724 550 767 q 729 593 688 680 q 770 378 770 506 q 745 205 770 280 q 677 80 720 130 l 742 2 l 670 -60 l 603 21 q 469 -13 542 -13 q 347 18 393 -13 q 283 90 302 50 l 274 90 l 274 -284 l 82 -284 m 484 311 l 556 225 q 588 379 588 285 q 545 548 588 484 q 418 612 503 612 q 293 545 330 612 q 256 379 256 479 q 272 259 256 313 q 324 174 288 205 q 418 143 359 143 q 489 158 457 143 l 413 250 l 484 311 z "},"ƥ":{"ha":825,"x_min":82,"x_max":770,"o":"m 82 -284 l 82 758 l 82 758 q 118 881 84 838 q 206 939 153 923 q 317 954 260 954 q 376 951 351 954 q 417 943 400 947 l 417 804 q 391 810 408 807 q 355 814 374 814 q 301 801 322 814 q 271 758 279 788 l 271 758 l 271 664 l 283 664 q 347 735 302 703 q 468 767 392 767 q 619 724 550 767 q 729 593 688 680 q 770 378 770 506 q 730 164 770 252 q 621 32 690 77 q 469 -13 553 -13 q 347 18 393 -13 q 283 90 302 50 l 274 90 l 274 -284 l 82 -284 m 588 379 q 545 548 588 484 q 418 612 503 612 q 293 545 330 612 q 256 379 256 479 q 272 259 256 313 q 324 174 288 205 q 418 143 359 143 q 545 208 502 143 q 588 379 588 273 z "},"q":{"ha":825,"x_min":55,"x_max":742,"o":"m 742 758 l 742 -284 l 551 -284 l 551 90 l 543 90 q 478 18 524 50 q 357 -13 432 -13 q 203 32 272 -13 q 95 164 135 77 q 55 378 55 252 q 96 593 55 506 q 206 724 137 680 q 357 767 275 767 q 478 735 433 767 q 543 664 524 703 l 553 664 l 553 758 l 742 758 m 237 379 q 280 208 237 273 q 407 143 323 143 q 501 174 466 143 q 553 259 537 205 q 569 379 569 313 q 532 545 569 479 q 407 612 495 612 q 280 548 322 612 q 237 379 237 484 z "},"ʠ":{"ha":874,"x_min":55,"x_max":895,"o":"m 846 784 q 774 768 805 784 q 742 704 742 752 l 742 -284 l 551 -284 l 551 90 l 543 90 q 478 18 524 50 q 357 -13 432 -13 q 203 32 272 -13 q 95 164 135 77 q 55 378 55 252 q 96 593 55 506 q 206 724 137 680 q 357 767 275 767 q 478 735 433 767 q 543 664 524 703 l 552 664 l 552 711 q 553 737 552 725 l 553 758 l 555 758 q 603 868 566 829 q 692 921 641 906 q 795 936 743 936 q 895 929 856 936 l 895 780 q 872 783 884 782 q 846 784 860 784 m 237 379 q 280 208 237 273 q 407 143 323 143 q 501 174 466 143 q 553 259 537 205 q 569 379 569 313 q 532 545 569 479 q 407 612 495 612 q 280 548 322 612 q 237 379 237 484 z "},"ɋ":{"ha":865,"x_min":55,"x_max":895,"o":"m 742 758 l 742 -53 q 774 -116 742 -100 q 846 -133 805 -133 q 872 -131 860 -133 q 895 -129 884 -130 l 895 -277 q 795 -284 858 -284 q 681 -265 737 -284 q 588 -197 625 -247 q 551 -53 551 -147 l 551 90 l 543 90 q 478 18 524 50 q 357 -13 432 -13 q 203 32 272 -13 q 95 164 135 77 q 55 378 55 252 q 96 593 55 506 q 206 724 137 680 q 357 767 275 767 q 478 735 433 767 q 543 664 524 703 l 553 664 l 553 758 l 742 758 m 237 379 q 280 208 237 273 q 407 143 323 143 q 501 174 466 143 q 553 259 537 205 q 569 379 569 313 q 532 545 569 479 q 407 612 495 612 q 280 548 322 612 q 237 379 237 484 z "},"Ɋ":{"ha":1092,"x_min":68,"x_max":1122,"o":"m 970 1012 l 970 -53 q 1001 -116 970 -100 q 1074 -133 1032 -133 q 1099 -131 1087 -133 q 1122 -129 1111 -130 l 1122 -277 q 1022 -284 1085 -284 q 908 -265 965 -284 q 815 -197 852 -247 q 778 -53 778 -147 l 778 94 l 770 94 q 664 13 731 40 q 515 -14 598 -14 q 275 52 375 -14 q 121 236 175 118 q 68 507 68 353 q 122 773 68 656 q 276 957 176 890 q 512 1024 375 1024 q 663 996 594 1024 q 769 916 732 969 l 780 916 l 780 1012 l 970 1012 m 256 506 q 285 327 256 404 q 372 206 314 250 q 520 162 431 162 q 640 188 592 162 q 718 255 689 215 q 758 339 747 296 q 772 428 766 379 q 778 509 778 478 q 774 577 778 536 q 760 656 770 618 q 736 716 752 683 q 692 781 720 750 q 621 832 664 812 q 515 852 578 852 q 370 805 427 852 q 284 681 312 759 q 256 506 256 602 z "},"r":{"ha":573,"x_min":82,"x_max":558,"o":"m 558 743 l 499 577 q 471 587 491 581 q 428 593 451 593 q 348 569 383 593 q 294 509 314 546 q 274 430 274 472 l 274 0 l 82 0 l 82 758 l 270 758 l 270 650 l 281 650 q 348 738 297 708 q 454 768 399 768 q 512 761 483 768 q 558 743 541 754 z "},"ɽ":{"ha":612,"x_min":103,"x_max":579,"o":"m 579 743 l 519 577 q 491 587 511 581 q 448 593 472 593 q 368 569 403 593 q 314 509 333 546 q 294 430 294 472 l 294 -53 q 325 -116 294 -100 q 398 -133 357 -133 q 423 -131 411 -133 q 446 -129 436 -130 l 446 -277 q 347 -284 409 -284 q 233 -265 289 -284 q 140 -197 177 -247 q 103 -53 103 -147 l 103 758 l 290 758 l 290 650 l 300 650 q 367 738 317 708 q 474 768 418 768 q 532 761 504 768 q 579 743 561 754 z "},"ɍ":{"ha":620,"x_min":5,"x_max":625,"o":"m 476 414 l 476 296 l 340 296 l 340 0 l 149 0 l 149 296 l 5 296 l 5 414 l 149 414 l 149 758 l 336 758 l 336 650 l 347 650 q 414 738 363 708 q 520 768 465 768 q 579 761 550 768 q 625 743 607 754 l 565 577 q 538 587 557 581 q 495 593 518 593 q 415 569 449 593 q 361 509 380 546 q 340 430 341 472 l 340 414 l 476 414 z "},"ɹ":{"ha":525,"x_min":-47,"x_max":429,"o":"m -47 14 l 13 181 q 40 170 21 176 q 83 165 60 165 q 163 188 129 165 q 218 249 198 212 q 238 328 237 286 l 238 758 l 429 758 l 429 0 l 242 0 l 242 108 l 231 108 q 164 20 215 50 q 58 -10 113 -10 q 0 -3 28 -10 q -47 14 -29 4 z "},"ɻ":{"ha":616,"x_min":-27,"x_max":621,"o":"m -27 -9 l 33 157 q 60 147 40 152 q 103 141 80 141 q 183 164 148 141 q 238 225 218 188 q 257 304 257 262 l 257 734 l 449 734 l 449 152 l 458 152 l 458 -67 q 494 -143 458 -123 q 572 -162 530 -162 q 621 -158 594 -162 l 621 -287 q 576 -293 601 -291 q 520 -296 552 -296 q 434 -287 477 -296 q 353 -252 390 -277 q 294 -182 317 -227 q 272 -67 272 -138 l 272 -24 l 261 -24 l 261 84 l 251 84 q 184 -4 235 26 q 78 -34 133 -34 q 19 -27 48 -34 q -27 -9 -9 -20 z "},"ɿ":{"ha":487,"x_min":57,"x_max":409,"o":"m 409 -283 l 223 -283 l 223 522 q 205 580 223 559 q 160 608 187 600 q 105 616 133 616 q 81 615 93 616 q 57 612 69 614 l 57 744 q 102 751 77 749 q 156 754 126 754 q 244 745 200 754 q 326 710 289 735 q 386 641 363 686 q 409 525 409 596 l 409 -283 z "},"ɾ":{"ha":490,"x_min":78,"x_max":432,"o":"m 264 0 l 78 0 l 78 525 q 101 641 78 596 q 161 710 124 686 q 243 745 199 735 q 331 754 288 754 q 386 751 361 754 q 432 744 411 749 l 432 612 q 407 615 419 614 q 384 616 396 616 q 328 608 355 616 q 282 580 300 600 q 264 522 264 559 l 264 0 z "},"ɼ":{"ha":525,"x_min":82,"x_max":558,"o":"m 82 -284 l 82 758 l 270 758 l 270 650 l 281 650 q 348 738 297 708 q 454 768 399 768 q 512 761 483 768 q 558 743 541 754 l 499 577 q 471 587 491 581 q 428 593 451 593 q 348 569 383 593 q 294 509 314 546 q 274 430 274 472 l 274 -284 l 82 -284 z "},"s":{"ha":751,"x_min":42,"x_max":701,"o":"m 686 552 l 511 534 q 470 598 504 572 q 381 624 436 624 q 296 602 333 624 q 259 544 259 581 q 287 492 259 511 q 357 464 315 473 l 498 434 q 643 368 585 415 q 701 229 701 321 q 657 97 701 151 q 537 14 613 42 q 367 -14 462 -14 q 145 47 225 -14 q 42 215 65 108 l 225 235 q 280 156 239 183 q 376 128 320 128 q 468 151 431 128 q 505 208 505 175 q 477 262 505 247 q 412 286 449 277 l 279 316 q 129 389 188 337 q 70 531 70 440 q 158 704 70 641 q 389 767 246 767 q 595 711 522 767 q 686 552 667 655 z "},"ʂ":{"ha":756,"x_min":53,"x_max":712,"o":"m 53 235 l 225 235 l 225 234 l 236 235 q 290 156 250 183 q 387 128 330 128 q 479 151 442 128 q 515 208 515 175 q 487 262 515 247 q 423 286 459 277 l 290 316 q 139 389 199 337 q 80 531 80 440 q 168 704 80 641 q 400 767 257 767 q 605 711 533 767 q 696 552 678 655 l 522 534 q 481 598 515 572 q 392 624 447 624 q 307 602 343 624 q 270 544 270 581 q 298 492 270 511 q 367 464 326 473 l 509 434 q 654 368 596 415 q 712 229 712 321 q 668 96 712 151 q 548 14 623 42 q 378 -14 472 -14 q 225 10 291 -14 l 225 -35 q 247 -110 225 -92 q 310 -128 269 -128 q 360 -124 333 -128 l 360 -255 q 318 -262 338 -260 q 277 -264 298 -264 q 115 -205 177 -264 q 53 -35 53 -146 l 53 235 z "},"ȿ":{"ha":705,"x_min":42,"x_max":701,"o":"m 686 552 l 511 534 q 470 598 504 572 q 381 624 436 624 q 296 602 333 624 q 259 544 259 581 q 287 492 259 511 q 357 464 315 473 l 498 434 q 643 368 585 415 q 701 229 701 321 q 657 97 701 151 q 537 14 613 42 q 367 -14 462 -14 q 308 -11 336 -14 q 374 -114 350 -89 q 430 -139 399 -139 q 490 -123 462 -139 q 538 -88 518 -107 l 602 -200 q 523 -256 569 -229 q 418 -284 477 -284 q 319 -259 361 -284 q 244 -192 277 -233 q 184 -101 212 -150 l 55 126 l 69 136 q 42 215 51 172 l 225 235 q 280 156 239 183 q 376 128 320 128 q 468 151 431 128 q 505 208 505 175 q 477 262 505 247 q 412 286 449 277 l 279 316 q 129 389 188 337 q 70 531 70 440 q 158 704 70 641 q 389 767 246 767 q 595 711 522 767 q 686 552 667 655 z "},"ß":{"ha":856,"x_min":82,"x_max":810,"o":"m 268 724 l 268 0 l 82 0 l 82 724 q 163 956 82 877 q 381 1034 244 1034 q 530 1006 463 1034 q 637 923 597 978 q 677 784 677 867 q 667 709 677 740 q 644 654 657 678 q 621 605 631 629 q 611 551 611 581 q 631 496 611 519 q 681 450 651 472 q 740 401 710 428 q 790 335 769 374 q 810 240 810 296 q 777 112 810 170 q 678 20 744 55 q 510 -14 612 -14 q 399 -2 452 -14 q 318 28 346 10 l 367 173 q 423 152 388 164 q 506 140 458 140 q 595 167 564 140 q 625 237 625 194 q 604 304 625 277 q 552 353 583 331 q 490 399 521 375 q 438 457 459 423 q 417 543 417 491 q 429 612 417 582 q 456 667 440 641 q 483 718 471 692 q 494 777 494 745 q 461 849 494 825 q 381 874 428 874 q 299 839 329 874 q 268 724 268 805 z "},"t":{"ha":509,"x_min":33,"x_max":474,"o":"m 451 758 l 451 616 l 319 616 l 319 232 q 341 165 319 179 q 395 151 363 151 q 444 157 422 151 l 474 9 q 429 -2 463 5 q 342 -10 395 -10 q 235 16 284 -10 q 157 89 186 41 q 127 203 127 136 l 127 616 l 33 616 l 33 758 l 127 758 l 127 919 l 319 919 l 319 758 l 451 758 z "},"ƫ":{"ha":510,"x_min":33,"x_max":474,"o":"m 451 758 l 451 616 l 319 616 l 319 232 q 341 165 319 179 q 395 151 363 151 q 415 152 405 151 l 474 164 l 474 -53 q 414 -223 474 -163 q 254 -283 354 -283 q 212 -281 232 -283 q 171 -274 192 -280 l 171 -144 q 195 -146 183 -145 q 220 -147 207 -147 q 298 -128 262 -147 q 335 -53 335 -109 l 335 -10 q 232 18 279 -8 q 156 91 184 43 q 127 203 127 138 l 127 616 l 33 616 l 33 758 l 127 758 l 127 919 l 319 919 l 319 758 l 451 758 z "},"ʈ":{"ha":595,"x_min":65,"x_max":520,"o":"m 489 758 l 489 616 l 354 616 l 354 -67 q 372 -124 354 -104 q 417 -152 390 -145 q 472 -160 444 -160 q 496 -160 483 -160 q 520 -156 508 -159 l 520 -287 q 475 -293 500 -291 q 421 -296 451 -296 q 332 -287 377 -296 q 251 -252 288 -277 q 191 -182 214 -227 q 169 -67 169 -138 l 169 616 l 65 616 l 65 758 l 169 758 l 169 915 l 354 915 l 354 758 l 489 758 z "},"ȶ":{"ha":648,"x_min":-21,"x_max":633,"o":"m 481 758 l 481 616 l 349 616 l 349 362 q 433 373 394 373 q 537 347 491 373 q 607 279 582 322 q 633 184 633 236 q 606 86 633 131 q 532 12 580 40 q 417 -16 483 -16 q 286 18 348 -16 q 189 114 224 51 l 75 12 l -21 123 l 94 226 q 157 273 124 251 l 157 616 l 55 616 l 55 758 l 157 758 l 157 919 l 349 919 l 349 758 l 481 758 m 349 199 q 367 142 349 164 q 419 120 385 120 q 458 137 442 120 q 475 180 475 155 q 458 219 475 201 q 413 236 441 236 q 349 225 380 236 l 349 199 z "},"ʨ":{"ha":1121,"x_min":36,"x_max":1075,"o":"m 438 758 l 438 616 l 327 616 l 327 227 q 344 162 327 180 q 391 144 361 144 q 428 152 409 144 q 470 174 448 160 q 434 361 434 255 l 434 380 q 470 571 434 483 q 581 713 507 659 q 770 767 656 767 q 928 732 860 767 q 1035 633 996 697 q 1075 482 1073 569 l 897 482 q 863 574 895 535 q 767 614 831 614 q 676 579 708 614 q 631 490 644 544 q 618 380 618 436 l 618 361 q 623 291 618 323 q 746 369 681 335 q 885 402 812 402 q 1025 349 976 402 q 1075 224 1075 296 q 1039 109 1075 163 q 935 20 1003 54 q 771 -14 867 -14 q 651 4 704 -14 q 557 55 598 23 q 458 6 511 26 q 345 -14 405 -14 q 200 43 257 -14 q 142 227 142 101 l 142 616 l 36 616 l 36 758 l 142 758 l 142 918 l 327 918 l 327 758 l 438 758 m 785 141 q 863 160 827 141 q 899 213 899 178 q 885 246 899 236 q 851 256 871 256 q 778 229 817 256 q 695 163 740 201 q 785 141 731 141 z "},"ʇ":{"ha":513,"x_min":26,"x_max":467,"o":"m 49 110 l 49 253 l 182 253 l 182 636 q 159 703 182 689 q 105 717 137 717 q 56 711 78 717 l 26 859 q 71 871 37 863 q 158 878 106 878 q 265 853 216 878 q 343 780 314 827 q 373 665 373 732 l 373 253 l 467 253 l 467 110 l 373 110 l 373 -51 l 182 -51 l 182 110 l 49 110 z "},"u":{"ha":814,"x_min":82,"x_max":731,"o":"m 540 337 l 540 758 l 731 758 l 731 0 l 552 0 l 552 89 l 544 89 q 459 19 513 47 q 334 -10 405 -10 q 215 19 272 -10 q 120 111 157 47 q 82 282 82 176 l 82 758 l 274 758 l 274 287 q 310 184 274 219 q 400 148 346 148 q 502 199 465 148 q 540 337 540 249 z "},"ü":{"ha":814,"x_min":82,"x_max":731,"o":"m 266 851 q 201 877 227 851 q 175 937 175 902 q 201 999 175 974 q 266 1024 227 1024 q 331 999 305 1024 q 356 937 356 974 q 331 877 356 902 q 266 851 305 851 m 547 851 q 483 877 509 851 q 457 937 457 902 q 483 999 457 974 q 547 1024 509 1024 q 612 999 587 1024 q 637 937 637 974 q 612 877 637 902 q 547 851 587 851 m 540 337 l 540 758 l 731 758 l 731 0 l 552 0 l 552 89 l 544 89 q 459 19 513 47 q 334 -10 405 -10 q 215 19 272 -10 q 120 111 157 47 q 82 282 82 176 l 82 758 l 274 758 l 274 287 q 310 184 274 219 q 400 148 346 148 q 502 199 465 148 q 540 337 540 249 z "},"ũ":{"ha":814,"x_min":82,"x_max":731,"o":"m 542 1044 l 653 1036 q 609 908 653 961 q 499 856 566 856 q 428 871 456 856 q 375 901 400 886 q 314 915 350 915 q 273 898 290 915 q 257 850 257 881 l 144 855 q 164 945 144 904 q 218 1011 183 986 q 297 1036 253 1036 q 363 1021 333 1036 q 420 992 392 1007 q 482 978 449 978 q 524 995 507 978 q 542 1044 542 1013 m 540 337 l 540 758 l 731 758 l 731 0 l 552 0 l 552 89 l 544 89 q 459 19 513 47 q 334 -10 405 -10 q 215 19 272 -10 q 120 111 157 47 q 82 282 82 176 l 82 758 l 274 758 l 274 287 q 310 184 274 219 q 400 148 346 148 q 502 199 465 148 q 540 337 540 249 z "},"ư":{"ha":908,"x_min":82,"x_max":912,"o":"m 540 337 l 540 758 l 731 758 l 731 646 q 785 699 775 661 q 796 798 796 736 l 912 798 q 873 629 912 691 q 731 550 834 566 l 731 0 l 552 0 l 552 89 l 544 89 q 459 19 513 47 q 334 -10 405 -10 q 215 19 272 -10 q 120 111 157 47 q 82 282 82 176 l 82 758 l 274 758 l 274 287 q 310 184 274 219 q 400 148 346 148 q 502 199 465 148 q 540 337 540 249 z "},"µ":{"ha":816,"x_min":82,"x_max":734,"o":"m 549 341 l 549 758 l 734 758 l 734 0 l 563 0 l 559 55 q 400 -14 496 -14 q 331 0 364 -14 q 268 44 297 13 l 268 -282 l 82 -282 l 82 758 l 268 758 l 268 339 q 307 191 268 236 q 405 146 345 146 q 513 199 476 146 q 549 341 549 252 z "},"ʉ":{"ha":970,"x_min":34,"x_max":936,"o":"m 936 465 l 936 344 l 816 344 l 816 0 l 637 0 l 637 89 l 629 89 q 544 19 597 47 q 418 -10 490 -10 q 299 19 357 -10 q 204 111 242 47 q 167 282 167 176 l 167 344 l 34 344 l 34 465 l 167 465 l 167 758 l 359 758 l 359 465 l 624 465 l 624 758 l 816 758 l 816 465 l 936 465 m 624 337 l 624 344 l 359 344 l 359 287 q 395 184 359 219 q 485 148 431 148 q 587 199 549 148 q 624 337 624 249 z "},"v":{"ha":807,"x_min":34,"x_max":773,"o":"m 773 758 l 494 0 l 311 0 l 34 758 l 233 758 l 400 244 l 408 244 l 574 758 l 773 758 z "},"ʌ":{"ha":773,"x_min":-13,"x_max":726,"o":"m -13 0 l 266 758 l 449 758 l 726 0 l 527 0 l 360 514 l 352 514 l 186 0 l -13 0 z "},"w":{"ha":1100,"x_min":47,"x_max":1053,"o":"m 1053 758 l 853 0 l 691 0 l 555 472 l 544 472 l 409 0 l 247 0 l 47 758 l 234 758 l 337 263 l 347 263 l 477 758 l 622 758 l 752 267 l 762 267 l 866 758 l 1053 758 z "},"ẅ":{"ha":1100,"x_min":47,"x_max":1053,"o":"m 411 851 q 346 877 372 851 q 320 937 320 902 q 346 999 320 974 q 411 1024 372 1024 q 475 999 450 1024 q 501 937 501 974 q 475 877 501 902 q 411 851 450 851 m 692 851 q 627 877 653 851 q 601 937 601 902 q 627 999 601 974 q 692 1024 653 1024 q 756 999 731 1024 q 782 937 782 974 q 756 877 782 902 q 692 851 731 851 m 1053 758 l 853 0 l 691 0 l 555 472 l 544 472 l 409 0 l 247 0 l 47 758 l 234 758 l 337 263 l 347 263 l 477 758 l 622 758 l 752 267 l 762 267 l 866 758 l 1053 758 z "},"ʍ":{"ha":1100,"x_min":34,"x_max":1040,"o":"m 34 0 l 234 758 l 396 758 l 532 286 l 544 286 l 678 758 l 840 758 l 1040 0 l 853 0 l 750 494 l 740 494 l 610 0 l 465 0 l 335 491 l 326 491 l 221 0 l 34 0 z "},"x":{"ha":766,"x_min":44,"x_max":722,"o":"m 251 758 l 383 511 l 517 758 l 716 758 l 502 379 l 722 0 l 523 0 l 383 240 l 244 0 l 44 0 l 262 379 l 51 758 l 251 758 z "},"y":{"ha":807,"x_min":34,"x_max":773,"o":"m 295 -32 l 309 6 l 34 758 l 233 758 l 400 258 l 408 258 l 574 758 l 773 758 l 453 -113 q 405 -199 436 -157 q 323 -268 373 -241 q 200 -295 273 -295 q 143 -290 169 -295 q 95 -276 117 -285 l 139 -125 q 239 -122 209 -145 q 295 -32 269 -100 z "},"ÿ":{"ha":766,"x_min":34,"x_max":773,"o":"m 243 851 q 178 877 204 851 q 152 937 152 902 q 178 999 152 974 q 243 1024 204 1024 q 308 999 282 1024 q 333 937 333 974 q 308 877 333 902 q 243 851 282 851 m 524 851 q 459 877 485 851 q 434 937 434 902 q 459 999 434 974 q 524 1024 485 1024 q 589 999 563 1024 q 614 937 614 974 q 589 877 614 902 q 524 851 563 851 m 295 -32 l 309 6 l 34 758 l 233 758 l 400 258 l 408 258 l 574 758 l 773 758 l 453 -113 q 405 -199 436 -157 q 323 -268 373 -241 q 200 -295 273 -295 q 143 -290 169 -295 q 95 -276 117 -285 l 139 -125 q 239 -122 209 -145 q 295 -32 269 -100 z "},"ƴ":{"ha":825,"x_min":34,"x_max":874,"o":"m 288 -30 l 302 16 l 34 758 l 234 758 l 387 295 l 509 683 l 526 735 q 592 853 547 799 q 714 922 637 906 q 800 929 761 934 q 874 913 838 924 l 856 766 q 824 775 837 772 q 793 775 811 779 q 738 741 759 769 q 701 661 718 713 l 691 632 l 452 -110 q 404 -197 437 -154 q 319 -268 371 -240 q 193 -296 266 -296 q 101 -284 143 -296 l 101 -131 q 140 -133 115 -133 q 235 -109 200 -133 q 288 -30 270 -86 z "},"ɏ":{"ha":852,"x_min":60,"x_max":834,"o":"m 356 -32 l 370 6 l 220 414 l 60 414 l 60 516 l 182 516 l 94 758 l 293 758 l 373 516 l 554 516 l 635 758 l 834 758 l 745 516 l 794 516 l 794 414 l 707 414 l 513 -113 q 465 -199 497 -157 q 383 -268 434 -241 q 261 -295 333 -295 q 203 -290 229 -295 q 156 -276 178 -285 l 199 -125 q 300 -122 269 -145 q 356 -32 330 -100 m 460 258 l 468 258 l 520 414 l 408 414 l 460 258 z "},"ʎ":{"ha":773,"x_min":-13,"x_max":726,"o":"m 527 0 l 361 499 l 352 499 l 186 0 l -13 0 l 307 871 q 355 957 324 914 q 437 1026 387 999 q 560 1053 487 1053 q 617 1048 591 1053 q 665 1034 643 1042 l 621 883 q 521 880 551 903 q 465 790 491 857 l 451 752 l 726 0 l 527 0 z "},"z":{"ha":759,"x_min":76,"x_max":685,"o":"m 685 155 l 685 0 l 76 0 l 76 119 l 437 602 l 83 602 l 83 758 l 676 758 l 676 641 l 316 155 l 685 155 z "},"ƶ":{"ha":759,"x_min":76,"x_max":685,"o":"m 685 155 l 685 0 l 76 0 l 76 119 l 230 326 l 144 326 l 144 443 l 318 443 l 437 602 l 83 602 l 83 758 l 676 758 l 676 641 l 530 443 l 616 443 l 616 326 l 442 326 l 316 155 l 685 155 z "},"ȥ":{"ha":758,"x_min":76,"x_max":713,"o":"m 676 641 l 315 155 l 454 155 q 646 88 579 155 q 713 -93 713 20 l 713 -180 l 553 -180 l 553 -131 q 546 -70 553 -100 q 517 -20 539 -39 q 454 0 496 0 l 76 0 l 76 119 l 438 602 l 83 602 l 83 758 l 676 758 l 676 641 z "},"ɀ":{"ha":757,"x_min":76,"x_max":873,"o":"m 315 155 l 331 155 q 451 127 403 155 q 532 58 499 99 q 591 -25 565 16 q 643 -95 617 -67 q 705 -123 670 -123 q 764 -106 735 -123 q 809 -73 793 -89 l 873 -200 q 796 -257 842 -230 q 688 -284 749 -284 q 585 -255 626 -284 q 514 -184 545 -227 q 453 -100 483 -142 q 384 -29 423 -57 q 287 0 345 0 l 76 0 l 76 119 l 438 602 l 83 602 l 83 758 l 676 758 l 676 641 l 315 155 z "},"ʐ":{"ha":759,"x_min":76,"x_max":848,"o":"m 685 155 l 685 -67 q 721 -141 685 -123 q 799 -159 758 -159 q 848 -155 822 -159 l 848 -287 q 808 -294 828 -292 q 766 -296 788 -296 q 606 -236 666 -296 q 545 -67 545 -177 l 545 0 l 76 0 l 76 119 l 437 602 l 83 602 l 83 758 l 676 758 l 676 641 l 316 155 l 685 155 z "},"ʑ":{"ha":936,"x_min":76,"x_max":910,"o":"m 910 236 q 882 128 910 183 q 793 37 854 74 q 635 0 732 0 l 480 0 l 363 -165 l 240 -88 l 300 0 l 76 0 l 76 119 l 438 602 l 83 602 l 83 758 l 676 758 l 676 641 l 315 155 l 409 155 q 526 303 475 246 q 625 388 578 361 q 726 415 673 415 q 818 393 775 415 q 885 330 860 370 q 910 236 910 290 m 708 263 q 655 237 681 263 q 590 155 630 212 l 645 155 q 729 177 704 155 q 754 226 754 198 q 740 253 754 243 q 708 263 727 263 z "},"Þ":{"ha":892,"x_min":85,"x_max":792,"o":"m 85 1010 l 280 1010 l 280 820 l 431 820 q 628 780 547 820 q 750 671 709 740 q 792 515 792 602 q 750 359 792 428 q 628 250 709 290 q 431 210 547 210 l 280 210 l 280 0 l 85 0 l 85 1010 m 431 666 l 280 666 l 280 364 l 431 364 q 564 407 522 364 q 606 513 606 449 q 564 622 606 578 q 431 666 522 666 z "},"Γ":{"ha":892,"x_min":122,"x_max":766,"o":"m 766 1010 l 766 846 l 317 846 l 317 0 l 122 0 l 122 1010 l 766 1010 z "},"Δ":{"ha":1104,"x_min":59,"x_max":1047,"o":"m 59 0 l 454 1010 l 658 1010 l 1047 0 l 59 0 m 325 160 l 782 160 l 555 781 l 325 160 z "},"Θ":{"ha":1022,"x_min":67,"x_max":956,"o":"m 956 504 q 898 224 956 340 q 739 47 839 109 q 512 -14 639 -14 q 285 47 386 -14 q 125 224 183 109 q 67 504 67 340 q 125 784 67 668 q 285 962 183 901 q 512 1024 386 1024 q 739 962 639 1024 q 898 784 839 901 q 956 504 956 668 m 761 504 q 690 765 761 682 q 512 848 620 848 q 384 811 441 848 q 294 699 327 775 q 261 504 261 622 q 294 309 261 385 q 384 198 327 234 q 512 162 441 162 q 690 244 620 162 q 761 504 761 325 m 645 583 l 645 429 l 380 429 l 380 583 l 645 583 z "},"Ξ":{"ha":852,"x_min":93,"x_max":759,"o":"m 108 835 l 108 995 l 731 995 l 731 835 l 108 835 m 171 424 l 171 578 l 682 578 l 682 424 l 171 424 m 93 0 l 93 159 l 759 159 l 759 0 l 93 0 z "},"Π":{"ha":1018,"x_min":109,"x_max":909,"o":"m 909 1010 l 909 0 l 715 0 l 715 849 l 303 849 l 303 0 l 109 0 l 109 1010 l 909 1010 z "},"Σ":{"ha":892,"x_min":96,"x_max":796,"o":"m 607 507 l 607 496 l 368 164 l 796 164 l 796 0 l 96 0 l 96 104 l 396 501 l 96 899 l 96 1003 l 779 1003 l 779 838 l 368 838 l 607 507 z "},"Φ":{"ha":1104,"x_min":66,"x_max":1038,"o":"m 653 988 l 653 872 q 854 820 767 869 q 989 688 941 772 q 1038 489 1038 603 q 990 295 1038 378 q 854 165 942 212 q 653 113 767 117 l 653 0 l 455 0 l 455 113 q 251 164 338 117 q 115 293 164 211 q 66 487 66 376 q 115 686 66 601 q 252 820 164 772 q 455 872 339 869 l 455 988 l 653 988 m 843 489 q 792 642 843 589 q 653 701 741 696 l 653 285 q 793 342 742 290 q 843 489 843 394 m 262 487 q 314 341 262 392 q 455 285 365 290 l 455 701 q 314 641 365 696 q 262 487 262 587 z "},"Ψ":{"ha":1104,"x_min":88,"x_max":1017,"o":"m 655 988 l 655 427 q 817 671 817 456 l 817 988 l 1017 988 l 1017 671 q 918 385 1017 490 q 655 264 819 281 l 655 0 l 456 0 l 456 263 q 189 382 289 278 q 88 671 88 487 l 88 988 l 288 988 l 288 671 q 332 503 288 564 q 456 427 376 443 l 456 988 l 655 988 z "},"Ω":{"ha":892,"x_min":56,"x_max":837,"o":"m 67 0 l 67 162 l 214 162 q 100 320 145 225 q 56 524 56 414 l 56 583 q 105 800 56 706 q 242 947 154 894 q 446 1001 329 1001 q 650 947 562 1001 q 788 800 738 894 q 837 583 837 706 l 837 524 q 793 319 837 413 q 680 162 749 225 l 825 162 l 825 0 l 484 0 l 484 166 q 580 274 543 189 q 617 524 617 358 l 617 585 q 571 774 617 710 q 446 838 525 838 q 322 774 368 838 q 276 585 276 710 l 276 524 q 314 272 276 356 q 412 166 352 188 l 412 0 l 67 0 z "},"Ɣ":{"ha":978,"x_min":46,"x_max":932,"o":"m 46 995 l 267 995 l 489 461 l 711 995 l 932 995 l 584 235 q 679 23 637 113 q 721 -110 721 -68 q 690 -216 721 -175 q 606 -276 658 -257 q 489 -296 553 -296 q 371 -276 424 -296 q 285 -216 317 -257 q 253 -110 253 -175 q 297 23 253 -68 q 395 237 341 113 l 46 995 m 447 -105 q 457 -140 447 -125 q 489 -154 466 -154 q 522 -139 512 -154 q 531 -105 531 -124 q 521 -50 531 -81 q 490 29 511 -20 q 458 -50 469 -19 q 447 -105 447 -81 z "},"Б":{"ha":892,"x_min":68,"x_max":808,"o":"m 712 1010 l 712 846 l 263 846 l 263 627 l 436 627 q 635 589 551 627 q 763 481 718 551 q 808 318 808 412 q 763 152 808 224 q 635 40 718 81 q 436 0 551 0 l 68 0 l 68 1010 l 712 1010 m 263 159 l 436 159 q 569 207 523 159 q 615 320 615 255 q 569 426 615 383 q 436 470 523 470 l 263 470 l 263 159 z "},"Ґ":{"ha":892,"x_min":117,"x_max":765,"o":"m 765 1251 l 765 846 l 312 846 l 312 0 l 117 0 l 117 1010 l 572 1010 l 572 1251 l 765 1251 z "},"Ӻ":{"ha":892,"x_min":37,"x_max":849,"o":"m 509 576 l 509 458 l 399 458 l 399 0 l 205 0 l 205 458 l 37 458 l 37 576 l 205 576 l 205 1010 l 849 1010 l 849 846 l 399 846 l 399 576 l 509 576 m 443 171 l 629 171 l 629 -26 q 562 -225 629 -154 q 376 -296 496 -296 q 328 -294 350 -296 q 281 -286 306 -292 l 291 -133 q 322 -139 305 -137 q 358 -141 339 -141 q 420 -112 397 -141 q 443 -26 443 -82 l 443 171 z "},"Д":{"ha":1145,"x_min":72,"x_max":1073,"o":"m 314 988 l 956 988 l 956 161 l 1073 161 l 1058 -243 l 874 -243 l 874 0 l 271 0 l 271 -243 l 82 -243 l 72 161 l 147 161 q 202 228 173 182 q 254 357 231 273 q 287 582 277 442 l 314 988 m 486 582 q 447 326 476 427 q 376 161 417 225 l 757 161 l 757 826 l 503 826 l 486 582 z "},"Ж":{"ha":1483,"x_min":60,"x_max":1424,"o":"m 1175 0 l 962 406 l 845 406 l 845 0 l 646 0 l 646 406 l 527 406 l 308 0 l 60 0 l 369 530 l 75 988 l 323 988 l 544 588 l 646 588 l 646 988 l 845 988 l 845 588 l 945 588 l 1161 988 l 1409 988 l 1120 532 l 1424 0 l 1175 0 z "},"Җ":{"ha":1569,"x_min":87,"x_max":1504,"o":"m 1202 0 l 989 406 l 872 406 l 872 0 l 673 0 l 673 406 l 554 406 l 335 0 l 87 0 l 397 530 l 102 988 l 350 988 l 571 588 l 673 588 l 673 988 l 872 988 l 872 588 l 972 588 l 1188 988 l 1436 988 l 1147 532 l 1372 138 l 1504 138 l 1504 -243 l 1318 -243 l 1318 0 l 1202 0 z "},"З":{"ha":892,"x_min":73,"x_max":819,"o":"m 451 426 l 331 426 l 331 582 l 451 582 q 568 619 533 582 q 604 717 604 655 q 565 803 604 766 q 441 839 525 839 q 331 808 375 839 q 287 721 287 776 l 87 721 q 136 871 87 809 q 265 967 184 934 q 441 1001 345 1001 q 705 929 606 1001 q 804 720 804 858 q 763 596 804 652 q 651 508 723 540 q 776 421 732 479 q 819 276 819 363 q 770 120 819 184 q 636 20 722 55 q 441 -14 550 -14 q 308 3 373 -14 q 189 55 243 20 q 105 144 136 90 q 73 274 73 199 l 273 274 q 320 184 273 221 q 441 147 366 147 q 573 185 526 147 q 620 280 620 223 q 577 392 620 359 q 451 426 534 426 z "},"К":{"ha":974,"x_min":87,"x_max":947,"o":"m 677 0 l 354 437 l 282 437 l 282 0 l 87 0 l 87 1010 l 282 1010 l 282 600 l 331 600 l 697 1010 l 947 1010 l 522 535 l 920 0 l 677 0 z "},"Ҝ":{"ha":978,"x_min":67,"x_max":909,"o":"m 322 761 l 436 761 l 436 587 l 462 587 l 646 988 l 884 988 l 626 530 l 909 0 l 667 0 l 475 404 l 436 404 l 436 249 l 322 249 l 322 404 l 261 404 l 261 0 l 67 0 l 67 988 l 261 988 l 261 587 l 322 587 l 322 761 z "},"Ӄ":{"ha":978,"x_min":95,"x_max":881,"o":"m 295 988 l 295 590 l 365 590 l 613 988 l 860 988 l 560 559 q 794 440 707 538 q 881 166 881 343 q 861 23 881 94 q 799 -107 842 -48 q 685 -200 756 -165 q 510 -235 614 -235 l 510 -82 q 602 -58 568 -82 q 653 3 636 -34 q 676 81 670 40 q 681 157 681 122 q 627 343 682 282 q 471 404 572 404 l 295 404 l 295 0 l 95 0 l 95 988 l 295 988 z "},"Л":{"ha":1018,"x_min":78,"x_max":940,"o":"m 282 988 l 940 988 l 940 0 l 740 0 l 740 826 l 473 826 l 456 490 q 412 199 447 306 q 308 46 376 92 q 129 0 239 0 l 78 0 l 78 161 l 107 163 q 195 207 162 169 q 244 328 228 245 q 265 554 260 411 l 282 988 z "},"Ӆ":{"ha":1145,"x_min":106,"x_max":1097,"o":"m 309 988 l 968 988 l 968 125 l 1097 125 l 1097 -2 q 1062 -154 1097 -80 q 976 -281 1028 -228 l 869 -237 q 914 -136 892 -187 q 936 -12 936 -85 l 936 0 l 768 0 l 768 826 l 501 826 l 484 490 q 439 199 475 306 q 335 46 404 92 q 157 0 266 0 l 106 0 l 106 161 l 134 163 q 222 207 189 169 q 272 328 255 245 q 293 554 288 411 l 309 988 z "},"Ѳ":{"ha":1022,"x_min":67,"x_max":956,"o":"m 956 504 q 898 224 956 340 q 739 47 839 109 q 512 -14 639 -14 q 285 47 386 -14 q 125 224 183 109 q 67 504 67 340 q 125 784 67 668 q 285 962 183 901 q 512 1024 386 1024 q 739 962 639 1024 q 898 784 839 901 q 956 504 956 668 m 512 848 q 350 784 418 848 q 266 583 282 720 q 381 596 331 597 q 471 588 430 596 q 553 571 512 580 q 643 559 594 562 q 759 567 692 556 q 678 780 745 712 q 512 848 610 848 m 512 162 q 675 226 608 162 q 757 429 742 290 q 642 415 691 414 q 552 423 593 415 q 470 440 511 431 q 379 452 428 449 q 264 445 330 455 q 345 230 276 297 q 512 162 414 162 z "},"Џ":{"ha":1018,"x_min":109,"x_max":910,"o":"m 109 0 l 109 988 l 309 988 l 309 161 l 710 161 l 710 988 l 910 988 l 910 0 l 618 0 l 618 -245 l 419 -245 l 419 0 l 109 0 z "},"У":{"ha":892,"x_min":29,"x_max":863,"o":"m 245 988 l 465 514 l 647 988 l 863 988 l 526 192 q 470 90 502 137 q 387 15 438 43 q 256 -14 336 -14 q 219 -13 241 -14 q 185 -12 198 -13 l 184 149 q 211 147 192 148 q 238 147 230 147 q 320 172 297 147 q 359 241 344 197 l 375 283 l 29 988 l 245 988 z "},"Ф":{"ha":1170,"x_min":68,"x_max":1102,"o":"m 476 899 l 489 899 l 489 1028 l 682 1028 l 682 899 l 694 899 q 903 848 811 899 q 1049 705 996 798 q 1102 489 1102 613 q 1049 277 1102 368 q 903 137 996 187 q 694 87 811 87 l 682 87 l 682 -41 l 489 -41 l 489 87 l 476 87 q 267 136 359 87 q 121 276 175 186 q 68 488 68 366 q 122 705 68 613 q 267 848 175 797 q 476 899 360 899 m 476 734 q 316 672 376 734 q 256 488 256 609 q 317 312 256 372 q 476 252 378 252 l 489 252 l 489 734 l 476 734 m 695 734 l 682 734 l 682 252 l 695 252 q 854 313 794 252 q 913 489 913 374 q 854 672 913 610 q 695 734 794 734 z "},"Ц":{"ha":1145,"x_min":107,"x_max":1039,"o":"m 107 0 l 107 988 l 306 988 l 306 161 l 706 161 l 706 988 l 907 988 l 907 161 l 1039 161 l 1026 -239 l 839 -239 l 839 0 l 107 0 z "},"Ҵ":{"ha":1271,"x_min":46,"x_max":1223,"o":"m 291 0 l 291 833 l 46 833 l 46 988 l 697 988 l 697 833 l 491 833 l 491 161 l 891 161 l 891 988 l 1092 988 l 1092 161 l 1223 161 l 1211 -239 l 1024 -239 l 1024 0 l 291 0 z "},"Ч":{"ha":1018,"x_min":120,"x_max":900,"o":"m 120 988 l 320 988 l 320 682 q 364 552 320 586 q 501 517 409 517 q 598 523 541 517 q 700 538 654 528 l 700 988 l 900 988 l 900 0 l 700 0 l 700 377 q 599 362 654 367 q 501 356 543 356 q 223 434 326 356 q 120 682 120 511 l 120 988 z "},"Ҷ":{"ha":1145,"x_min":119,"x_max":1030,"o":"m 119 988 l 318 988 l 318 682 q 363 552 318 586 q 500 517 408 517 q 596 523 540 517 q 699 538 653 528 l 699 988 l 898 988 l 898 138 l 1030 138 l 1030 -243 l 844 -243 l 844 0 l 699 0 l 699 377 q 597 362 653 367 q 500 356 542 356 q 222 434 325 356 q 119 682 119 511 l 119 988 z "},"Ҹ":{"ha":933,"x_min":73,"x_max":853,"o":"m 507 716 l 507 519 q 581 526 542 521 q 654 538 620 531 l 654 988 l 853 988 l 853 0 l 654 0 l 654 377 q 581 365 620 370 q 507 358 543 360 l 507 202 l 394 202 l 394 359 q 160 448 246 370 q 73 682 73 526 l 73 988 l 273 988 l 273 682 q 303 567 273 603 q 394 521 333 531 l 394 716 l 507 716 z "},"Һ":{"ha":1018,"x_min":120,"x_max":900,"o":"m 319 0 l 120 0 l 120 988 l 319 988 l 319 611 q 420 626 364 620 q 517 632 475 632 q 796 554 692 632 q 900 305 900 475 l 900 0 l 700 0 l 700 305 q 654 436 700 402 q 517 471 609 471 q 422 465 478 471 q 319 450 365 460 l 319 0 z "},"Ћ":{"ha":1059,"x_min":45,"x_max":1015,"o":"m 1015 0 l 816 0 l 816 306 q 770 437 816 402 q 634 471 725 471 q 562 468 603 471 q 480 458 520 464 l 480 0 l 282 0 l 282 826 l 45 826 l 45 988 l 801 988 l 801 826 l 480 826 l 480 619 q 560 628 519 625 q 634 631 601 631 q 911 554 808 631 q 1015 306 1015 476 l 1015 0 z "},"Ш":{"ha":1357,"x_min":103,"x_max":1255,"o":"m 103 988 l 304 988 l 304 161 l 581 161 l 581 988 l 780 988 l 780 161 l 1055 161 l 1055 988 l 1255 988 l 1255 0 l 103 0 l 103 988 z "},"Щ":{"ha":1483,"x_min":109,"x_max":1381,"o":"m 109 988 l 310 988 l 310 161 l 587 161 l 587 988 l 786 988 l 786 161 l 1060 161 l 1060 988 l 1260 988 l 1260 154 l 1381 154 l 1368 -237 l 1190 -237 l 1190 0 l 109 0 l 109 988 z "},"Ъ":{"ha":1116,"x_min":49,"x_max":1043,"o":"m 49 855 l 49 1010 l 498 1010 l 498 627 l 671 627 q 870 589 787 627 q 998 481 953 551 q 1043 318 1043 412 q 998 152 1043 224 q 870 40 953 81 q 671 0 787 0 l 303 0 l 303 855 l 49 855 m 498 159 l 671 159 q 804 207 758 159 q 850 320 850 255 q 804 426 850 383 q 671 470 758 470 l 498 470 l 498 159 z "},"Ы":{"ha":1237,"x_min":107,"x_max":1122,"o":"m 846 318 q 801 152 846 224 q 673 40 757 81 q 474 0 590 0 l 107 0 l 107 1010 l 301 1010 l 301 627 l 474 627 q 673 589 590 627 q 801 481 757 551 q 846 318 846 412 m 1122 1010 l 1122 0 l 927 0 l 927 1010 l 1122 1010 m 301 159 l 474 159 q 607 207 561 159 q 654 320 654 255 q 607 426 654 383 q 474 470 561 470 l 301 470 l 301 159 z "},"Ь":{"ha":894,"x_min":80,"x_max":820,"o":"m 820 318 q 775 152 820 224 q 647 40 730 81 q 448 0 563 0 l 80 0 l 80 1010 l 275 1010 l 275 627 l 448 627 q 647 589 563 627 q 775 481 730 551 q 820 318 820 412 m 275 159 l 448 159 q 581 207 535 159 q 627 320 627 255 q 581 426 627 383 q 448 470 535 470 l 275 470 l 275 159 z "},"Љ":{"ha":1522,"x_min":54,"x_max":1455,"o":"m 256 995 l 915 995 l 915 650 l 1084 650 q 1282 608 1199 650 q 1410 492 1365 566 q 1455 326 1455 419 q 1410 158 1455 231 q 1282 42 1365 84 q 1084 0 1199 0 l 716 0 l 716 833 l 448 833 l 432 490 q 388 199 423 306 q 283 46 352 92 q 104 0 214 0 l 54 0 l 54 161 l 81 163 q 170 207 137 169 q 219 328 203 245 q 240 554 235 411 l 256 995 m 915 161 l 1084 161 q 1214 211 1171 161 q 1256 326 1256 261 q 1214 439 1256 389 q 1084 489 1171 489 l 915 489 l 915 161 z "},"Њ":{"ha":1519,"x_min":96,"x_max":1434,"o":"m 296 995 l 296 571 l 695 571 l 695 995 l 894 995 l 894 641 l 1062 641 q 1261 600 1178 641 q 1389 486 1344 558 q 1434 322 1434 414 q 1389 156 1434 229 q 1261 42 1344 83 q 1062 0 1178 0 l 695 0 l 695 410 l 296 410 l 296 0 l 96 0 l 96 995 l 296 995 m 894 162 l 1062 162 q 1192 210 1150 162 q 1235 324 1235 259 q 1192 433 1235 386 q 1062 481 1150 481 l 894 481 l 894 162 z "},"Э":{"ha":998,"x_min":96,"x_max":899,"o":"m 98 327 l 292 327 q 347 191 299 237 q 493 145 396 145 q 646 214 595 145 q 705 414 697 284 l 383 414 l 383 573 l 704 573 q 641 774 696 707 q 491 841 586 841 q 344 792 388 841 q 291 653 299 744 l 96 653 q 153 833 106 754 q 284 957 199 911 q 491 1002 368 1002 q 707 944 616 1002 q 849 779 799 885 q 899 526 899 672 l 899 459 q 850 208 899 314 q 710 44 801 102 q 493 -14 619 -14 q 286 30 372 -14 q 153 151 201 73 q 98 327 105 228 z "},"Ю":{"ha":1386,"x_min":87,"x_max":1319,"o":"m 282 1010 l 282 575 l 433 575 q 507 818 446 717 q 663 971 567 918 q 876 1024 759 1024 q 1103 962 1002 1024 q 1261 784 1203 901 q 1319 504 1319 668 q 1261 224 1319 340 q 1103 47 1203 109 q 876 -14 1002 -14 q 663 38 759 -14 q 508 190 568 91 q 434 430 447 289 l 282 430 l 282 0 l 87 0 l 87 1010 l 282 1010 m 1125 504 q 1054 765 1125 682 q 876 848 983 848 q 748 811 804 848 q 658 699 691 775 q 625 504 625 622 q 658 309 625 385 q 748 198 691 234 q 876 162 804 162 q 1054 244 983 162 q 1125 504 1125 325 z "},"Я":{"ha":806,"x_min":20,"x_max":785,"o":"m 585 0 l 585 359 l 417 359 l 237 0 l 20 0 l 234 421 q 119 527 158 462 q 79 684 79 592 q 177 911 79 834 q 442 988 275 988 l 785 988 l 785 0 l 585 0 m 442 510 l 585 510 l 585 826 l 442 826 q 317 785 358 826 q 277 669 277 744 q 319 548 277 587 q 442 510 361 510 z "},"Ҕ":{"ha":873,"x_min":58,"x_max":812,"o":"m 702 1010 l 702 846 l 252 846 l 252 566 l 403 566 q 618 524 527 566 q 761 394 710 481 q 812 170 812 306 q 792 25 812 97 q 730 -104 773 -46 q 617 -196 687 -161 q 446 -230 547 -230 l 446 -83 q 538 -59 503 -83 q 592 2 573 -36 q 618 82 611 39 q 625 160 625 124 q 567 351 625 291 q 403 411 509 411 l 252 411 l 252 0 l 58 0 l 58 1010 l 702 1010 z "},"Ҧ":{"ha":1524,"x_min":77,"x_max":1447,"o":"m 876 1010 l 876 565 l 1038 565 q 1253 522 1161 565 q 1396 392 1345 480 q 1447 168 1447 304 q 1427 24 1447 95 q 1364 -105 1408 -47 q 1252 -197 1321 -163 q 1081 -232 1182 -232 l 1081 -85 q 1173 -61 1137 -85 q 1227 0 1208 -37 q 1253 80 1246 38 q 1260 159 1260 122 q 1202 349 1260 289 q 1038 409 1144 409 l 876 409 l 876 0 l 683 0 l 683 849 l 270 849 l 270 0 l 77 0 l 77 1010 l 876 1010 z "},"Є":{"ha":927,"x_min":63,"x_max":866,"o":"m 667 327 l 866 327 q 811 151 859 228 q 678 30 763 73 q 471 -14 592 -14 q 253 44 344 -14 q 112 208 162 102 q 63 459 63 314 l 63 526 q 114 779 63 672 q 257 944 164 885 q 474 1002 349 1002 q 680 957 596 1002 q 811 833 764 911 q 866 653 857 754 l 669 653 q 618 791 661 742 q 474 839 575 839 q 264 576 280 839 l 573 576 l 573 415 l 264 415 q 319 215 270 284 q 471 145 368 145 q 614 192 568 145 q 667 327 659 239 z "},"Ҩ":{"ha":1145,"x_min":81,"x_max":1063,"o":"m 1063 145 l 1063 -10 q 916 2 986 -10 q 786 36 847 14 q 676 -1 735 12 q 552 -14 618 -14 q 305 47 411 -14 q 140 213 199 109 q 81 448 81 318 l 81 590 q 126 800 81 706 q 249 948 170 893 q 434 1002 328 1002 l 434 834 q 329 764 366 834 q 292 591 292 695 l 292 448 q 323 296 292 363 q 412 192 354 230 q 552 153 471 153 q 595 156 574 153 q 491 308 528 221 q 455 496 455 394 l 455 629 q 491 819 455 734 q 593 952 527 903 q 745 1002 658 1002 q 908 950 838 1002 q 1017 807 978 898 q 1056 597 1056 715 l 1056 480 q 1027 303 1056 386 q 943 156 997 220 q 1063 145 999 145 m 644 496 q 674 349 644 416 q 764 235 705 283 q 856 480 856 327 l 856 619 q 827 787 856 740 q 745 834 799 834 q 671 787 697 834 q 644 631 644 739 l 644 496 z "},"Ҽ":{"ha":1145,"x_min":71,"x_max":1075,"o":"m 71 734 l 205 734 q 226 641 205 679 q 289 589 247 604 q 343 802 290 709 q 488 948 397 896 q 691 1000 579 1001 q 902 943 817 1000 q 1031 781 987 886 q 1075 536 1075 677 l 1075 429 l 489 429 l 489 412 q 513 285 489 342 q 591 192 537 227 q 738 158 646 158 q 886 173 824 158 q 986 202 948 188 l 1018 38 q 925 5 997 27 q 738 -16 853 -16 q 490 39 590 -16 q 340 190 390 94 q 289 412 289 287 l 289 444 q 127 537 183 461 q 71 734 71 614 m 691 827 q 580 794 624 827 q 512 707 535 762 q 489 588 489 653 l 875 588 l 875 610 q 857 720 875 671 q 799 798 839 769 q 691 827 759 827 z "},"Ә":{"ha":1018,"x_min":86,"x_max":933,"o":"m 456 1002 q 720 943 614 1002 q 879 780 826 884 q 933 541 933 676 l 933 443 q 877 205 933 309 q 725 43 821 102 q 510 -14 629 -15 q 277 43 371 -14 q 134 204 182 100 q 86 449 86 308 l 86 558 l 733 558 q 703 694 730 633 q 615 791 675 755 q 456 827 555 827 q 300 812 365 827 q 195 785 235 798 l 162 948 q 259 981 183 959 q 456 1002 335 1002 m 510 160 q 665 228 609 160 q 731 397 721 295 l 285 397 l 285 376 q 307 267 285 316 q 378 189 328 218 q 510 160 427 160 z "},"Ӡ":{"ha":852,"x_min":73,"x_max":778,"o":"m 116 988 l 758 988 l 760 855 l 515 589 q 710 488 642 568 q 778 276 778 408 q 732 120 778 184 q 604 20 686 55 q 418 -14 523 -14 q 293 3 354 -14 q 182 55 232 20 q 103 144 132 90 q 73 274 73 199 l 273 274 q 312 184 273 221 q 418 147 352 147 q 537 185 494 147 q 581 280 581 223 q 532 421 581 378 q 391 464 483 464 l 299 464 l 299 589 l 531 826 l 116 826 l 116 988 z "},"Ѵ":{"ha":978,"x_min":57,"x_max":921,"o":"m 504 266 l 646 764 q 739 939 682 878 q 895 1000 796 1000 l 921 999 l 920 833 l 901 833 q 851 810 871 833 q 819 753 830 788 l 593 0 l 387 0 l 57 988 l 268 988 l 476 268 l 490 204 l 504 266 z "},"Ђ":{"ha":1145,"x_min":83,"x_max":1062,"o":"m 853 988 l 853 826 l 531 826 l 531 586 q 615 601 572 595 q 698 607 658 607 q 889 574 807 607 q 1017 472 971 540 q 1062 300 1062 403 q 1043 186 1062 242 q 980 86 1023 131 q 865 15 937 41 q 689 -12 793 -12 l 688 140 q 803 164 765 140 q 852 223 840 188 q 864 290 863 258 q 818 403 864 361 q 689 445 773 445 q 605 441 643 445 q 531 429 568 436 l 531 0 l 331 0 l 331 826 l 83 826 l 83 988 l 853 988 z "},"ð":{"ha":773,"x_min":55,"x_max":718,"o":"m 386 -16 q 210 31 285 -16 q 95 160 136 78 q 55 347 55 242 q 91 527 55 451 q 184 649 127 604 q 307 703 242 694 q 413 691 363 710 q 491 634 463 672 l 501 634 q 446 724 476 682 q 374 808 416 767 l 206 721 l 154 821 l 280 886 q 175 951 233 919 l 260 1073 q 344 1024 302 1052 q 427 962 387 996 l 564 1032 l 616 933 l 513 879 q 659 656 601 784 q 718 371 718 528 q 676 162 718 249 q 560 30 635 75 q 386 -16 486 -16 m 393 137 q 508 191 467 137 q 549 346 549 245 q 509 503 549 445 q 393 560 469 560 q 279 506 320 560 q 238 349 238 451 q 278 193 238 249 q 393 137 317 137 z "},"þ":{"ha":825,"x_min":82,"x_max":770,"o":"m 82 1010 l 274 1010 l 274 664 l 283 664 q 347 735 302 703 q 468 767 392 767 q 619 724 550 767 q 729 593 688 680 q 770 378 770 506 q 730 164 770 252 q 621 32 690 77 q 469 -13 553 -13 q 347 18 393 -13 q 283 90 302 50 l 274 90 l 274 -284 l 82 -284 l 82 1010 m 588 379 q 545 548 588 484 q 418 612 503 612 q 293 545 330 612 q 256 379 256 479 q 272 259 256 313 q 324 174 288 205 q 418 143 359 143 q 545 208 502 143 q 588 379 588 273 z "},"α":{"ha":810,"x_min":55,"x_max":783,"o":"m 55 354 l 55 368 q 88 572 55 483 q 185 711 121 661 q 342 761 249 761 q 449 732 404 761 q 525 652 494 703 l 537 750 l 702 750 l 702 229 q 715 157 702 177 q 751 138 728 138 q 766 140 763 138 l 783 3 q 741 -11 761 -8 q 698 -14 721 -14 q 536 108 576 -14 q 456 19 504 51 q 341 -14 408 -14 q 185 34 249 -14 q 88 164 121 81 q 55 354 55 247 m 242 368 l 242 354 q 276 204 242 263 q 389 145 311 145 q 470 167 438 145 q 517 226 501 189 l 518 510 q 471 579 502 553 q 391 604 440 604 q 306 572 339 604 q 257 487 273 541 q 242 368 242 433 z "},"β":{"ha":823,"x_min":82,"x_max":768,"o":"m 430 451 l 362 451 l 362 594 l 408 594 q 486 615 456 594 q 528 665 515 635 q 541 727 541 695 q 505 819 541 783 q 410 855 469 855 q 310 817 350 855 q 270 710 270 779 l 270 309 q 312 199 270 245 q 428 152 354 152 q 541 197 499 152 q 583 303 583 241 q 539 410 583 369 q 430 451 495 451 m 410 1024 q 569 990 497 1024 q 684 894 641 955 q 727 754 727 834 q 702 639 727 696 q 631 541 678 582 q 734 434 699 501 q 768 289 768 366 q 728 133 768 201 q 619 27 688 66 q 466 -11 550 -11 q 368 4 417 -11 q 277 61 319 20 l 270 58 l 270 -284 l 82 -284 l 82 721 q 126 881 82 813 q 244 986 170 949 q 410 1024 319 1024 z "},"γ":{"ha":766,"x_min":41,"x_max":725,"o":"m 242 750 l 386 232 l 525 750 l 725 750 l 479 12 l 479 -282 l 288 -282 l 288 18 l 41 750 l 242 750 z "},"δ":{"ha":852,"x_min":79,"x_max":773,"o":"m 162 849 q 236 1009 162 952 q 439 1067 310 1067 q 531 1058 493 1067 q 618 1035 569 1050 l 618 887 q 547 908 591 896 q 456 919 504 919 q 376 901 405 919 q 346 853 346 883 q 366 808 346 833 q 457 758 386 783 q 693 608 614 704 q 773 368 773 512 l 773 355 q 732 167 773 251 q 614 35 691 83 q 428 -14 537 -14 q 239 34 317 -14 q 120 162 161 81 q 79 345 79 244 l 79 359 q 109 500 79 436 q 187 606 138 563 q 292 663 235 649 l 291 667 q 198 742 234 696 q 162 849 162 787 m 271 376 l 271 364 q 287 252 271 303 q 339 171 304 201 q 428 140 373 140 q 515 171 481 140 q 565 252 549 201 q 581 364 581 303 l 581 376 q 563 470 581 424 q 510 551 544 517 q 428 595 475 585 q 339 564 374 595 q 288 484 305 534 q 271 376 271 435 z "},"ε":{"ha":852,"x_min":97,"x_max":755,"o":"m 426 440 l 553 440 l 553 311 l 426 311 q 325 291 362 311 q 288 222 288 270 q 322 160 288 187 q 425 132 357 132 q 529 157 493 132 q 565 218 565 182 l 755 218 q 708 86 755 137 q 587 11 660 35 q 435 -14 514 -14 q 262 13 339 -14 q 141 89 185 39 q 97 207 97 138 q 133 313 97 270 q 236 378 169 357 q 143 443 177 402 q 109 533 109 483 q 150 651 109 603 q 265 723 192 698 q 435 748 339 748 q 590 721 519 748 q 702 643 660 693 q 745 523 745 593 l 553 523 q 516 581 553 560 q 426 602 479 602 q 331 576 361 602 q 301 519 301 549 q 332 462 301 483 q 426 440 363 440 z "},"ζ":{"ha":766,"x_min":81,"x_max":685,"o":"m 81 988 l 685 988 l 685 877 l 442 588 q 365 490 397 536 q 318 397 334 445 q 302 287 302 348 q 330 198 302 224 q 410 156 358 171 l 468 140 q 570 104 525 123 q 639 52 614 84 q 663 -36 664 20 q 639 -118 663 -74 q 580 -201 616 -162 q 509 -264 545 -240 l 411 -188 q 458 -126 443 -155 q 473 -75 473 -96 q 456 -36 473 -52 q 395 -9 439 -20 l 344 6 q 167 98 222 38 q 111 259 111 158 q 159 465 111 369 q 296 667 206 560 l 438 835 l 81 835 l 81 988 z "},"η":{"ha":811,"x_min":81,"x_max":730,"o":"m 273 417 l 273 0 l 81 0 l 81 758 l 260 758 l 260 661 l 268 661 q 353 738 299 708 q 478 767 406 767 q 602 738 545 767 q 695 645 659 709 q 730 476 730 581 l 730 -284 l 539 -284 l 539 468 q 502 573 539 536 q 412 610 466 610 q 310 557 347 610 q 273 417 273 505 z "},"θ":{"ha":852,"x_min":93,"x_max":758,"o":"m 758 584 l 758 421 q 667 92 758 197 q 428 -14 576 -14 q 253 33 328 -14 q 135 176 178 79 q 93 421 93 272 l 93 584 q 135 828 93 732 q 252 970 177 924 q 426 1017 327 1017 q 666 911 574 1017 q 758 584 758 805 m 280 612 l 280 576 l 572 576 l 572 612 q 532 801 572 742 q 426 860 493 860 q 319 801 359 860 q 280 612 280 742 m 572 395 l 572 427 l 280 427 l 280 395 q 320 202 280 261 q 428 143 361 143 q 533 202 494 143 q 572 395 572 261 z "},"ι":{"ha":472,"x_min":92,"x_max":413,"o":"m 92 734 l 278 734 l 277 228 q 297 165 277 181 q 356 150 318 150 q 388 152 373 150 q 413 156 402 154 l 413 9 q 360 -3 389 2 q 295 -8 331 -8 q 146 41 201 -8 q 92 208 92 91 l 92 734 z "},"λ":{"ha":892,"x_min":72,"x_max":820,"o":"m 259 1047 q 377 1017 333 1047 q 442 931 421 986 l 725 216 q 754 166 738 187 q 797 145 769 145 l 819 145 l 820 -8 q 748 -13 795 -13 q 620 25 666 -13 q 547 138 575 63 l 431 455 l 280 0 l 72 0 l 332 716 l 283 832 q 248 878 269 865 q 195 892 227 892 q 178 891 187 892 q 157 890 168 891 l 153 1034 q 204 1044 173 1040 q 259 1047 235 1047 z "},"ξ":{"ha":766,"x_min":73,"x_max":694,"o":"m 656 968 l 627 818 q 545 838 576 832 q 473 844 514 844 q 359 817 395 844 q 322 746 322 789 q 359 672 322 701 q 481 642 396 642 l 582 642 l 582 483 l 486 483 q 322 440 378 483 q 265 311 265 397 q 314 203 265 239 q 430 151 363 167 l 498 135 q 641 77 588 113 q 693 -39 694 41 q 669 -122 692 -79 q 610 -204 645 -165 q 539 -267 574 -242 l 439 -193 q 503 -77 503 -126 q 485 -40 503 -56 q 426 -11 467 -24 l 383 2 q 252 45 310 24 q 155 98 195 67 q 93 179 114 130 q 73 304 73 228 q 126 466 73 400 q 277 562 180 531 q 169 633 208 587 q 130 743 130 679 q 218 933 130 864 q 455 1002 306 1002 q 566 993 520 1002 q 656 968 611 984 z "},"π":{"ha":978,"x_min":76,"x_max":904,"o":"m 886 758 l 886 612 l 768 612 l 768 228 q 788 165 768 181 q 846 150 808 150 q 878 152 863 150 q 904 156 893 154 l 904 10 q 851 -3 880 2 q 786 -8 821 -8 q 637 41 692 -8 q 581 208 581 91 l 581 612 l 380 612 l 380 0 l 194 0 l 194 612 l 76 612 l 76 758 l 886 758 z "},"ρ":{"ha":793,"x_min":80,"x_max":738,"o":"m 80 -282 l 80 398 q 170 668 80 574 q 410 761 259 761 q 599 708 527 761 q 705 566 672 655 q 738 368 738 476 l 738 354 q 703 161 738 244 q 602 32 668 78 q 445 -14 537 -14 q 340 8 384 -14 q 265 68 296 29 l 266 -282 l 80 -282 m 265 383 l 265 346 q 278 253 266 300 q 320 174 290 206 q 407 142 351 142 q 518 203 485 142 q 551 354 551 264 l 551 368 q 536 485 551 432 q 489 569 521 538 q 404 600 457 600 q 324 570 355 600 q 279 491 293 541 q 265 383 265 442 z "},"ϼ":{"ha":879,"x_min":31,"x_max":825,"o":"m 166 -282 l 166 -190 l 31 -190 l 31 -72 l 166 -72 l 166 398 q 256 668 166 574 q 496 761 346 761 q 686 708 614 761 q 791 566 758 655 q 825 368 825 476 l 825 354 q 789 161 825 244 q 689 32 754 78 q 532 -14 623 -14 q 426 8 470 -14 q 352 68 382 29 l 352 -72 l 503 -72 l 503 -190 l 352 -190 l 352 -282 l 166 -282 m 351 383 l 351 346 q 364 253 352 300 q 407 174 376 206 q 493 142 437 142 q 604 203 571 142 q 637 354 637 264 l 637 368 q 622 485 637 432 q 576 569 608 538 q 491 600 544 600 q 410 570 441 600 q 365 491 380 541 q 351 383 351 442 z "},"ς":{"ha":765,"x_min":64,"x_max":702,"o":"m 402 748 q 619 672 536 748 q 702 463 702 597 l 521 463 q 492 555 521 516 q 402 594 464 594 q 314 563 347 594 q 266 483 281 532 q 251 377 251 433 l 251 357 q 297 221 251 266 q 433 150 344 176 q 543 113 497 131 q 612 63 588 95 q 639 -26 637 32 q 615 -108 638 -65 q 557 -191 592 -152 q 487 -254 522 -230 l 386 -179 q 450 -63 450 -112 q 431 -21 450 -36 q 375 2 412 -6 q 142 126 220 43 q 64 357 64 208 l 64 377 q 103 564 64 480 q 217 698 142 648 q 402 748 292 748 z "},"σ":{"ha":892,"x_min":79,"x_max":812,"o":"m 79 359 l 79 375 q 120 559 79 477 q 236 687 160 640 q 423 734 313 734 l 812 734 l 812 580 l 639 580 q 725 478 691 539 q 760 345 760 417 l 760 331 q 721 158 760 236 q 607 33 682 79 q 425 -14 532 -14 q 237 35 314 -14 q 120 168 160 84 q 79 359 79 253 m 272 375 l 272 359 q 287 249 272 299 q 335 170 301 199 q 425 140 368 140 q 509 170 477 140 q 553 249 540 199 q 567 359 567 299 l 567 375 q 553 477 567 430 q 508 552 539 523 q 423 580 476 580 q 335 552 368 580 q 287 477 302 523 q 272 375 272 430 z "},"τ":{"ha":735,"x_min":38,"x_max":698,"o":"m 698 741 l 698 587 l 453 587 l 453 221 q 471 157 453 172 q 518 142 489 142 q 554 146 540 142 q 583 154 568 150 l 606 11 q 543 -9 572 -4 q 478 -14 514 -14 q 322 44 377 -14 q 266 223 266 101 l 266 587 l 38 587 l 38 741 l 698 741 z "},"υ":{"ha":777,"x_min":88,"x_max":714,"o":"m 88 734 l 274 734 l 274 283 q 303 171 274 202 q 370 140 332 140 q 455 174 419 140 q 510 265 491 209 q 530 385 530 321 q 509 561 529 473 q 458 734 488 650 l 637 734 q 691 582 668 672 q 714 385 714 492 q 679 184 714 274 q 570 40 645 94 q 375 -14 495 -14 q 167 58 246 -14 q 88 285 88 130 l 88 734 z "},"φ":{"ha":1106,"x_min":79,"x_max":1027,"o":"m 459 -321 l 459 -8 q 235 69 318 8 q 115 219 151 130 q 79 408 79 308 q 122 610 79 518 q 233 754 166 701 l 362 652 q 291 540 315 604 q 265 408 266 476 q 308 242 265 313 q 459 149 351 172 l 459 558 q 517 701 459 649 q 661 754 575 754 q 822 722 753 754 q 936 637 890 690 q 1004 517 981 583 q 1027 383 1027 451 q 990 207 1027 291 q 870 64 954 123 q 645 -9 787 6 l 645 -321 l 459 -321 m 645 563 l 645 147 q 798 234 754 168 q 842 383 842 299 q 798 541 840 480 q 682 601 757 601 q 651 589 657 601 q 645 563 645 577 z "},"ψ":{"ha":1104,"x_min":84,"x_max":1020,"o":"m 84 734 l 277 734 l 277 399 q 325 226 277 284 q 449 150 373 169 l 449 734 l 641 734 l 641 149 q 787 242 745 173 q 829 403 829 312 q 806 572 827 488 q 754 734 785 655 l 933 734 q 994 592 968 675 q 1020 403 1020 509 q 984 216 1020 304 q 865 67 948 127 q 641 -9 782 6 l 641 -324 l 449 -324 l 449 -8 q 183 111 282 13 q 84 400 84 210 l 84 734 z "},"ω":{"ha":1231,"x_min":103,"x_max":1129,"o":"m 203 734 l 387 734 q 322 562 347 650 q 294 385 297 475 q 305 266 294 322 q 338 176 315 211 q 403 142 362 142 q 482 184 450 142 q 514 333 514 227 l 514 570 l 717 570 l 717 333 q 749 184 717 227 q 828 142 781 142 q 893 176 869 142 q 927 266 916 211 q 937 385 937 322 q 909 562 934 475 q 843 734 884 650 l 1028 734 q 1099 584 1068 672 q 1129 385 1129 496 q 1102 184 1129 274 q 1010 40 1074 93 q 834 -14 945 -14 q 615 131 682 -14 q 396 -14 548 -14 q 222 40 286 -14 q 130 184 158 93 q 103 385 103 274 q 133 584 103 496 q 203 734 163 672 z "},"ɣ":{"ha":876,"x_min":57,"x_max":821,"o":"m 438 -296 q 320 -277 373 -296 q 235 -218 266 -257 q 203 -119 203 -180 q 249 24 203 -65 l 341 200 l 57 741 l 254 741 l 437 384 l 624 741 l 821 741 l 537 193 l 621 28 q 656 -56 645 -18 q 668 -119 668 -95 q 601 -253 668 -209 q 438 -296 535 -296 m 396 -106 q 406 -142 396 -127 q 438 -157 415 -157 q 471 -142 462 -157 q 479 -106 479 -126 q 470 -58 479 -84 q 441 8 460 -31 q 408 -58 420 -31 q 396 -106 396 -84 z "},"б":{"ha":876,"x_min":99,"x_max":787,"o":"m 478 692 q 646 648 578 692 q 751 527 715 604 q 787 352 787 450 l 787 337 q 747 158 787 237 q 630 32 707 78 q 442 -14 553 -14 q 255 36 332 -14 q 139 170 179 85 q 99 364 99 255 l 99 378 q 99 381 99 380 l 99 404 q 140 698 99 582 q 254 878 181 814 q 429 963 328 942 q 535 998 503 979 q 568 1056 568 1016 l 723 1056 q 697 938 723 983 q 614 864 671 892 q 463 818 557 836 q 332 751 383 801 q 261 606 282 701 q 478 692 352 692 m 442 539 q 321 483 359 539 q 283 352 283 428 l 283 337 q 320 198 283 255 q 442 140 358 140 q 564 198 526 140 q 602 337 602 255 l 602 352 q 564 483 602 428 q 442 539 527 539 z "},"в":{"ha":852,"x_min":101,"x_max":752,"o":"m 453 0 l 101 0 l 101 734 l 406 734 q 632 684 548 734 q 715 530 715 634 q 682 439 715 480 q 585 377 649 399 q 711 314 670 360 q 752 209 752 268 q 674 53 752 106 q 453 0 596 0 m 292 581 l 292 436 l 410 436 q 496 453 470 436 q 523 505 523 471 q 494 563 523 545 q 406 581 465 581 l 292 581 m 560 228 q 536 285 560 263 q 453 306 511 306 l 292 306 l 292 153 l 453 153 q 560 228 560 153 z "},"г":{"ha":640,"x_min":80,"x_max":578,"o":"m 578 734 l 578 580 l 266 580 l 266 0 l 80 0 l 80 734 l 578 734 z "},"ґ":{"ha":724,"x_min":109,"x_max":633,"o":"m 633 947 l 633 580 l 295 580 l 295 0 l 109 0 l 109 734 l 447 734 l 447 947 l 633 947 z "},"ӻ":{"ha":766,"x_min":72,"x_max":700,"o":"m 543 456 l 543 338 l 388 338 l 388 0 l 202 0 l 202 338 l 72 338 l 72 456 l 202 456 l 202 734 l 700 734 l 700 580 l 388 580 l 388 456 l 543 456 m 441 166 l 627 166 l 627 -32 q 561 -231 627 -160 q 375 -301 494 -301 q 327 -299 349 -301 q 280 -291 305 -297 l 290 -138 q 321 -145 304 -143 q 356 -146 338 -146 q 418 -117 395 -146 q 441 -32 441 -88 l 441 166 z "},"д":{"ha":978,"x_min":75,"x_max":903,"o":"m 75 155 l 139 155 q 208 249 183 204 q 243 350 233 294 q 255 489 253 407 l 261 734 l 798 734 l 798 155 l 903 155 l 903 -221 l 711 -221 l 711 0 l 272 0 l 272 -221 l 75 -221 l 75 155 m 447 489 q 422 295 444 377 q 364 155 400 213 l 607 155 l 607 576 l 449 576 l 447 489 z "},"ж":{"ha":1231,"x_min":51,"x_max":1184,"o":"m 948 0 l 799 275 l 710 275 l 710 0 l 519 0 l 519 275 l 432 275 l 282 0 l 51 0 l 284 384 l 54 734 l 291 734 l 446 458 l 519 458 l 519 734 l 710 734 l 710 458 l 784 458 l 939 734 l 1177 734 l 949 387 l 1184 0 l 948 0 z "},"җ":{"ha":1316,"x_min":65,"x_max":1263,"o":"m 962 0 l 813 275 l 724 275 l 724 0 l 533 0 l 533 275 l 445 275 l 296 0 l 65 0 l 297 384 l 68 734 l 305 734 l 460 458 l 533 458 l 533 734 l 724 734 l 724 458 l 798 458 l 953 734 l 1191 734 l 963 387 l 1114 138 l 1263 138 l 1263 -243 l 1077 -243 l 1077 0 l 962 0 z "},"з":{"ha":766,"x_min":73,"x_max":693,"o":"m 388 313 l 280 313 l 280 438 l 388 438 q 466 461 443 438 q 489 519 489 483 q 468 576 489 549 q 388 602 447 602 q 308 581 339 602 q 276 523 276 560 l 85 523 q 125 643 85 593 q 231 721 164 693 q 379 748 298 748 q 598 693 516 748 q 680 533 680 638 q 650 443 680 484 q 566 378 620 402 q 693 207 693 335 q 653 89 693 138 q 542 13 613 39 q 379 -14 471 -14 q 233 11 303 -14 q 118 86 163 35 q 73 218 73 137 l 264 218 q 295 157 264 182 q 388 132 327 132 q 474 160 448 132 q 501 222 501 187 q 473 291 501 270 q 388 313 445 313 z "},"и":{"ha":766,"x_min":66,"x_max":701,"o":"m 258 277 l 509 734 l 701 734 l 701 0 l 509 0 l 509 459 l 258 0 l 66 0 l 66 734 l 258 734 l 258 277 z "},"ҋ":{"ha":978,"x_min":68,"x_max":898,"o":"m 510 1030 l 648 1030 q 585 886 648 942 q 415 830 523 830 q 246 886 309 830 q 183 1030 183 942 l 320 1030 q 342 967 320 994 q 415 940 363 940 q 489 967 467 940 q 510 1030 510 994 m 260 277 l 510 734 l 702 734 l 702 0 l 510 0 l 510 459 l 260 0 l 68 0 l 68 734 l 260 734 l 260 277 m 898 125 l 898 -2 q 863 -154 897 -80 q 776 -281 829 -228 l 669 -237 q 714 -136 692 -187 q 736 -12 736 -85 l 736 125 l 898 125 z "},"к":{"ha":852,"x_min":95,"x_max":787,"o":"m 531 0 l 365 274 l 287 274 l 287 0 l 95 0 l 95 734 l 287 734 l 287 456 l 357 456 l 522 734 l 765 734 l 521 384 l 787 0 l 531 0 z "},"ӄ":{"ha":892,"x_min":111,"x_max":781,"o":"m 304 734 l 304 456 l 362 456 l 540 734 l 781 734 l 547 409 q 712 304 651 379 q 774 108 774 229 q 749 -7 775 54 q 668 -122 724 -69 q 523 -203 612 -175 l 443 -74 q 547 -2 511 -45 q 583 108 582 41 q 529 234 583 194 q 381 274 474 274 l 304 274 l 304 0 l 111 0 l 111 734 l 304 734 z "},"қ":{"ha":978,"x_min":104,"x_max":880,"o":"m 540 0 l 374 274 l 295 274 l 295 0 l 104 0 l 104 734 l 295 734 l 295 456 l 365 456 l 531 734 l 773 734 l 529 384 l 699 138 l 880 138 l 880 -243 l 694 -243 l 694 0 l 540 0 z "},"ҝ":{"ha":892,"x_min":74,"x_max":819,"o":"m 321 585 l 424 585 l 424 456 l 454 456 l 565 734 l 806 734 l 605 385 l 819 0 l 573 0 l 456 274 l 424 274 l 424 158 l 321 158 l 321 274 l 267 274 l 267 0 l 74 0 l 74 734 l 267 734 l 267 456 l 321 456 l 321 585 z "},"ҡ":{"ha":1018,"x_min":28,"x_max":988,"o":"m 732 0 l 567 274 l 487 274 l 487 0 l 296 0 l 296 579 l 28 579 l 28 734 l 487 734 l 487 456 l 558 456 l 723 734 l 966 734 l 722 384 l 988 0 l 732 0 z "},"л":{"ha":766,"x_min":36,"x_max":732,"o":"m 182 734 l 732 734 l 732 0 l 540 0 l 540 580 l 363 580 l 350 364 q 276 82 339 164 q 95 0 213 0 l 37 0 l 36 157 l 60 159 q 140 225 116 165 q 169 422 163 286 l 182 734 z "},"ӆ":{"ha":978,"x_min":70,"x_max":932,"o":"m 216 734 l 766 734 l 766 0 l 574 0 l 574 580 l 397 580 l 384 364 q 310 82 373 164 q 129 0 247 0 l 71 0 l 70 157 l 94 159 q 174 225 150 165 q 203 422 197 286 l 216 734 m 932 125 l 932 -2 q 897 -154 931 -80 q 810 -281 862 -228 l 703 -237 q 748 -136 726 -187 q 770 -12 770 -85 l 770 125 l 932 125 z "},"ԯ":{"ha":978,"x_min":68,"x_max":912,"o":"m 214 734 l 764 734 l 764 138 l 912 138 l 912 -243 l 720 -243 l 720 0 l 572 0 l 572 580 l 395 580 l 383 364 q 309 82 372 164 q 128 0 246 0 l 69 0 l 68 157 l 93 159 q 172 225 148 165 q 201 422 195 286 l 214 734 z "},"м":{"ha":1018,"x_min":76,"x_max":943,"o":"m 507 228 l 703 734 l 943 734 l 943 0 l 752 0 l 752 454 l 572 0 l 443 0 l 268 448 l 268 0 l 76 0 l 76 734 l 314 734 l 507 228 z "},"ӎ":{"ha":1231,"x_min":89,"x_max":1155,"o":"m 520 228 l 716 734 l 956 734 l 956 0 l 764 0 l 764 454 l 585 0 l 456 0 l 281 448 l 281 0 l 89 0 l 89 734 l 327 734 l 520 228 m 1155 125 l 1155 -2 q 1120 -154 1155 -80 q 1033 -281 1086 -228 l 927 -237 q 972 -136 950 -187 q 994 -12 994 -85 l 994 125 l 1155 125 z "},"н":{"ha":766,"x_min":66,"x_max":699,"o":"m 258 734 l 258 438 l 507 438 l 507 734 l 699 734 l 699 0 l 507 0 l 507 284 l 258 284 l 258 0 l 66 0 l 66 734 l 258 734 z "},"ң":{"ha":978,"x_min":88,"x_max":895,"o":"m 280 734 l 280 438 l 529 438 l 529 734 l 721 734 l 721 138 l 895 138 l 895 -243 l 709 -243 l 709 0 l 529 0 l 529 284 l 280 284 l 280 0 l 88 0 l 88 734 l 280 734 z "},"ҥ":{"ha":1018,"x_min":67,"x_max":949,"o":"m 259 734 l 259 438 l 508 438 l 508 734 l 949 734 l 949 580 l 700 580 l 700 0 l 508 0 l 508 284 l 259 284 l 259 0 l 67 0 l 67 734 l 259 734 z "},"ӈ":{"ha":766,"x_min":66,"x_max":699,"o":"m 66 734 l 258 734 l 258 438 l 507 438 l 507 734 l 699 734 l 699 -26 q 632 -227 699 -157 q 445 -296 564 -296 q 397 -294 419 -296 q 348 -286 374 -292 l 358 -134 q 391 -140 373 -139 q 426 -142 408 -142 q 507 -26 507 -142 l 507 284 l 258 284 l 258 0 l 66 0 l 66 734 z "},"ӊ":{"ha":978,"x_min":81,"x_max":909,"o":"m 273 734 l 273 438 l 522 438 l 522 734 l 714 734 l 714 0 l 522 0 l 522 284 l 273 284 l 273 0 l 81 0 l 81 734 l 273 734 m 909 125 l 909 -2 q 875 -154 909 -80 q 788 -281 840 -228 l 681 -237 q 726 -136 704 -187 q 748 -12 748 -85 l 748 125 l 909 125 z "},"п":{"ha":766,"x_min":66,"x_max":701,"o":"m 701 734 l 701 0 l 509 0 l 509 580 l 257 580 l 257 0 l 66 0 l 66 734 l 701 734 z "},"т":{"ha":766,"x_min":54,"x_max":714,"o":"m 714 734 l 714 581 l 478 581 l 478 0 l 286 0 l 286 581 l 54 581 l 54 734 l 714 734 z "},"ф":{"ha":1104,"x_min":93,"x_max":1012,"o":"m 93 347 l 93 361 q 124 562 93 474 q 215 698 155 649 q 363 748 275 748 q 455 729 414 748 l 455 1042 l 646 1042 l 646 727 q 740 748 688 748 q 890 698 829 748 q 981 562 950 649 q 1012 361 1012 474 l 1012 347 q 981 160 1012 242 q 890 33 950 79 q 741 -14 830 -14 q 646 5 688 -14 l 646 -282 l 455 -282 l 455 4 q 363 -14 414 -14 q 215 33 275 -14 q 124 160 155 79 q 93 347 93 242 m 819 347 l 819 361 q 806 477 819 425 q 765 562 794 530 q 690 594 737 594 q 646 588 665 594 l 646 146 q 690 142 666 142 q 791 201 763 142 q 819 347 819 260 m 285 361 l 285 347 q 312 201 285 260 q 412 142 340 142 q 455 146 436 142 l 455 589 q 412 594 435 594 q 337 562 365 594 q 297 477 310 530 q 285 361 285 425 z "},"ӽ":{"ha":857,"x_min":15,"x_max":833,"o":"m 647 171 l 833 171 l 833 -26 q 766 -225 833 -154 q 581 -296 700 -296 q 532 -294 554 -296 q 485 -286 510 -292 l 495 -133 q 526 -139 509 -137 q 562 -141 544 -141 q 624 -112 601 -141 q 647 -26 647 -82 l 647 0 l 494 0 l 354 240 l 215 0 l 15 0 l 233 379 l 22 758 l 222 758 l 354 511 l 488 758 l 687 758 l 473 379 l 647 78 l 647 171 z "},"ҳ":{"ha":852,"x_min":81,"x_max":788,"o":"m 788 138 l 788 -243 l 602 -243 l 602 0 l 560 0 l 420 240 l 281 0 l 81 0 l 299 379 l 88 758 l 288 758 l 420 511 l 554 758 l 753 758 l 539 379 l 679 138 l 788 138 z "},"ц":{"ha":892,"x_min":74,"x_max":817,"o":"m 74 0 l 74 734 l 267 734 l 267 155 l 517 155 l 517 734 l 709 734 l 709 154 l 817 154 l 805 -217 l 627 -217 l 627 0 l 74 0 z "},"џ":{"ha":766,"x_min":66,"x_max":701,"o":"m 66 734 l 257 734 l 257 155 l 509 155 l 509 734 l 701 734 l 701 0 l 479 0 l 479 -244 l 288 -244 l 288 0 l 66 0 l 66 734 z "},"ч":{"ha":766,"x_min":68,"x_max":699,"o":"m 699 734 l 699 0 l 507 0 l 507 233 q 400 221 450 221 q 157 290 246 221 q 68 504 68 358 l 68 734 l 259 734 l 259 504 q 293 404 259 430 q 400 377 327 377 q 507 389 454 377 l 507 734 l 699 734 z "},"ҷ":{"ha":978,"x_min":101,"x_max":885,"o":"m 885 138 l 885 -243 l 699 -243 l 699 0 l 540 0 l 540 233 q 433 221 482 221 q 189 290 278 221 q 101 504 101 358 l 101 734 l 292 734 l 292 504 q 326 404 292 430 q 433 377 359 377 q 540 389 486 377 l 540 734 l 731 734 l 731 138 l 885 138 z "},"ҹ":{"ha":766,"x_min":69,"x_max":699,"o":"m 443 560 l 443 379 q 508 389 475 382 l 508 734 l 699 734 l 699 0 l 508 0 l 508 233 q 443 223 474 226 l 443 124 l 329 124 l 329 225 q 137 308 206 240 q 69 504 69 375 l 69 734 l 260 734 l 260 504 q 276 424 260 452 q 329 386 293 396 l 329 560 l 443 560 z "},"ш":{"ha":1145,"x_min":79,"x_max":1065,"o":"m 79 734 l 272 734 l 272 155 l 477 155 l 477 734 l 669 734 l 669 155 l 873 155 l 873 734 l 1065 734 l 1065 0 l 79 0 l 79 734 z "},"щ":{"ha":1357,"x_min":108,"x_max":1243,"o":"m 108 734 l 300 734 l 300 155 l 506 155 l 506 734 l 698 734 l 698 155 l 902 155 l 902 734 l 1094 734 l 1094 154 l 1243 154 l 1230 -217 l 1052 -217 l 1052 0 l 108 0 l 108 734 z "},"ь":{"ha":852,"x_min":102,"x_max":750,"o":"m 750 258 q 713 125 750 183 q 606 33 676 67 q 437 0 536 0 l 102 0 l 102 734 l 294 734 l 294 517 l 437 517 q 667 445 585 517 q 750 258 750 373 m 294 154 l 437 154 q 531 184 503 154 q 559 256 559 215 q 531 331 559 299 q 437 363 503 363 l 294 363 l 294 154 z "},"ъ":{"ha":978,"x_min":61,"x_max":923,"o":"m 61 579 l 61 734 l 468 734 l 468 517 l 611 517 q 841 445 759 517 q 923 258 923 373 q 886 125 923 183 q 779 33 849 67 q 611 0 709 0 l 275 0 l 275 579 l 61 579 m 468 154 l 611 154 q 705 184 677 154 q 732 256 732 215 q 705 331 732 299 q 611 363 677 363 l 468 363 l 468 154 z "},"ы":{"ha":1145,"x_min":96,"x_max":1037,"o":"m 1037 758 l 1037 0 l 845 0 l 845 758 l 1037 758 m 744 258 q 707 125 744 183 q 600 33 670 67 q 431 0 530 0 l 96 0 l 96 734 l 288 734 l 288 517 l 431 517 q 661 445 579 517 q 744 258 744 373 m 288 154 l 431 154 q 525 184 497 154 q 553 256 553 215 q 525 331 553 299 q 431 363 497 363 l 288 363 l 288 154 z "},"ҍ":{"ha":852,"x_min":47,"x_max":804,"o":"m 525 988 l 525 865 l 349 865 l 349 535 l 491 535 q 722 460 640 535 q 804 269 804 386 q 722 76 804 151 q 491 0 640 0 l 156 0 l 156 865 l 47 865 l 47 988 l 156 988 l 156 1098 l 349 1098 l 349 988 l 525 988 m 349 154 l 491 154 q 585 188 557 154 q 613 267 613 222 q 585 346 613 312 q 491 381 557 381 l 349 381 l 349 154 z "},"ѣ":{"ha":852,"x_min":47,"x_max":804,"o":"m 525 857 l 525 734 l 349 734 l 349 535 l 491 535 q 722 460 640 535 q 804 269 804 386 q 722 76 804 151 q 491 0 640 0 l 156 0 l 156 734 l 47 734 l 47 857 l 156 857 l 156 1059 l 349 1059 l 349 857 l 525 857 m 349 154 l 491 154 q 585 188 557 154 q 613 267 613 222 q 585 346 613 312 q 491 381 557 381 l 349 381 l 349 154 z "},"љ":{"ha":1271,"x_min":63,"x_max":1208,"o":"m 211 734 l 754 734 l 754 499 l 895 499 q 1126 430 1044 499 q 1208 251 1208 360 q 1126 71 1208 141 q 895 0 1044 0 l 561 0 l 561 580 l 391 580 l 380 364 q 306 82 369 164 q 123 0 243 0 l 66 0 l 63 157 l 89 159 q 168 225 145 165 q 197 422 191 286 l 211 734 m 754 153 l 895 153 q 989 183 961 153 q 1017 252 1017 213 q 989 317 1017 289 q 895 345 961 345 l 754 345 l 754 153 z "},"њ":{"ha":1271,"x_min":92,"x_max":1181,"o":"m 284 734 l 284 452 l 533 452 l 533 734 l 725 734 l 725 499 l 866 499 q 1098 429 1016 499 q 1181 251 1181 360 q 1098 71 1181 141 q 866 0 1016 0 l 533 0 l 533 297 l 284 297 l 284 0 l 92 0 l 92 734 l 284 734 m 725 153 l 866 153 q 960 183 932 153 q 988 252 988 213 q 960 317 988 289 q 866 345 932 345 l 725 345 l 725 153 z "},"э":{"ha":766,"x_min":64,"x_max":702,"o":"m 364 594 q 278 563 311 594 q 245 482 245 532 l 64 482 q 104 618 64 558 q 213 713 145 679 q 364 748 281 748 q 550 698 474 748 q 664 564 625 648 q 702 377 702 480 l 702 357 q 664 169 702 254 q 550 36 625 85 q 364 -14 474 -14 q 208 21 276 -14 q 102 120 141 56 q 64 271 64 184 l 245 271 q 276 180 245 218 q 364 142 307 142 q 468 191 435 142 q 507 310 500 241 l 306 310 l 306 430 l 507 430 q 467 546 500 498 q 364 594 435 594 z "},"ю":{"ha":1117,"x_min":42,"x_max":1057,"o":"m 705 -14 q 471 71 562 -14 q 358 296 379 156 l 233 296 l 233 0 l 42 0 l 42 758 l 233 758 l 233 452 l 357 452 q 469 681 377 595 q 705 767 560 767 q 893 718 814 767 q 1015 581 972 669 q 1057 377 1057 493 q 1015 174 1057 262 q 893 36 972 85 q 705 -14 814 -14 m 705 143 q 834 210 795 143 q 874 377 874 277 q 834 545 874 478 q 705 612 795 612 q 576 545 616 612 q 536 377 536 478 q 576 210 536 277 q 705 143 616 143 z "},"я":{"ha":766,"x_min":55,"x_max":713,"o":"m 390 734 l 713 734 l 713 0 l 520 0 l 520 256 l 392 256 l 249 0 l 55 0 l 216 289 q 114 371 150 319 q 78 490 78 424 q 116 616 78 561 q 223 702 153 671 q 390 734 293 734 m 386 391 l 520 391 l 520 581 l 390 581 q 300 550 328 581 q 271 485 271 519 q 298 421 271 451 q 386 391 326 391 z "},"ҕ":{"ha":766,"x_min":78,"x_max":693,"o":"m 577 734 l 577 580 l 264 580 l 264 451 l 314 451 q 510 414 425 451 q 644 304 596 378 q 692 120 692 231 q 668 5 693 67 q 586 -111 642 -57 q 441 -193 530 -165 l 362 -65 q 465 9 430 -36 q 502 120 501 53 q 451 251 501 208 q 314 294 400 294 l 264 294 l 264 0 l 78 0 l 78 734 l 577 734 z "},"ҧ":{"ha":1271,"x_min":78,"x_max":1192,"o":"m 713 734 l 713 456 l 798 456 q 1001 419 912 456 q 1140 309 1090 383 q 1191 126 1191 236 q 1165 9 1192 72 q 1083 -107 1139 -53 q 938 -189 1027 -161 l 859 -61 q 963 14 928 -31 q 999 126 998 58 q 944 255 999 212 q 798 298 890 298 l 713 298 l 713 0 l 521 0 l 521 580 l 269 580 l 269 0 l 78 0 l 78 734 l 713 734 z "},"є":{"ha":772,"x_min":39,"x_max":715,"o":"m 441 435 l 441 314 l 227 314 q 279 189 238 235 q 392 143 320 143 q 485 173 449 143 q 535 254 520 203 l 714 229 q 605 53 691 120 q 392 -14 520 -14 q 203 36 282 -14 q 81 175 124 86 q 39 379 39 263 q 82 581 39 493 q 204 718 125 668 q 391 767 283 767 q 607 699 520 767 q 715 516 694 630 l 537 489 q 489 578 524 543 q 392 612 455 612 q 277 564 319 612 q 226 435 236 516 l 441 435 z "},"ҩ":{"ha":978,"x_min":92,"x_max":888,"o":"m 888 95 l 888 -17 q 760 -8 819 -17 q 653 19 701 1 q 473 -14 571 -14 q 273 36 359 -14 q 140 170 187 85 q 92 362 92 255 l 92 426 q 128 591 92 518 q 228 706 164 663 q 377 748 292 748 l 377 588 q 316 540 338 583 q 293 426 293 496 l 293 362 q 341 209 293 270 q 470 147 388 148 q 401 363 401 238 l 401 465 q 430 609 401 545 q 510 711 458 673 q 631 748 562 748 q 758 707 704 748 q 842 595 812 665 q 872 435 872 524 l 872 337 q 848 210 872 269 q 781 105 824 151 q 888 95 831 95 m 545 354 q 611 191 545 258 q 681 347 681 247 l 681 446 q 662 547 681 506 q 613 587 644 587 q 563 551 581 587 q 545 459 545 514 l 545 354 z "},"ҵ":{"ha":1018,"x_min":62,"x_max":947,"o":"m 204 0 l 204 579 l 62 579 l 62 734 l 542 734 l 542 579 l 397 579 l 397 155 l 647 155 l 647 734 l 838 734 l 838 154 l 947 154 l 934 -217 l 756 -217 l 756 0 l 204 0 z "},"ҽ":{"ha":892,"x_min":7,"x_max":897,"o":"m 566 -14 q 311 74 407 -14 q 201 319 216 163 q 57 408 108 339 q 7 584 7 477 l 128 584 q 147 500 128 535 q 205 448 166 465 q 316 679 225 590 q 558 767 408 767 q 731 727 654 767 q 852 606 807 687 q 897 403 897 525 l 897 323 l 384 323 q 438 191 393 239 q 564 143 482 143 q 668 174 633 143 q 718 248 702 205 l 889 201 q 836 100 875 149 q 731 18 798 50 q 566 -14 664 -14 m 556 612 q 447 571 490 612 q 389 455 404 529 l 715 455 q 673 567 715 522 q 556 612 632 612 z "},"ӡ":{"ha":852,"x_min":75,"x_max":776,"o":"m 112 734 l 754 734 l 754 608 l 510 334 q 707 234 637 314 q 776 22 776 153 q 730 -135 776 -70 q 603 -234 684 -200 q 418 -268 522 -268 q 294 -252 355 -268 q 184 -200 233 -235 q 105 -110 134 -165 q 75 20 75 -56 l 268 20 q 309 -75 268 -36 q 418 -114 349 -114 q 541 -74 497 -114 q 584 25 584 -34 q 535 168 584 125 q 392 210 485 210 l 298 210 l 298 334 l 528 580 l 112 580 l 112 734 z "},"ѵ":{"ha":766,"x_min":30,"x_max":736,"o":"m 371 276 l 437 524 q 525 690 470 633 q 665 748 580 748 q 702 745 685 748 q 736 735 720 743 l 719 583 q 706 585 717 584 q 686 586 694 586 q 640 565 661 586 q 612 516 620 545 l 450 0 l 268 0 l 30 734 l 231 734 l 345 276 l 358 206 l 371 276 z "},"$":{"ha":898,"x_min":52,"x_max":810,"o":"m 400 -126 l 401 -14 q 228 30 306 -8 q 101 136 149 67 q 52 306 54 205 l 243 306 q 291 198 247 237 q 403 151 334 159 l 407 440 l 362 454 q 160 561 238 491 q 81 740 81 631 q 124 882 81 821 q 243 981 167 944 q 414 1023 318 1017 l 416 1136 l 509 1136 l 508 1020 q 722 925 640 1004 q 805 723 803 845 l 620 723 q 506 853 610 828 l 503 587 l 513 583 q 733 468 656 537 q 810 282 810 399 q 725 78 810 156 q 495 -13 639 0 l 494 -126 l 400 -126 m 271 740 q 308 669 271 697 q 409 618 345 642 l 412 857 q 309 819 348 850 q 271 740 271 787 m 621 280 q 593 352 621 322 q 501 408 565 382 l 497 154 q 589 201 557 167 q 621 280 621 236 z "},"¢":{"ha":781,"x_min":55,"x_max":731,"o":"m 731 516 l 553 489 q 505 578 540 543 q 407 612 471 612 q 280 548 323 612 q 238 379 238 484 q 280 207 238 272 q 407 143 322 143 q 500 173 465 143 q 550 254 536 203 l 729 229 q 642 71 710 135 q 473 -9 575 7 l 473 -166 l 346 -166 l 346 -10 q 189 57 254 4 q 90 192 124 109 q 55 379 55 275 q 90 563 55 482 q 190 697 125 645 q 346 763 255 749 l 346 894 l 473 894 l 473 763 q 645 681 576 746 q 731 516 713 616 z "},"¥":{"ha":768,"x_min":18,"x_max":750,"o":"m 676 323 l 676 207 l 478 207 l 478 0 l 285 0 l 285 207 l 74 207 l 74 323 l 285 323 l 285 402 l 74 402 l 74 518 l 241 518 l 18 1010 l 220 1010 l 384 606 l 548 1010 l 750 1010 l 526 518 l 676 518 l 676 402 l 478 402 l 478 323 l 676 323 z "},"£":{"ha":892,"x_min":87,"x_max":805,"o":"m 603 400 l 390 400 l 394 299 q 354 164 398 215 l 796 164 l 796 0 l 89 0 l 89 164 l 149 164 q 183 187 172 167 q 199 235 195 207 q 201 290 202 262 l 198 400 l 87 400 l 87 557 l 193 557 l 187 721 q 224 886 184 818 q 334 989 264 953 q 493 1024 404 1024 q 663 985 592 1024 q 769 880 734 946 q 799 731 805 814 l 616 741 q 583 836 619 807 q 497 865 546 865 q 413 830 448 865 q 378 721 378 795 l 384 557 l 603 557 l 603 400 z "},"ƒ":{"ha":612,"x_min":42,"x_max":569,"o":"m 525 734 l 525 594 l 383 594 l 383 -36 q 318 -229 383 -163 q 138 -296 254 -296 q 91 -294 113 -296 q 42 -286 68 -292 l 52 -134 q 83 -140 63 -138 q 115 -142 104 -142 q 177 -114 158 -142 q 195 -36 195 -87 l 195 594 l 83 594 l 83 734 l 195 734 l 195 798 q 265 990 195 924 q 456 1055 335 1055 q 514 1051 484 1055 q 569 1040 544 1047 l 549 892 q 520 897 535 895 q 484 899 505 899 q 383 798 383 899 l 383 734 l 525 734 z "},"₺":{"ha":859,"x_min":69,"x_max":790,"o":"m 593 466 l 790 466 q 736 205 790 312 q 588 42 683 98 q 369 -14 493 -14 q 263 -11 312 -14 q 179 -2 214 -8 l 179 443 l 69 406 l 69 547 l 179 584 l 179 669 l 69 631 l 69 772 l 179 810 l 179 1010 l 372 1010 l 372 876 l 532 931 l 532 788 l 372 734 l 372 650 l 532 704 l 532 563 l 372 509 l 372 149 q 534 226 474 150 q 593 466 593 302 z "},"₽":{"ha":1010,"x_min":58,"x_max":944,"o":"m 610 304 l 610 144 l 394 144 l 394 0 l 200 0 l 200 144 l 58 144 l 58 304 l 200 304 l 200 374 l 58 374 l 58 534 l 200 534 l 200 1010 l 579 1010 q 776 968 695 1010 q 901 853 858 926 q 944 689 944 780 q 900 523 944 594 q 774 414 856 453 q 579 374 692 374 l 394 374 l 394 304 l 610 304 m 394 849 l 394 534 l 574 534 q 708 577 668 534 q 748 688 748 620 q 706 803 748 757 q 579 849 664 849 l 394 849 z "},"€":{"ha":921,"x_min":37,"x_max":848,"o":"m 634 456 l 583 348 l 372 348 q 453 207 397 253 q 585 162 509 162 q 696 186 650 162 q 772 233 743 210 l 845 77 q 727 9 794 32 q 585 -14 660 -14 q 321 81 431 -14 q 176 348 211 176 l 37 348 l 75 456 l 162 456 q 160 504 160 479 q 162 554 160 529 l 37 554 l 75 661 l 176 661 q 321 929 212 834 q 585 1024 431 1024 q 728 1000 662 1024 q 848 930 795 976 l 776 774 q 697 823 744 799 q 585 848 649 848 q 453 802 509 848 q 373 661 398 756 l 726 661 l 677 554 l 357 554 q 355 504 355 530 q 357 456 355 479 l 634 456 z "},"₹":{"ha":766,"x_min":45,"x_max":723,"o":"m 392 0 l 61 410 l 60 525 l 225 525 q 332 553 291 525 q 388 629 373 581 l 45 629 l 80 762 l 383 762 q 328 826 367 802 q 225 849 290 849 l 45 849 l 84 1010 l 723 1010 l 687 875 l 543 876 q 585 762 575 827 l 722 762 l 687 629 l 584 629 q 503 470 568 533 q 309 385 437 407 l 608 9 l 608 0 l 392 0 z "},"₸":{"ha":897,"x_min":50,"x_max":849,"o":"m 849 1010 l 849 849 l 50 849 l 50 1010 l 849 1010 m 849 770 l 849 609 l 543 609 l 543 0 l 350 0 l 350 609 l 50 609 l 50 770 l 849 770 z "},"₧":{"ha":1689,"x_min":87,"x_max":1665,"o":"m 359 365 l 282 365 l 282 0 l 87 0 l 87 1010 l 359 1010 q 603 939 516 1010 q 709 758 691 869 l 781 758 l 781 919 l 973 919 l 973 758 l 1105 758 l 1105 660 q 1211 739 1143 711 q 1369 767 1279 767 q 1564 711 1495 767 q 1650 552 1633 655 l 1476 534 q 1439 596 1470 572 q 1361 620 1408 620 q 1285 600 1317 620 q 1253 544 1253 579 q 1276 493 1253 511 q 1339 465 1300 474 l 1473 435 q 1609 368 1554 415 q 1665 229 1665 321 q 1623 96 1665 151 q 1509 14 1581 42 q 1347 -14 1437 -14 q 1214 6 1271 -14 q 1117 64 1156 26 l 1128 9 q 1083 -2 1117 5 q 996 -10 1049 -10 q 889 16 938 -10 q 811 89 840 41 q 781 203 781 136 l 781 616 l 706 616 q 597 435 684 506 q 359 365 510 365 m 282 846 l 282 527 l 359 527 q 453 553 418 527 q 501 617 487 579 q 516 695 516 656 q 501 768 516 733 q 453 824 487 802 q 359 846 418 846 l 282 846 m 1222 235 q 1271 157 1235 183 q 1356 131 1307 131 q 1438 153 1406 131 q 1470 208 1470 175 q 1446 262 1470 247 q 1389 286 1422 277 l 1263 316 q 1121 389 1178 337 q 1064 531 1064 441 q 1080 616 1064 577 l 973 616 l 973 232 q 995 165 973 179 q 1049 151 1017 151 q 1059 151 1054 151 q 1041 215 1047 181 l 1222 235 z "},"₱":{"ha":1105,"x_min":77,"x_max":1039,"o":"m 565 337 l 384 337 l 384 0 l 191 0 l 191 539 l 77 539 l 77 648 l 191 648 l 191 690 l 77 690 l 77 799 l 191 799 l 191 1010 l 564 1010 q 787 951 699 1010 q 910 799 875 892 l 1039 799 l 1039 690 l 931 690 q 932 672 932 681 q 931 648 932 659 l 1039 648 l 1039 539 l 907 539 q 784 393 871 449 q 565 337 697 337 m 384 849 l 384 799 l 694 799 q 642 836 674 822 q 564 849 610 849 l 384 849 m 736 670 q 736 690 736 680 l 384 690 l 384 648 l 735 648 q 736 670 736 658 m 565 496 q 637 508 607 496 q 688 539 667 519 l 384 539 l 384 496 l 565 496 z "},"₭":{"ha":1074,"x_min":38,"x_max":1049,"o":"m 795 0 l 498 406 l 377 273 l 377 0 l 182 0 l 182 461 l 38 461 l 38 626 l 182 626 l 182 1010 l 377 1010 l 377 626 l 447 626 l 794 1010 l 1049 1010 l 694 626 l 975 626 l 975 461 l 685 461 l 1029 0 l 795 0 z "},"₩":{"ha":1393,"x_min":46,"x_max":1347,"o":"m 226 1010 l 300 718 l 530 718 l 606 1010 l 787 1010 l 863 718 l 1093 718 l 1166 1010 l 1347 1010 l 1272 718 l 1342 718 l 1342 609 l 1243 609 l 1219 517 l 1342 517 l 1342 409 l 1191 409 l 1085 0 l 886 0 l 776 409 l 617 409 l 507 0 l 308 0 l 202 409 l 51 409 l 51 517 l 174 517 l 150 609 l 51 609 l 51 718 l 122 718 l 46 1010 l 226 1010 m 351 517 l 478 517 l 502 609 l 327 609 l 351 517 m 647 517 l 746 517 l 722 609 l 671 609 l 647 517 m 915 517 l 1043 517 l 1066 609 l 891 609 l 915 517 m 409 286 l 418 286 l 450 409 l 378 409 l 409 286 m 975 284 l 984 284 l 1016 409 l 943 409 l 975 284 z "},"₤":{"ha":892,"x_min":87,"x_max":805,"o":"m 588 424 l 588 318 l 393 318 l 394 295 q 387 221 396 254 q 358 161 379 187 l 805 161 l 805 0 l 88 0 l 88 161 l 149 161 q 191 207 182 169 q 199 286 200 245 l 198 318 l 87 318 l 87 424 l 195 424 l 192 501 l 87 501 l 87 607 l 189 607 l 186 727 q 222 888 183 821 q 331 989 261 954 q 494 1024 402 1024 q 720 946 640 1024 q 800 742 800 869 l 616 742 q 577 836 616 810 q 491 863 539 863 q 411 829 445 863 q 377 727 377 795 l 382 607 l 588 607 l 588 501 l 386 501 l 389 424 l 588 424 z "},"₳":{"ha":1028,"x_min":38,"x_max":989,"o":"m 247 0 l 38 0 l 118 217 l 61 217 l 61 372 l 175 372 l 211 468 l 61 468 l 61 622 l 267 622 l 410 1010 l 617 1010 l 760 622 l 966 622 l 966 468 l 817 468 l 852 372 l 966 372 l 966 217 l 909 217 l 989 0 l 781 0 l 707 215 l 321 215 l 247 0 m 508 764 l 460 622 l 568 622 l 520 764 l 508 764 m 375 375 l 653 375 l 621 468 l 407 468 l 375 375 z "},"₴":{"ha":977,"x_min":109,"x_max":870,"o":"m 495 863 q 403 836 433 863 q 371 762 374 809 l 174 762 q 258 954 181 884 q 492 1024 335 1024 q 724 961 643 1024 q 806 792 806 898 q 796 735 806 762 q 769 685 786 708 l 870 685 l 870 549 l 109 549 l 109 685 l 572 685 q 602 728 591 705 q 613 779 613 752 q 583 840 613 817 q 495 863 553 863 m 491 -14 q 244 51 327 -14 q 160 228 160 115 q 171 287 160 258 q 199 339 182 315 l 109 339 l 109 472 l 870 472 l 870 339 l 398 339 q 357 242 357 297 q 392 172 357 196 q 491 147 428 147 q 591 172 553 147 q 633 257 630 196 l 832 257 q 741 51 825 115 q 491 -14 657 -14 z "},"₦":{"ha":1155,"x_min":38,"x_max":1117,"o":"m 1117 450 l 1117 341 l 981 341 l 981 0 l 791 0 l 581 341 l 368 341 l 368 0 l 174 0 l 174 341 l 38 341 l 38 450 l 174 450 l 174 559 l 38 559 l 38 668 l 174 668 l 174 1010 l 365 1010 l 575 668 l 788 668 l 788 1010 l 981 1010 l 981 668 l 1117 668 l 1117 559 l 981 559 l 981 450 l 1117 450 m 368 676 l 368 668 l 382 668 l 377 676 l 368 676 m 368 450 l 515 450 l 448 559 l 368 559 l 368 450 m 707 450 l 788 450 l 788 559 l 641 559 l 707 450 m 779 333 l 788 333 l 788 341 l 774 341 l 779 333 z "},"₲":{"ha":1001,"x_min":67,"x_max":930,"o":"m 930 528 l 930 379 q 884 189 930 272 q 758 55 838 106 q 579 -10 679 3 l 579 -126 l 445 -126 l 445 -9 q 249 72 334 6 q 115 246 164 137 q 67 504 67 355 q 115 764 67 654 q 249 940 164 874 q 445 1019 335 1005 l 445 1136 l 579 1136 l 579 1019 q 793 920 701 1001 q 925 704 884 839 l 728 683 q 669 785 708 746 q 579 838 629 823 l 579 528 l 930 528 m 261 504 q 313 274 261 355 q 445 171 364 193 l 445 840 q 313 736 364 818 q 261 504 261 654 m 741 379 l 579 379 l 579 170 q 695 242 650 187 q 741 379 741 297 z "},"₡":{"ha":988,"x_min":67,"x_max":928,"o":"m 928 693 l 739 672 q 734 689 736 681 l 581 171 q 678 227 637 185 q 736 334 719 268 l 927 313 q 782 75 891 160 q 526 -14 673 -10 l 493 -126 l 349 -126 l 387 3 q 326 25 355 12 l 281 -126 l 138 -126 l 207 108 q 104 275 142 175 q 67 504 67 375 q 119 772 67 659 q 265 950 172 885 q 476 1022 357 1014 l 510 1136 l 654 1136 l 618 1013 q 680 993 650 1005 l 722 1136 l 866 1136 l 801 917 q 879 819 847 876 q 928 693 912 763 m 378 202 q 437 173 405 183 l 629 820 q 567 842 600 836 l 378 202 m 261 504 q 280 354 261 419 l 420 831 q 305 721 348 801 q 261 504 261 640 z "},"₵":{"ha":988,"x_min":67,"x_max":928,"o":"m 928 693 l 739 672 q 678 783 721 741 q 578 840 636 826 l 578 170 q 677 226 635 184 q 736 334 719 267 l 927 313 q 800 91 894 174 q 578 -9 706 7 l 578 -126 l 423 -126 l 423 -5 q 238 80 318 14 q 112 254 157 146 q 67 504 67 361 q 112 755 67 647 q 238 929 157 863 q 423 1016 318 996 l 423 1136 l 578 1136 l 578 1019 q 801 918 706 1002 q 928 693 895 834 m 261 504 q 306 286 261 366 q 423 178 350 206 l 423 832 q 306 723 350 803 q 261 504 261 642 z "},"₢":{"ha":993,"x_min":67,"x_max":928,"o":"m 859 574 l 799 418 q 773 428 791 423 q 732 433 755 433 q 654 410 687 433 q 604 349 622 386 q 586 270 587 312 l 586 173 q 680 229 641 188 q 736 334 720 269 l 927 313 q 843 136 903 209 q 698 24 783 63 q 512 -14 614 -14 q 283 48 384 -14 q 125 225 182 109 q 67 504 67 341 q 125 783 67 667 q 283 962 182 900 q 512 1024 384 1024 q 699 985 614 1024 q 844 872 784 946 q 928 693 904 799 l 739 672 q 655 804 717 760 q 512 848 593 848 q 332 764 403 848 q 261 504 261 681 q 304 290 261 369 q 416 181 346 210 l 416 587 l 586 587 l 586 479 l 593 479 q 656 567 609 537 q 758 597 702 597 q 815 590 788 597 q 859 574 842 583 z "},"₮":{"ha":874,"x_min":37,"x_max":836,"o":"m 670 497 l 670 363 l 534 316 l 534 0 l 340 0 l 340 251 l 205 205 l 205 340 l 340 386 l 340 477 l 205 432 l 205 566 l 340 612 l 340 846 l 37 846 l 37 1010 l 836 1010 l 836 846 l 534 846 l 534 678 l 670 724 l 670 588 l 534 542 l 534 451 l 670 497 z "},"₯":{"ha":1862,"x_min":46,"x_max":1796,"o":"m 540 239 q 540 218 540 228 q 617 164 576 186 q 710 142 657 142 q 828 184 786 142 q 887 301 870 226 q 904 477 904 377 l 904 525 q 875 705 904 627 q 785 826 847 783 q 625 870 724 870 q 540 867 583 870 l 540 239 m 1138 -282 l 1138 398 q 1228 668 1138 574 q 1468 761 1318 761 q 1657 708 1585 761 q 1763 566 1730 655 q 1796 368 1796 476 l 1796 354 q 1761 161 1796 244 q 1661 32 1726 78 q 1503 -14 1595 -14 q 1398 8 1442 -14 q 1323 69 1354 29 l 1324 -282 l 1138 -282 m 1323 383 l 1323 345 q 1336 252 1324 299 q 1379 173 1348 205 q 1465 142 1410 142 q 1576 203 1543 142 q 1609 354 1609 264 l 1609 368 q 1594 485 1609 432 q 1547 569 1580 538 q 1463 600 1515 600 q 1382 570 1413 600 q 1337 491 1351 541 q 1323 383 1323 442 m 218 170 q 237 128 218 143 q 282 113 255 113 q 332 135 317 113 q 348 190 348 156 l 348 198 q 315 218 331 211 q 281 225 299 225 q 237 211 255 225 q 218 170 218 197 m 540 1136 l 540 1020 q 636 1024 589 1024 q 886 958 784 1024 q 1042 778 989 891 q 1095 523 1095 664 l 1095 477 q 994 112 1095 239 q 710 -14 893 -14 q 583 9 637 -14 q 489 65 530 32 q 409 7 459 29 q 284 -14 360 -14 q 107 38 168 -14 q 46 176 46 91 q 104 311 46 262 q 267 361 163 361 q 348 349 310 361 l 348 839 q 259 820 305 831 q 162 797 213 809 l 162 952 q 255 975 209 965 q 348 995 302 986 l 348 1136 l 540 1136 z "},"₥":{"ha":1163,"x_min":81,"x_max":1114,"o":"m 692 472 l 692 0 l 505 0 l 505 120 l 423 -85 l 281 -85 l 505 474 l 505 480 q 473 580 505 549 q 391 610 441 610 q 308 575 344 610 q 273 469 273 541 l 273 0 l 81 0 l 81 758 l 268 758 l 268 661 l 275 661 q 352 736 303 704 q 472 767 402 767 q 606 725 552 767 l 663 868 l 804 868 l 750 732 q 811 758 777 748 q 884 767 845 767 q 1000 739 948 767 q 1083 648 1052 711 q 1114 480 1114 584 l 1114 0 l 922 0 l 922 482 q 888 582 922 554 q 811 610 853 610 q 724 574 755 610 q 692 472 692 539 z "},"₪":{"ha":1225,"x_min":94,"x_max":1130,"o":"m 94 758 l 589 758 q 785 692 723 758 q 848 508 848 627 l 848 252 l 659 252 l 659 508 q 639 581 659 558 q 568 604 618 604 l 282 604 l 282 0 l 94 0 l 94 758 m 377 0 l 377 506 l 565 506 l 565 154 l 851 154 q 922 177 901 154 q 943 250 943 199 l 943 748 l 1130 748 l 1130 250 q 1068 65 1130 131 q 872 0 1006 0 l 377 0 z "},"₼":{"ha":1018,"x_min":84,"x_max":936,"o":"m 936 0 l 748 0 l 748 116 q 709 313 748 236 q 604 421 670 390 l 604 0 l 416 0 l 416 421 q 309 313 349 391 q 270 116 270 236 l 270 0 l 84 0 l 84 115 q 126 344 84 245 q 243 506 168 443 q 416 589 318 568 l 416 758 l 604 758 l 604 589 q 777 506 702 568 q 894 344 852 443 q 936 115 936 245 l 936 0 z "},"₨":{"ha":1598,"x_min":108,"x_max":1510,"o":"m 659 0 l 472 378 l 302 378 l 302 0 l 108 0 l 108 1010 l 480 1010 q 747 924 659 1010 q 836 696 836 837 q 789 522 836 591 q 666 415 742 453 l 875 0 l 659 0 m 302 846 l 302 541 l 475 541 q 601 581 559 541 q 643 692 643 620 q 604 803 643 760 q 480 846 565 846 l 302 846 m 1495 552 l 1321 534 q 1280 598 1313 572 q 1191 624 1246 624 q 1106 602 1142 624 q 1069 544 1069 581 q 1097 492 1069 511 q 1166 464 1125 473 l 1307 434 q 1452 368 1394 415 q 1510 229 1510 321 q 1466 97 1510 151 q 1346 14 1422 42 q 1177 -14 1271 -14 q 954 47 1034 -14 q 852 215 874 108 l 1035 235 q 1089 156 1049 183 q 1185 128 1129 128 q 1277 151 1241 128 q 1314 208 1314 175 q 1286 262 1314 247 q 1222 286 1258 277 l 1089 316 q 938 389 997 337 q 879 531 879 440 q 967 704 879 641 q 1199 767 1055 767 q 1404 711 1332 767 q 1495 552 1477 655 z "},"₾":{"ha":1018,"x_min":91,"x_max":928,"o":"m 93 0 l 93 155 l 204 155 l 207 163 q 120 302 149 221 q 91 479 91 383 q 164 743 91 636 q 360 891 237 850 l 360 1010 l 472 1010 l 472 912 q 509 914 490 914 q 548 912 529 914 l 548 1010 l 661 1010 l 661 890 q 856 737 783 847 q 928 464 928 627 l 744 464 q 723 614 744 554 q 661 708 701 674 l 661 464 l 548 464 l 548 754 q 509 757 530 757 q 472 755 489 757 l 472 464 l 360 464 l 360 711 q 298 619 320 678 q 277 471 277 560 q 339 241 277 327 q 543 155 402 155 l 924 155 l 924 0 l 93 0 z "},"ƻ":{"ha":834,"x_min":71,"x_max":760,"o":"m 760 164 l 760 0 l 71 0 l 71 141 l 371 444 l 289 444 l 289 562 l 479 562 q 531 648 515 609 q 547 722 547 686 q 509 825 547 781 q 405 870 472 870 q 297 816 332 870 q 262 688 262 762 l 74 688 q 113 854 74 777 q 226 977 152 930 q 409 1024 301 1024 q 577 986 504 1024 q 691 882 650 948 q 733 728 733 815 q 721 644 733 685 q 687 562 709 603 l 760 562 l 760 444 l 604 444 q 563 397 584 421 q 517 348 541 373 l 342 170 l 342 164 l 760 164 z "},"Ƽ":{"ha":877,"x_min":57,"x_max":810,"o":"m 312 457 l 157 495 l 196 837 l 57 837 l 57 995 l 215 995 l 216 1010 l 774 1010 l 774 844 l 372 844 l 343 597 l 347 597 q 407 636 365 617 q 506 654 448 654 q 663 613 594 654 q 771 498 732 572 q 810 327 810 424 q 773 158 810 235 q 659 33 735 80 q 470 -14 583 -14 q 298 25 371 -14 q 183 132 224 63 q 139 293 142 201 l 326 293 q 367 185 334 230 q 471 141 400 141 q 586 196 547 141 q 625 327 625 251 q 580 465 625 417 q 457 512 535 512 q 367 495 401 512 q 312 457 333 478 z "},"&":{"ha":978,"x_min":74,"x_max":917,"o":"m 705 0 l 651 63 q 396 -14 542 -14 q 224 23 296 -14 q 113 123 152 59 q 74 271 74 187 q 125 419 74 360 q 256 536 175 478 q 185 650 212 596 q 159 760 159 703 q 231 951 159 879 q 426 1022 304 1022 q 559 991 503 1022 q 646 906 615 959 q 676 790 676 853 q 640 664 676 720 q 545 567 603 609 l 480 519 l 657 309 q 687 390 676 347 q 697 483 697 434 l 858 483 q 838 316 858 394 q 770 175 817 238 l 917 0 l 705 0 m 326 763 q 344 697 326 730 q 392 627 363 664 l 444 663 q 503 719 487 691 q 519 778 519 746 q 494 838 519 809 q 425 867 469 867 q 352 836 378 867 q 326 763 326 806 m 261 280 q 301 181 261 221 q 405 141 341 141 q 547 185 480 141 l 347 422 l 329 408 q 274 341 288 374 q 261 280 261 309 z "},"!":{"ha":392,"x_min":84,"x_max":310,"o":"m 298 1010 l 276 304 l 119 304 l 97 1010 l 298 1010 m 196 -13 q 115 18 146 -13 q 84 95 84 49 q 115 172 84 141 q 196 204 146 204 q 278 172 246 204 q 310 95 310 141 q 278 18 310 49 q 196 -13 246 -13 z "},"¡":{"ha":392,"x_min":84,"x_max":310,"o":"m 196 768 q 278 737 246 768 q 310 660 310 706 q 278 583 310 614 q 196 551 246 551 q 115 583 146 551 q 84 660 84 614 q 115 737 84 706 q 196 768 146 768 m 298 -255 l 97 -255 l 119 451 l 276 451 l 298 -255 z "},"?":{"ha":766,"x_min":89,"x_max":695,"o":"m 458 304 l 293 304 q 315 452 293 395 q 368 546 336 509 q 433 612 400 583 q 487 672 465 640 q 509 750 509 703 q 479 840 509 809 q 395 871 449 871 q 314 841 350 871 q 278 743 278 811 l 89 743 q 130 901 90 838 q 240 994 171 963 q 395 1024 309 1024 q 616 953 536 1024 q 695 755 695 881 q 672 642 695 688 q 613 562 648 596 q 543 492 579 527 q 484 414 508 458 q 458 304 459 369 m 377 -10 q 296 21 327 -10 q 264 98 264 52 q 296 175 264 144 q 377 207 327 207 q 458 175 426 207 q 490 98 490 144 q 458 21 490 52 q 377 -10 426 -10 z "},"¿":{"ha":766,"x_min":75,"x_max":682,"o":"m 394 759 q 475 728 443 759 q 507 651 507 697 q 475 574 507 605 q 394 542 443 542 q 313 574 345 542 q 281 651 281 605 q 313 728 281 697 q 394 759 345 759 m 313 444 l 478 444 q 456 297 478 354 q 402 203 435 240 q 338 137 370 166 q 284 77 306 109 q 262 -1 262 46 q 292 -91 262 -61 q 376 -122 322 -122 q 457 -92 421 -122 q 493 6 492 -62 l 682 6 q 641 -152 682 -90 q 531 -245 600 -215 q 376 -275 462 -275 q 155 -204 235 -275 q 75 -6 75 -133 q 99 107 75 61 q 158 187 123 152 q 228 256 192 222 q 287 335 263 291 q 313 444 312 379 z "},"(":{"ha":506,"x_min":118,"x_max":466,"o":"m 464 -189 l 304 -189 q 208 -21 250 -116 q 142 184 166 74 q 118 410 118 294 q 143 636 118 527 q 209 842 167 746 q 309 1010 252 937 l 466 1010 q 337 717 377 859 q 298 410 298 575 q 337 107 298 252 q 464 -189 376 -38 z "},")":{"ha":506,"x_min":27,"x_max":374,"o":"m 29 -189 q 156 107 116 -38 q 195 410 195 252 q 155 717 195 575 q 27 1010 116 859 l 184 1010 q 283 842 241 937 q 350 636 326 746 q 374 410 374 527 q 350 184 374 294 q 285 -21 327 74 q 189 -189 243 -116 l 29 -189 z "},"[":{"ha":506,"x_min":133,"x_max":450,"o":"m 450 1141 l 450 992 l 306 992 l 306 -84 l 450 -84 l 450 -232 l 133 -232 l 133 1141 l 450 1141 z "},"⁅":{"ha":506,"x_min":133,"x_max":450,"o":"m 450 528 l 450 381 l 306 381 l 306 -84 l 450 -84 l 450 -232 l 133 -232 l 133 1141 l 450 1141 l 450 992 l 306 992 l 306 528 l 450 528 z "},"]":{"ha":506,"x_min":56,"x_max":373,"o":"m 56 1141 l 373 1141 l 373 -232 l 56 -232 l 56 -84 l 200 -84 l 200 992 l 56 992 l 56 1141 z "},"⁆":{"ha":506,"x_min":56,"x_max":373,"o":"m 56 1141 l 373 1141 l 373 -232 l 56 -232 l 56 -84 l 200 -84 l 200 381 l 56 381 l 56 528 l 200 528 l 200 992 l 56 992 l 56 1141 z "},"{":{"ha":506,"x_min":56,"x_max":450,"o":"m 450 -136 l 413 -245 q 270 -171 321 -218 q 198 -61 218 -124 q 178 73 178 1 l 178 209 q 149 312 178 273 q 56 352 120 352 l 56 489 q 149 527 120 489 q 178 629 178 565 l 178 767 q 198 901 178 838 q 270 1010 218 963 q 413 1083 321 1057 l 450 977 q 366 898 388 954 q 344 767 344 841 l 344 629 q 316 507 344 562 q 228 420 289 452 q 316 333 289 388 q 344 209 344 277 l 344 73 q 366 -57 344 -1 q 450 -136 388 -114 z "},"}":{"ha":506,"x_min":42,"x_max":437,"o":"m 42 -136 q 127 -57 105 -114 q 149 73 149 -1 l 149 209 q 176 333 149 277 q 265 420 204 388 q 176 507 204 452 q 149 629 149 562 l 149 767 q 127 898 149 841 q 42 977 105 954 l 79 1083 q 223 1010 172 1057 q 294 901 274 963 q 315 767 315 838 l 315 629 q 344 527 315 565 q 437 489 372 489 l 437 352 q 344 312 372 352 q 315 209 315 273 l 315 73 q 294 -61 315 1 q 223 -171 274 -124 q 79 -245 172 -218 l 42 -136 z "},"@":{"ha":1371,"x_min":75,"x_max":1316,"o":"m 710 999 q 968 955 855 999 q 1158 834 1081 911 q 1276 654 1236 757 q 1316 436 1316 552 q 1290 210 1316 311 q 1202 52 1263 110 q 1039 -7 1142 -7 q 962 0 998 -7 q 902 29 926 6 q 871 101 877 51 l 865 101 q 817 45 852 69 q 734 8 781 21 q 641 -1 688 -4 q 439 99 515 8 q 363 363 363 190 q 403 540 363 468 q 504 653 443 613 q 629 703 565 693 q 729 702 682 710 q 809 674 776 693 q 849 634 841 656 l 855 634 l 855 690 l 999 690 l 999 195 q 1013 154 999 165 q 1048 144 1028 144 q 1131 210 1101 144 q 1162 438 1162 276 q 1043 751 1162 649 q 704 853 925 853 q 453 789 557 853 q 293 611 348 724 q 237 353 237 498 q 362 -12 237 114 q 727 -138 487 -138 q 831 -130 780 -138 q 925 -110 883 -121 q 994 -88 968 -98 l 1039 -220 q 960 -251 1012 -236 q 847 -276 909 -266 q 724 -287 784 -287 q 242 -121 408 -287 q 75 357 75 45 q 151 692 75 547 q 369 918 227 837 q 710 999 511 999 m 673 555 q 561 502 602 555 q 519 369 519 448 q 532 258 519 307 q 578 181 545 209 q 669 153 611 153 q 849 369 849 153 q 800 517 849 478 q 673 555 751 556 z "},"#":{"ha":897,"x_min":69,"x_max":829,"o":"m 178 0 l 221 279 l 69 279 l 73 395 l 239 395 l 271 598 l 118 598 l 123 715 l 290 715 l 333 995 l 454 995 l 410 715 l 555 715 l 599 995 l 722 995 l 678 715 l 829 715 l 824 598 l 659 598 l 627 395 l 779 395 l 775 279 l 609 279 l 565 0 l 444 0 l 487 279 l 342 279 l 298 0 l 178 0 m 360 395 l 506 395 l 537 598 l 392 598 l 360 395 z "},"¤":{"ha":1019,"x_min":83,"x_max":937,"o":"m 105 412 q 125 547 105 483 q 180 662 145 610 l 83 762 l 173 856 l 271 757 q 381 816 321 795 q 509 836 442 836 q 636 815 576 836 q 747 756 697 794 l 845 856 l 937 762 l 837 661 q 892 546 872 609 q 911 412 911 483 q 893 284 911 345 q 843 172 875 223 l 937 78 l 845 -15 l 757 75 q 642 10 705 33 q 509 -14 579 -14 q 375 9 438 -14 q 261 74 312 33 l 173 -15 l 83 78 l 174 171 q 123 283 141 222 q 105 412 105 344 m 225 412 q 263 260 225 328 q 365 151 301 191 q 509 111 430 111 q 650 151 586 111 q 752 260 714 191 q 790 412 790 328 q 752 565 790 497 q 650 674 714 634 q 509 714 586 714 q 365 674 430 714 q 263 565 301 634 q 225 412 225 497 z "},"/":{"ha":561,"x_min":49,"x_max":512,"o":"m 512 1010 l 218 -152 l 49 -152 l 343 1010 l 512 1010 z "},"|":{"ha":437,"x_min":133,"x_max":304,"o":"m 304 1010 l 304 -189 l 133 -189 l 133 1010 l 304 1010 z "},"¦":{"ha":437,"x_min":133,"x_max":304,"o":"m 304 1010 l 304 543 l 133 543 l 133 1010 l 304 1010 m 133 280 l 304 280 l 304 -189 l 133 -189 l 133 280 z "},"\\":{"ha":556,"x_min":46,"x_max":509,"o":"m 46 1010 l 216 1010 l 509 -152 l 340 -152 l 46 1010 z "},"⁃":{"ha":640,"x_min":79,"x_max":560,"o":"m 560 647 l 560 363 l 79 363 l 79 647 l 560 647 z "},"-":{"ha":645,"x_min":80,"x_max":565,"o":"m 565 501 l 565 356 l 80 356 l 80 501 l 565 501 z "},"–":{"ha":836,"x_min":60,"x_max":777,"o":"m 777 499 l 777 357 l 60 357 l 60 499 l 777 499 z "},"‒":{"ha":893,"x_min":5,"x_max":889,"o":"m 889 499 l 889 357 l 5 357 l 5 499 l 889 499 z "},"—":{"ha":1402,"x_min":70,"x_max":1332,"o":"m 1332 499 l 1332 357 l 70 357 l 70 499 l 1332 499 z "},"•":{"ha":619,"x_min":117,"x_max":502,"o":"m 502 417 q 476 319 502 363 q 408 250 451 276 q 310 225 364 225 q 212 250 256 225 q 143 319 169 276 q 117 417 117 363 q 143 515 117 472 q 212 584 169 558 q 310 610 256 610 q 408 584 364 610 q 476 515 451 558 q 502 417 502 472 z "},"‘":{"ha":324,"x_min":69,"x_max":279,"o":"m 69 694 l 69 798 q 105 935 69 864 q 193 1049 141 1005 l 279 995 q 235 908 254 955 q 216 799 216 860 l 216 694 l 69 694 z "},"’":{"ha":324,"x_min":44,"x_max":254,"o":"m 254 1010 l 254 907 q 218 770 254 840 q 130 655 182 699 l 44 709 q 89 797 70 750 q 108 906 108 844 l 108 1010 l 254 1010 z "},"‴":{"ha":1023,"x_min":70,"x_max":954,"o":"m 70 821 l 192 1059 l 390 1059 l 217 821 l 70 821 m 352 821 l 473 1059 l 672 1059 l 499 821 l 352 821 m 633 821 l 756 1059 l 954 1059 l 782 821 l 633 821 z "},"'":{"ha":281,"x_min":69,"x_max":210,"o":"m 210 1010 l 210 633 l 69 633 l 69 1010 l 210 1010 z "},"\"":{"ha":554,"x_min":74,"x_max":467,"o":"m 215 1010 l 215 633 l 74 633 l 74 1010 l 215 1010 m 467 1010 l 467 633 l 327 633 l 327 1010 l 467 1010 z "},"“":{"ha":597,"x_min":74,"x_max":533,"o":"m 74 694 l 74 798 q 110 935 74 864 q 198 1049 146 1005 l 284 995 q 240 908 259 955 q 221 799 221 860 l 221 694 l 74 694 m 323 694 l 323 798 q 359 935 323 864 q 447 1049 395 1005 l 533 995 q 489 908 508 955 q 470 799 470 860 l 470 694 l 323 694 z "},"”":{"ha":597,"x_min":53,"x_max":511,"o":"m 263 1010 l 263 907 q 227 770 263 840 q 139 655 191 699 l 53 709 q 98 797 78 750 q 117 906 117 844 l 117 1010 l 263 1010 m 511 1010 l 511 907 q 475 770 511 840 q 387 655 439 699 l 301 709 q 345 797 326 750 q 364 906 364 844 l 364 1010 l 511 1010 z "},"„":{"ha":556,"x_min":20,"x_max":477,"o":"m 230 126 l 230 23 q 194 -114 230 -43 q 106 -228 158 -184 l 20 -175 q 64 -87 45 -134 q 83 22 83 -39 l 83 126 l 230 126 m 477 126 l 477 23 q 441 -114 477 -43 q 353 -228 405 -184 l 267 -175 q 312 -87 292 -134 q 331 22 331 -39 l 331 126 l 477 126 z "},"‚":{"ha":324,"x_min":42,"x_max":252,"o":"m 252 126 l 252 23 q 216 -114 252 -43 q 128 -228 180 -184 l 42 -175 q 86 -87 67 -134 q 106 22 106 -39 l 106 126 l 252 126 z "},",":{"ha":391,"x_min":62,"x_max":291,"o":"m 291 157 l 291 30 q 255 -122 290 -48 q 169 -249 221 -196 l 62 -205 q 107 -104 85 -155 q 129 20 129 -53 l 129 157 l 291 157 z "},".":{"ha":391,"x_min":84,"x_max":307,"o":"m 195 -12 q 117 21 149 -12 q 84 101 84 54 q 117 180 84 147 q 195 212 150 212 q 274 179 242 212 q 307 101 307 146 q 274 21 307 54 q 195 -12 242 -12 z "},"…":{"ha":1077,"x_min":84,"x_max":993,"o":"m 195 -12 q 117 21 149 -12 q 84 101 84 54 q 117 180 84 147 q 195 212 150 212 q 274 179 242 212 q 307 101 307 146 q 274 21 307 54 q 195 -12 242 -12 m 539 -12 q 460 21 493 -12 q 428 101 428 54 q 461 180 428 147 q 539 212 494 212 q 618 179 585 212 q 651 101 651 146 q 618 21 651 54 q 539 -12 585 -12 m 882 -12 q 803 21 836 -12 q 770 101 770 54 q 803 180 770 147 q 882 212 836 212 q 961 179 928 212 q 993 101 993 146 q 961 21 993 54 q 882 -12 928 -12 z "},"‥":{"ha":769,"x_min":101,"x_max":668,"o":"m 213 -12 q 134 21 167 -12 q 101 101 101 54 q 134 180 101 147 q 213 212 167 212 q 291 179 259 212 q 324 101 324 146 q 291 21 324 54 q 213 -12 259 -12 m 557 -12 q 478 21 511 -12 q 445 101 445 54 q 478 180 445 147 q 557 212 511 212 q 636 179 603 212 q 668 101 668 146 q 636 21 668 54 q 557 -12 603 -12 z "},":":{"ha":391,"x_min":84,"x_max":307,"o":"m 195 514 q 117 547 149 514 q 84 627 84 581 q 117 706 84 673 q 195 738 150 738 q 274 706 242 738 q 307 627 307 673 q 274 547 307 581 q 195 514 242 514 m 195 -12 q 117 21 149 -12 q 84 101 84 54 q 117 180 84 147 q 195 212 150 212 q 274 179 242 212 q 307 101 307 146 q 274 21 307 54 q 195 -12 242 -12 z "},";":{"ha":391,"x_min":62,"x_max":307,"o":"m 195 532 q 117 565 149 532 q 84 645 84 598 q 117 723 84 690 q 195 756 150 756 q 274 723 242 756 q 307 645 307 690 q 274 565 307 598 q 195 532 242 532 m 291 157 l 291 30 q 255 -122 290 -48 q 169 -249 221 -196 l 62 -205 q 107 -104 85 -155 q 129 20 129 -53 l 129 157 l 291 157 z "},"‹":{"ha":513,"x_min":98,"x_max":413,"o":"m 413 88 l 288 88 l 98 363 l 98 377 l 288 651 l 413 651 l 245 370 l 413 88 z "},"›":{"ha":513,"x_min":98,"x_max":413,"o":"m 98 88 l 265 369 l 98 650 l 222 650 l 413 375 l 413 363 l 222 88 l 98 88 z "},"«":{"ha":726,"x_min":86,"x_max":669,"o":"m 401 88 l 276 88 l 86 363 l 86 377 l 276 651 l 401 651 l 233 370 l 401 88 m 669 88 l 544 88 l 354 363 l 354 377 l 544 651 l 669 651 l 500 370 l 669 88 z "},"»":{"ha":726,"x_min":88,"x_max":672,"o":"m 88 88 l 255 369 l 88 650 l 212 650 l 403 375 l 403 363 l 212 88 l 88 88 m 357 88 l 524 369 l 357 650 l 480 650 l 672 375 l 672 363 l 480 88 l 357 88 z "},"<":{"ha":645,"x_min":56,"x_max":565,"o":"m 565 191 l 452 85 l 56 442 l 452 799 l 565 692 l 287 444 l 287 440 l 565 191 z "},">":{"ha":645,"x_min":67,"x_max":576,"o":"m 67 191 l 345 440 l 345 444 l 67 692 l 180 799 l 576 442 l 180 85 l 67 191 z "},"≤":{"ha":811,"x_min":111,"x_max":700,"o":"m 700 332 l 700 176 l 111 494 l 111 517 l 700 835 l 700 677 l 389 509 l 389 501 l 700 332 m 700 143 l 700 0 l 111 0 l 111 143 l 700 143 z "},"≥":{"ha":811,"x_min":98,"x_max":687,"o":"m 98 332 l 409 501 l 409 509 l 98 677 l 98 835 l 687 517 l 687 494 l 98 176 l 98 332 m 98 143 l 687 143 l 687 0 l 98 0 l 98 143 z "},"=":{"ha":811,"x_min":121,"x_max":690,"o":"m 121 670 l 690 670 l 690 517 l 121 517 l 121 670 m 121 366 l 690 366 l 690 214 l 121 214 l 121 366 z "},"≠":{"ha":811,"x_min":121,"x_max":690,"o":"m 121 366 l 314 366 l 396 517 l 121 517 l 121 670 l 479 670 l 556 812 l 636 769 l 582 670 l 690 670 l 690 517 l 499 517 l 417 366 l 690 366 l 690 214 l 334 214 l 255 69 l 176 111 l 231 214 l 121 214 l 121 366 z "},"+":{"ha":811,"x_min":90,"x_max":721,"o":"m 721 519 l 721 365 l 482 365 l 482 126 l 329 126 l 329 365 l 90 365 l 90 519 l 329 519 l 329 758 l 482 758 l 482 519 l 721 519 z "},"−":{"ha":811,"x_min":111,"x_max":700,"o":"m 700 519 l 700 365 l 111 365 l 111 519 l 700 519 z "},"×":{"ha":811,"x_min":90,"x_max":721,"o":"m 203 125 l 93 234 l 297 442 l 90 653 l 200 762 l 405 552 l 611 762 l 721 653 l 514 442 l 718 234 l 609 125 l 405 331 l 203 125 z "},"÷":{"ha":811,"x_min":90,"x_max":721,"o":"m 296 708 q 326 781 296 752 q 405 809 355 809 q 486 781 456 809 q 515 708 515 752 q 486 636 515 664 q 405 608 456 608 q 326 636 355 608 q 296 708 296 664 m 721 519 l 721 366 l 90 366 l 90 519 l 721 519 m 296 173 q 326 246 296 217 q 405 275 355 275 q 486 246 456 275 q 515 173 515 217 q 486 101 515 129 q 405 73 456 73 q 326 101 355 73 q 296 173 296 129 z "},"±":{"ha":811,"x_min":89,"x_max":721,"o":"m 721 602 l 721 449 l 483 449 l 483 240 l 328 240 l 328 449 l 89 449 l 89 602 l 328 602 l 328 827 l 483 827 l 483 602 l 721 602 m 720 153 l 720 0 l 91 0 l 91 153 l 720 153 z "},"≈":{"ha":811,"x_min":83,"x_max":729,"o":"m 83 461 l 83 619 q 160 673 114 654 q 249 692 205 692 q 339 679 304 693 q 417 643 375 664 q 491 609 458 622 q 574 596 523 596 q 657 618 618 596 q 729 681 697 641 l 729 522 q 660 470 697 489 q 579 451 622 451 q 495 464 529 451 q 422 498 462 477 q 344 534 379 519 q 254 547 308 549 q 162 524 210 547 q 83 461 114 502 m 83 177 l 83 335 q 158 388 114 369 q 245 406 201 406 q 334 393 299 408 q 413 357 370 379 q 486 324 453 337 q 570 311 519 311 q 655 334 614 311 q 729 396 697 356 l 729 238 q 657 185 697 204 q 574 166 618 166 q 491 179 523 166 q 417 212 458 192 q 339 248 375 234 q 249 261 304 263 q 160 239 205 261 q 83 177 114 217 z "},"~":{"ha":877,"x_min":73,"x_max":804,"o":"m 662 554 l 804 554 q 745 353 804 426 q 589 280 685 280 q 494 301 540 280 q 405 366 449 322 q 355 409 377 396 q 305 422 332 422 q 239 393 262 422 q 215 310 217 363 l 73 310 q 137 512 73 443 q 291 581 200 581 q 472 495 388 581 q 523 451 501 467 q 575 436 545 436 q 637 464 613 436 q 662 554 662 492 z "},"¬":{"ha":766,"x_min":101,"x_max":667,"o":"m 667 546 l 667 254 l 531 254 l 531 430 l 101 430 l 101 546 l 667 546 z "},"·":{"ha":392,"x_min":84,"x_max":307,"o":"m 195 372 q 117 405 149 372 q 84 485 84 438 q 117 563 84 531 q 195 596 150 596 q 274 563 242 596 q 307 485 307 530 q 274 405 307 438 q 195 372 242 372 z "},"·":{"ha":392,"x_min":67,"x_max":290,"o":"m 178 372 q 99 405 132 372 q 67 485 67 438 q 100 563 67 531 q 178 596 133 596 q 257 563 224 596 q 290 485 290 530 q 257 405 290 438 q 178 372 224 372 z "},";":{"ha":392,"x_min":87,"x_max":316,"o":"m 200 546 q 122 579 154 546 q 89 659 89 612 q 122 737 89 705 q 200 770 155 770 q 279 737 247 770 q 312 659 312 704 q 279 579 312 612 q 200 546 247 546 m 316 157 l 316 30 q 281 -122 315 -48 q 194 -249 247 -196 l 87 -205 q 132 -104 110 -155 q 154 20 154 -53 l 154 157 l 316 157 z "},"_":{"ha":641,"x_min":10,"x_max":631,"o":"m 631 0 l 631 -150 l 10 -150 l 10 0 l 631 0 z "},"†":{"ha":806,"x_min":68,"x_max":738,"o":"m 738 734 l 738 575 l 498 575 l 498 0 l 306 0 l 306 575 l 68 575 l 68 734 l 306 734 l 306 988 l 498 988 l 498 734 l 738 734 z "},"‡":{"ha":766,"x_min":47,"x_max":718,"o":"m 718 155 l 718 0 l 477 0 l 477 -282 l 286 -282 l 286 0 l 47 0 l 47 155 l 286 155 l 286 580 l 47 580 l 47 734 l 286 734 l 286 988 l 477 988 l 477 734 l 718 734 l 718 580 l 477 580 l 477 155 l 718 155 z "},"^":{"ha":640,"x_min":48,"x_max":592,"o":"m 438 495 l 320 803 l 201 495 l 48 495 l 250 988 l 390 988 l 592 495 l 438 495 z "},"*":{"ha":751,"x_min":71,"x_max":681,"o":"m 141 478 l 285 661 l 71 724 l 109 845 l 323 763 l 312 995 l 444 995 l 432 758 l 641 839 l 681 719 l 464 655 l 604 477 l 499 401 l 373 594 l 247 405 l 141 478 z "},"®":{"ha":1145,"x_min":91,"x_max":1054,"o":"m 91 495 q 128 695 91 603 q 232 856 166 787 q 386 964 299 925 q 572 1002 473 1002 q 759 964 672 1002 q 913 856 846 925 q 1016 695 979 787 q 1054 495 1054 603 q 1016 294 1054 387 q 913 133 979 202 q 759 25 846 64 q 572 -14 672 -14 q 386 25 473 -14 q 232 133 299 64 q 128 294 166 202 q 91 495 91 387 m 174 495 q 205 328 174 405 q 291 193 236 251 q 418 103 346 135 q 572 71 490 71 q 727 103 655 71 q 854 193 799 135 q 940 328 909 251 q 971 495 971 405 q 940 662 971 585 q 854 796 909 738 q 727 885 799 853 q 572 917 655 917 q 418 885 490 917 q 291 796 346 853 q 205 662 236 738 q 174 495 174 585 m 582 444 l 475 444 l 475 215 l 373 215 l 373 791 l 563 791 q 724 746 665 791 q 783 614 783 701 q 706 495 783 537 q 764 436 748 474 q 781 349 781 398 l 781 312 q 793 225 781 257 l 793 215 l 689 215 q 680 264 681 231 q 679 312 679 297 l 679 349 q 657 420 679 397 q 582 444 635 444 m 475 700 l 475 535 l 568 535 q 648 554 613 535 q 683 614 683 574 q 656 681 683 662 q 563 700 629 700 l 475 700 z "},"™":{"ha":892,"x_min":86,"x_max":780,"o":"m 696 621 l 696 861 l 619 621 l 572 621 l 495 862 l 495 621 l 409 621 l 409 988 l 515 988 l 595 738 l 681 988 l 780 988 l 780 621 l 696 621 m 361 988 l 361 916 l 273 916 l 273 622 l 179 622 l 179 916 l 86 916 l 86 988 l 361 988 z "},"℠":{"ha":892,"x_min":69,"x_max":824,"o":"m 290 722 q 275 750 290 738 q 218 770 261 761 q 116 810 149 783 q 83 886 83 836 q 121 963 83 931 q 226 995 158 995 q 333 963 296 995 q 370 877 370 932 l 285 877 q 271 911 285 899 q 226 924 258 924 q 182 913 195 924 q 170 886 170 902 q 183 859 170 870 q 246 838 196 848 q 343 799 309 825 q 376 723 376 772 q 336 643 376 674 q 225 612 296 612 q 110 644 152 612 q 69 733 69 677 l 156 733 q 176 695 156 705 q 225 686 196 686 q 275 696 261 686 q 290 722 290 706 m 738 621 l 738 828 l 661 621 l 612 621 l 531 836 l 531 621 l 445 621 l 445 988 l 551 988 l 636 738 l 721 988 l 824 988 l 824 621 l 738 621 z "},"°":{"ha":554,"x_min":63,"x_max":489,"o":"m 278 581 q 171 610 220 581 q 93 687 122 639 q 63 794 63 735 q 93 902 63 853 q 171 981 122 951 q 278 1010 220 1010 q 384 981 336 1010 q 460 902 432 951 q 489 794 489 853 q 460 687 489 735 q 384 610 432 639 q 278 581 336 581 m 278 695 q 347 724 319 695 q 376 795 376 753 q 347 866 376 836 q 278 895 319 895 q 208 866 238 895 q 179 795 179 836 q 208 724 179 753 q 278 695 238 695 z "},"ª":{"ha":640,"x_min":102,"x_max":539,"o":"m 418 478 q 407 525 411 501 q 353 486 387 503 q 270 470 319 470 q 145 512 189 470 q 102 623 102 554 q 159 739 102 699 q 333 780 217 780 l 402 780 l 402 815 q 324 902 402 902 q 230 835 230 902 l 112 843 q 170 957 112 912 q 324 1002 227 1002 q 467 955 412 1002 q 521 815 521 908 l 521 602 q 525 538 521 568 q 539 478 528 508 l 418 478 m 300 567 q 356 580 327 567 q 402 610 384 592 l 402 701 l 333 701 q 248 678 274 701 q 221 626 221 655 q 240 583 221 599 q 300 567 258 567 z "},"º":{"ha":640,"x_min":85,"x_max":554,"o":"m 85 708 l 85 760 q 148 934 85 866 q 320 1002 212 1002 q 492 934 429 1002 q 554 760 554 866 l 554 708 q 492 536 554 603 q 322 468 430 468 q 148 536 212 468 q 85 708 85 603 m 203 760 l 203 708 q 233 608 203 648 q 322 568 262 568 q 408 608 379 568 q 436 708 436 648 l 436 760 q 407 861 436 820 q 320 902 379 902 q 233 861 262 902 q 203 760 203 820 z "},"ⁱ":{"ha":347,"x_min":90,"x_max":258,"o":"m 90 1069 q 112 1124 90 1102 q 173 1146 135 1146 q 235 1124 212 1146 q 258 1069 258 1102 q 235 1013 258 1035 q 173 991 212 991 q 112 1013 135 991 q 90 1069 90 1035 m 247 927 l 247 381 l 104 381 l 104 927 l 247 927 z "},"ⁿ":{"ha":640,"x_min":89,"x_max":551,"o":"m 322 872 q 267 857 289 872 q 232 819 245 843 l 232 443 l 89 443 l 89 987 l 201 987 l 223 904 q 286 970 248 946 q 374 994 324 994 q 504 945 457 994 q 551 787 551 897 l 551 443 l 409 443 l 409 743 q 386 843 409 815 q 322 872 364 872 z "},"¶":{"ha":640,"x_min":52,"x_max":589,"o":"m 589 0 l 441 0 l 441 353 l 385 353 q 203 394 277 353 q 90 507 128 436 q 52 671 52 579 q 90 833 52 762 q 203 947 128 905 q 385 988 277 988 l 589 988 l 589 0 z "},"§":{"ha":787,"x_min":69,"x_max":720,"o":"m 662 762 l 492 762 q 467 833 492 804 q 388 862 441 862 q 316 841 345 862 q 288 785 288 821 q 319 720 288 747 q 381 679 351 693 l 565 587 q 611 561 584 577 q 664 518 638 544 q 705 453 689 491 q 716 362 720 415 q 692 292 713 322 q 645 243 672 262 q 592 217 618 224 l 591 215 q 671 36 671 144 q 634 -94 671 -41 q 534 -176 597 -148 q 392 -204 471 -204 q 239 -171 306 -204 q 136 -78 173 -139 q 99 64 99 -18 l 269 64 q 304 -16 269 12 q 394 -41 339 -43 q 466 -22 433 -40 q 500 36 500 -3 q 468 102 500 77 q 408 142 436 127 l 223 232 q 177 258 204 242 q 125 302 150 275 q 84 367 99 329 q 73 459 69 406 q 116 556 76 519 q 196 605 156 593 l 196 607 q 139 686 161 642 q 117 785 117 729 q 152 908 117 854 q 247 993 186 962 q 388 1024 308 1024 q 532 990 471 1024 q 628 897 594 956 q 662 762 662 838 m 556 353 q 477 450 562 409 l 312 532 q 260 525 287 545 q 230 468 234 505 q 249 414 227 438 q 310 370 270 389 l 474 291 q 526 297 498 279 q 556 353 553 316 z "},"©":{"ha":1145,"x_min":91,"x_max":1054,"o":"m 91 495 q 128 695 91 603 q 232 856 166 787 q 386 964 299 925 q 572 1002 473 1002 q 759 964 672 1002 q 913 856 846 925 q 1016 695 979 787 q 1054 495 1054 603 q 1016 294 1054 387 q 913 133 979 202 q 759 25 846 64 q 572 -14 672 -14 q 386 25 473 -14 q 232 133 299 64 q 128 294 166 202 q 91 495 91 387 m 174 495 q 205 328 174 405 q 291 193 236 251 q 418 103 346 135 q 572 71 490 71 q 727 103 655 71 q 854 193 799 135 q 940 328 909 251 q 971 495 971 405 q 940 662 971 585 q 854 796 909 738 q 727 885 799 853 q 572 917 655 917 q 418 885 490 917 q 291 796 346 853 q 205 662 236 738 q 174 495 174 585 m 685 404 l 791 404 q 729 245 791 298 q 563 191 668 191 q 391 264 455 191 q 327 454 327 337 l 327 535 q 391 724 327 652 q 563 797 455 797 q 729 744 668 797 q 791 584 791 690 l 686 584 q 654 678 686 649 q 563 706 623 706 q 465 658 498 706 q 432 535 432 610 l 432 454 q 465 330 432 378 q 563 282 498 282 q 654 310 623 282 q 685 404 685 338 z "},"∞":{"ha":1318,"x_min":55,"x_max":1263,"o":"m 355 730 q 509 693 443 730 q 619 614 575 656 q 659 569 642 589 q 678 591 668 580 q 698 614 688 602 q 809 693 743 656 q 963 730 874 730 q 1114 689 1046 730 q 1222 581 1182 649 q 1263 430 1263 512 q 1222 279 1263 347 q 1114 170 1182 211 q 963 130 1046 130 q 809 166 874 130 q 699 244 743 202 q 678 267 688 255 q 659 289 668 278 q 640 267 650 278 q 618 244 630 255 q 509 166 575 202 q 355 130 443 130 q 204 170 272 130 q 95 279 136 211 q 55 430 55 347 q 95 581 55 512 q 204 689 136 649 q 355 730 272 730 m 225 430 q 263 338 225 376 q 355 300 301 300 q 433 318 397 300 q 500 367 469 337 q 530 399 517 383 q 553 430 543 415 q 530 459 543 444 q 500 491 518 473 q 433 541 469 521 q 355 560 397 560 q 263 521 301 560 q 225 430 225 483 m 1092 430 q 1055 521 1092 483 q 963 560 1017 560 q 885 541 920 560 q 817 491 849 521 q 788 459 800 473 q 764 430 775 444 q 817 367 786 399 q 885 318 849 337 q 963 300 920 300 q 1055 338 1017 300 q 1092 430 1092 376 z "},"∂":{"ha":892,"x_min":103,"x_max":792,"o":"m 424 702 q 526 683 478 702 q 615 624 575 664 q 535 816 595 744 q 387 887 474 887 q 299 879 333 887 q 221 852 265 870 l 191 991 q 277 1025 228 1008 q 402 1043 326 1043 q 688 897 585 1043 q 792 481 791 751 l 792 441 q 751 210 792 314 q 634 47 711 107 q 446 -14 556 -14 q 259 33 335 -14 q 143 161 182 80 q 103 345 103 243 l 103 361 q 140 536 103 459 q 249 657 177 613 q 424 702 321 702 m 448 548 q 358 521 392 548 q 308 449 324 494 q 293 352 293 404 l 293 337 q 328 198 293 255 q 446 140 363 140 q 536 173 502 140 q 584 259 570 205 q 599 379 599 314 l 599 454 q 549 516 585 485 q 448 548 513 548 z "},"∑":{"ha":978,"x_min":90,"x_max":888,"o":"m 681 418 l 681 395 l 352 -30 l 888 -30 l 888 -183 l 90 -183 l 90 -81 l 479 406 l 90 885 l 90 988 l 863 988 l 863 833 l 354 833 l 681 418 z "},"∏":{"ha":1018,"x_min":136,"x_max":883,"o":"m 883 988 l 883 -170 l 689 -170 l 689 837 l 329 837 l 329 -170 l 136 -170 l 136 988 l 883 988 z "},"∫":{"ha":478,"x_min":-29,"x_max":507,"o":"m 324 -36 q 255 -231 324 -167 q 68 -296 187 -296 q 20 -294 42 -296 q -29 -286 -3 -291 l -18 -134 q 9 -140 -4 -137 q 41 -142 23 -142 q 109 -117 85 -142 q 132 -36 132 -92 l 132 800 q 203 991 132 925 q 400 1057 273 1057 q 453 1053 427 1057 q 507 1042 479 1049 l 491 896 q 461 900 475 899 q 425 902 447 902 q 324 800 324 902 l 324 -36 z "},"√":{"ha":892,"x_min":79,"x_max":814,"o":"m 79 361 l 79 516 l 339 516 l 436 201 l 658 988 l 814 988 l 521 0 l 360 0 l 230 361 l 79 361 z "},"◊":{"ha":766,"x_min":51,"x_max":716,"o":"m 51 493 l 302 988 l 465 988 l 716 493 l 466 0 l 303 0 l 51 493 m 241 493 l 385 202 l 525 493 l 383 786 l 241 493 z "},"⁄":{"ha":680,"x_min":52,"x_max":627,"o":"m 627 846 l 146 75 l 52 126 l 534 898 l 627 846 z "},"₀":{"ha":640,"x_min":128,"x_max":546,"o":"m 546 76 l 546 -35 q 489 -200 546 -146 q 339 -254 431 -254 q 186 -200 245 -254 q 128 -35 128 -146 l 128 76 q 186 242 128 188 q 337 296 245 296 q 488 242 429 296 q 546 76 546 188 m 409 -40 l 409 82 q 390 163 409 139 q 337 186 370 186 q 285 163 304 186 q 266 82 266 139 l 266 -40 q 285 -120 266 -98 q 339 -143 304 -143 q 390 -120 371 -143 q 409 -40 409 -98 z "},"₁":{"ha":513,"x_min":122,"x_max":386,"o":"m 386 287 l 386 -246 l 251 -246 l 251 128 l 122 100 l 122 206 l 374 287 l 386 287 z "},"₂":{"ha":640,"x_min":101,"x_max":532,"o":"m 532 -136 l 532 -246 l 112 -246 l 112 -153 l 306 22 q 362 84 345 55 q 379 129 379 113 q 363 171 379 155 q 314 187 346 187 q 256 164 275 187 q 238 112 238 142 l 101 112 q 156 242 101 188 q 307 296 212 296 q 461 253 406 296 q 516 129 516 210 q 480 27 516 70 q 370 -74 444 -17 l 292 -136 l 532 -136 z "},"₃":{"ha":640,"x_min":165,"x_max":600,"o":"m 317 -19 l 317 73 l 376 73 q 435 90 416 73 q 453 133 453 106 q 437 170 453 153 q 380 187 421 187 q 331 176 352 187 q 311 144 311 164 l 174 144 q 202 228 174 194 q 277 279 230 262 q 377 296 323 296 q 531 257 472 296 q 590 143 590 218 q 566 73 590 103 q 499 29 541 44 q 573 -14 546 16 q 600 -96 600 -44 q 536 -212 600 -171 q 377 -254 472 -254 q 278 -237 327 -254 q 197 -184 229 -220 q 165 -86 165 -147 l 304 -86 q 325 -125 304 -108 q 385 -143 347 -143 q 445 -125 426 -143 q 463 -82 463 -107 q 440 -34 463 -48 q 376 -19 417 -19 l 317 -19 z "},"₄":{"ha":640,"x_min":97,"x_max":538,"o":"m 538 -26 l 538 -137 l 477 -137 l 477 -246 l 340 -246 l 340 -137 l 105 -137 l 97 -47 l 340 289 l 477 289 l 477 -26 l 538 -26 m 228 -26 l 340 -26 l 340 121 l 331 106 l 228 -26 z "},"₅":{"ha":640,"x_min":108,"x_max":527,"o":"m 229 -14 l 120 14 l 157 289 l 496 289 l 496 181 l 269 181 l 255 89 q 290 99 265 92 q 343 107 315 107 q 480 61 433 107 q 527 -67 527 16 q 504 -157 527 -114 q 436 -227 482 -200 q 319 -254 390 -254 q 218 -235 265 -254 q 139 -179 170 -215 q 108 -94 109 -144 l 246 -94 q 267 -132 247 -121 q 319 -143 287 -143 q 375 -120 361 -143 q 389 -66 389 -97 q 369 -9 389 -30 q 307 11 349 11 q 256 2 273 11 q 229 -14 239 -7 z "},"₆":{"ha":640,"x_min":101,"x_max":532,"o":"m 416 300 l 438 300 l 438 187 l 431 187 q 307 164 359 187 q 242 68 255 142 q 293 99 263 87 q 360 111 323 111 q 487 62 443 111 q 532 -67 532 12 q 473 -200 532 -146 q 321 -254 414 -254 q 164 -201 226 -254 q 101 -35 101 -148 l 101 -1 q 144 173 101 107 q 259 270 187 240 q 416 300 330 300 m 239 -58 q 318 -143 239 -143 q 372 -120 351 -143 q 393 -67 393 -98 q 373 -15 393 -32 q 317 2 353 2 q 268 -8 289 2 q 239 -31 248 -18 l 239 -58 z "},"₇":{"ha":640,"x_min":166,"x_max":599,"o":"m 599 289 l 599 212 l 373 -246 l 229 -246 l 454 179 l 166 179 l 166 289 l 599 289 z "},"₈":{"ha":640,"x_min":108,"x_max":527,"o":"m 515 145 q 494 77 515 106 q 438 29 474 47 q 503 -21 479 11 q 527 -98 527 -54 q 468 -215 527 -176 q 319 -254 408 -254 q 168 -215 229 -254 q 108 -98 108 -176 q 132 -21 108 -53 q 198 30 156 11 q 142 77 162 48 q 121 145 121 107 q 177 258 121 220 q 317 296 232 296 q 459 258 404 296 q 515 145 515 220 m 377 137 q 317 187 377 187 q 258 137 258 187 q 274 98 258 113 q 319 83 290 83 q 363 98 348 83 q 377 137 377 113 m 390 -85 q 370 -42 390 -56 q 317 -29 350 -29 q 266 -42 285 -29 q 247 -85 247 -56 q 266 -127 247 -111 q 319 -143 286 -143 q 370 -127 350 -143 q 390 -85 390 -111 z "},"₉":{"ha":640,"x_min":169,"x_max":588,"o":"m 270 -145 l 279 -145 q 395 -125 351 -145 q 448 -40 438 -106 q 401 -65 427 -56 q 347 -75 375 -75 q 217 -30 265 -75 q 169 103 169 15 q 196 200 169 156 q 270 270 222 244 q 378 296 317 296 q 527 245 466 296 q 588 77 588 193 l 588 40 q 548 -136 588 -72 q 438 -227 508 -200 q 280 -254 369 -254 l 270 -254 l 270 -145 m 308 102 q 384 26 308 26 q 425 35 408 26 q 450 54 441 43 l 450 106 q 431 168 450 149 q 378 186 412 186 q 327 162 345 186 q 308 102 308 137 z "},"₊":{"ha":640,"x_min":126,"x_max":580,"o":"m 415 247 l 415 63 l 580 63 l 580 -53 l 415 -53 l 415 -235 l 292 -235 l 292 -53 l 126 -53 l 126 63 l 292 63 l 292 247 l 415 247 z "},"₋":{"ha":640,"x_min":177,"x_max":580,"o":"m 580 63 l 580 -53 l 177 -53 l 177 63 l 580 63 z "},"₌":{"ha":640,"x_min":115,"x_max":518,"o":"m 518 168 l 518 51 l 115 51 l 115 168 l 518 168 m 518 -41 l 518 -158 l 115 -158 l 115 -41 l 518 -41 z "},"₍":{"ha":387,"x_min":70,"x_max":319,"o":"m 70 10 l 70 20 q 100 202 70 124 q 175 328 130 279 q 263 396 220 377 l 319 307 q 270 246 293 282 q 231 157 246 211 q 216 22 216 103 l 216 10 q 231 -127 216 -73 q 270 -215 247 -181 q 319 -273 294 -250 l 263 -361 q 175 -294 220 -342 q 100 -169 130 -246 q 70 10 70 -93 z "},"₎":{"ha":387,"x_min":70,"x_max":319,"o":"m 319 28 l 319 16 q 288 -166 319 -88 q 213 -293 258 -244 q 126 -361 169 -342 l 70 -273 q 117 -214 94 -250 q 156 -124 141 -179 q 171 16 171 -68 l 171 28 q 156 160 171 108 q 118 248 142 213 q 70 307 95 283 l 126 396 q 213 330 169 378 q 288 206 258 282 q 319 28 319 130 z "},"⁰":{"ha":640,"x_min":128,"x_max":546,"o":"m 546 774 l 546 663 q 489 498 546 551 q 339 444 431 444 q 186 498 245 444 q 128 663 128 551 l 128 774 q 186 940 128 886 q 337 994 245 994 q 488 940 429 994 q 546 774 546 886 m 409 657 l 409 780 q 390 861 409 837 q 337 884 370 884 q 285 861 304 884 q 266 780 266 837 l 266 657 q 285 578 266 600 q 339 555 304 555 q 390 578 371 555 q 409 657 409 600 z "},"¹":{"ha":513,"x_min":122,"x_max":386,"o":"m 386 985 l 386 452 l 251 452 l 251 826 l 122 798 l 122 904 l 374 985 l 386 985 z "},"²":{"ha":640,"x_min":163,"x_max":595,"o":"m 595 562 l 595 452 l 175 452 l 175 545 l 369 720 q 425 782 408 753 q 442 827 442 811 q 425 869 442 853 q 376 885 408 885 q 319 862 338 885 q 300 810 300 840 l 163 810 q 219 940 163 886 q 370 994 275 994 q 524 951 469 994 q 579 827 579 908 q 543 725 579 768 q 433 624 507 681 l 355 562 l 595 562 z "},"³":{"ha":640,"x_min":122,"x_max":557,"o":"m 274 679 l 274 771 l 333 771 q 392 787 373 771 q 410 831 410 804 q 394 868 410 851 q 337 885 378 885 q 289 873 309 885 q 268 842 268 862 l 131 842 q 159 926 131 892 q 234 977 187 960 q 334 994 280 994 q 489 955 430 994 q 547 841 547 916 q 523 771 547 800 q 456 727 498 742 q 530 684 504 714 q 557 602 557 654 q 493 486 557 527 q 334 444 430 444 q 235 461 284 444 q 154 514 186 477 q 122 612 122 551 l 261 612 q 282 573 261 590 q 342 555 304 555 q 401 573 383 555 q 420 616 420 591 q 397 664 420 650 q 333 679 374 679 l 274 679 z "},"⁴":{"ha":640,"x_min":157,"x_max":598,"o":"m 598 672 l 598 561 l 538 561 l 538 452 l 400 452 l 400 561 l 165 561 l 157 651 l 400 986 l 538 986 l 538 672 l 598 672 m 289 672 l 400 672 l 400 819 l 391 804 l 289 672 z "},"⁵":{"ha":640,"x_min":166,"x_max":584,"o":"m 287 684 l 178 712 l 215 986 l 554 986 l 554 879 l 327 879 l 313 787 q 347 797 323 790 q 401 804 372 804 q 537 759 490 804 q 584 631 584 714 q 562 541 584 584 q 493 471 540 498 q 376 444 447 444 q 275 463 323 444 q 197 519 227 483 q 166 604 167 554 l 304 604 q 325 566 305 577 q 376 555 344 555 q 433 578 418 555 q 447 632 447 601 q 427 689 447 668 q 365 709 406 709 q 313 700 330 709 q 287 684 296 691 z "},"⁶":{"ha":640,"x_min":101,"x_max":532,"o":"m 416 998 l 438 998 l 438 885 l 431 885 q 307 862 359 885 q 242 766 255 839 q 293 797 263 785 q 360 809 323 809 q 487 760 443 809 q 532 631 532 710 q 473 498 532 551 q 321 444 414 444 q 164 497 226 444 q 101 663 101 549 l 101 697 q 144 871 101 805 q 259 968 187 938 q 416 998 330 998 m 239 640 q 318 555 239 555 q 372 578 351 555 q 393 631 393 600 q 373 683 393 666 q 317 700 353 700 q 268 690 289 700 q 239 667 248 680 l 239 640 z "},"⁷":{"ha":640,"x_min":166,"x_max":599,"o":"m 599 986 l 599 910 l 373 452 l 229 452 l 454 877 l 166 877 l 166 986 l 599 986 z "},"⁸":{"ha":640,"x_min":166,"x_max":585,"o":"m 585 600 q 526 483 585 522 q 377 444 467 444 q 227 483 287 444 q 166 600 166 522 q 190 677 166 645 q 256 727 215 709 q 200 775 220 746 q 180 843 180 804 q 235 956 180 917 q 375 994 291 994 q 518 956 462 994 q 573 843 573 917 q 553 775 573 804 q 497 727 532 745 q 561 676 537 709 q 585 600 585 644 m 436 835 q 375 885 436 885 q 317 835 317 885 q 332 796 317 811 q 377 781 348 781 q 421 796 406 781 q 436 835 436 811 m 448 613 q 428 656 448 642 q 375 669 408 669 q 324 656 343 669 q 305 613 305 642 q 324 571 305 586 q 377 555 344 555 q 428 571 408 555 q 448 613 448 586 z "},"⁹":{"ha":640,"x_min":129,"x_max":547,"o":"m 229 553 l 238 553 q 354 573 310 553 q 407 658 398 592 q 361 633 387 642 q 307 623 335 623 q 177 668 224 623 q 129 801 129 713 q 155 897 129 853 q 229 968 182 942 q 338 994 276 994 q 487 943 426 994 q 547 775 547 891 l 547 738 q 508 562 547 626 q 398 471 468 498 q 239 443 328 443 l 229 443 l 229 553 m 267 799 q 344 724 267 724 q 384 733 368 724 q 410 752 401 741 l 410 804 q 391 866 410 847 q 338 884 372 884 q 286 859 305 884 q 267 799 267 835 z "},"⁺":{"ha":640,"x_min":93,"x_max":546,"o":"m 546 742 l 546 625 l 382 625 l 382 444 l 259 444 l 259 625 l 93 625 l 93 742 l 259 742 l 259 925 l 382 925 l 382 742 l 546 742 z "},"⁻":{"ha":640,"x_min":118,"x_max":521,"o":"m 521 742 l 521 625 l 118 625 l 118 742 l 521 742 z "},"⁼":{"ha":640,"x_min":118,"x_max":521,"o":"m 521 846 l 521 729 l 118 729 l 118 846 l 521 846 m 521 638 l 521 521 l 118 521 l 118 638 l 521 638 z "},"⁽":{"ha":387,"x_min":70,"x_max":319,"o":"m 70 654 l 70 666 q 100 856 70 775 q 175 989 130 938 q 263 1060 220 1041 l 319 972 q 270 907 293 945 q 231 811 246 869 q 216 666 216 753 l 216 654 q 231 506 216 565 q 270 409 247 447 q 319 346 294 372 l 263 258 q 175 330 220 278 q 100 463 130 382 q 70 654 70 545 z "},"⁾":{"ha":387,"x_min":70,"x_max":319,"o":"m 319 666 l 319 654 q 288 463 319 545 q 213 330 258 382 q 126 258 169 278 l 70 346 q 117 409 94 372 q 156 506 141 447 q 171 654 171 565 l 171 666 q 156 811 171 753 q 118 907 142 869 q 70 972 95 945 l 126 1060 q 213 989 169 1041 q 288 856 258 938 q 319 666 319 775 z "},"½":{"ha":1145,"x_min":111,"x_max":1090,"o":"m 376 987 l 376 454 l 241 454 l 241 828 l 111 799 l 111 906 l 364 987 l 376 987 m 816 852 l 334 81 l 241 132 l 722 904 l 816 852 m 1090 110 l 1090 0 l 671 0 l 671 93 l 865 268 q 921 330 904 301 q 938 375 938 359 q 921 417 938 401 q 872 433 904 433 q 815 411 834 433 q 796 358 796 388 l 659 358 q 715 488 659 434 q 866 543 770 543 q 1020 499 965 543 q 1075 375 1075 456 q 1038 273 1075 316 q 929 172 1002 229 l 850 110 l 1090 110 z "},"¼":{"ha":1059,"x_min":72,"x_max":981,"o":"m 336 983 l 336 450 l 201 450 l 201 824 l 72 796 l 72 902 l 325 983 l 336 983 m 795 852 l 313 81 l 219 132 l 701 904 l 795 852 m 981 220 l 981 109 l 921 109 l 921 0 l 784 0 l 784 109 l 548 109 l 541 199 l 784 535 l 921 535 l 921 220 l 981 220 m 672 220 l 784 220 l 784 367 l 775 352 l 672 220 z "},"¾":{"ha":1145,"x_min":143,"x_max":1120,"o":"m 294 679 l 294 771 l 354 771 q 412 787 393 771 q 431 831 431 804 q 414 868 431 851 q 358 885 398 885 q 309 873 329 885 q 289 842 289 862 l 151 842 q 179 926 151 892 q 254 977 208 960 q 355 994 300 994 q 509 955 450 994 q 568 841 568 916 q 543 771 568 800 q 476 727 518 742 q 551 684 524 714 q 578 602 578 654 q 514 486 578 527 q 355 444 450 444 q 255 461 304 444 q 174 514 206 477 q 143 612 143 551 l 281 612 q 303 573 281 590 q 363 555 324 555 q 422 573 403 555 q 440 616 440 591 q 417 664 440 650 q 354 679 394 679 l 294 679 m 938 852 l 456 81 l 363 132 l 844 904 l 938 852 m 1120 220 l 1120 109 l 1060 109 l 1060 0 l 923 0 l 923 109 l 687 109 l 679 199 l 922 535 l 1060 535 l 1060 220 l 1120 220 m 811 220 l 923 220 l 923 367 l 913 352 l 811 220 z "},"%":{"ha":1145,"x_min":109,"x_max":1038,"o":"m 109 767 l 109 821 q 133 931 109 881 q 206 1011 158 981 q 322 1041 254 1041 q 438 1011 391 1041 q 510 931 486 981 q 535 821 535 881 l 535 767 q 510 657 535 707 q 438 578 485 608 q 322 548 390 548 q 205 578 253 548 q 133 657 157 608 q 109 767 109 707 m 1003 1027 l 286 -17 l 130 -17 l 847 1027 l 1003 1027 m 243 821 l 243 767 q 259 698 243 730 q 322 666 276 666 q 383 698 366 666 q 400 767 400 730 l 400 821 q 384 890 400 858 q 322 923 368 923 q 260 890 277 923 q 243 821 243 858 m 612 189 l 612 243 q 636 353 612 303 q 709 433 661 403 q 825 463 757 463 q 942 433 894 463 q 1014 353 989 403 q 1038 243 1038 303 l 1038 189 q 1013 79 1038 129 q 941 -1 988 29 q 825 -31 893 -31 q 708 -1 756 -31 q 636 79 660 29 q 612 189 612 129 m 746 243 l 746 189 q 763 120 746 152 q 825 88 779 88 q 887 120 870 88 q 904 189 904 152 l 904 243 q 887 312 904 280 q 825 345 871 345 q 763 312 780 345 q 746 243 746 280 z "}}}
